<?xml version="1.0" encoding="utf-8"?>
<!-- Generator: Adobe Illustrator 27.0.1, SVG Export Plug-In . SVG Version: 6.00 Build 0)  -->
<svg version="1.1" xmlns="http://www.w3.org/2000/svg" xmlns:xlink="http://www.w3.org/1999/xlink" x="0px" y="0px"
	 viewBox="0 0 11383.4 4715.7" style="enable-background:new 0 0 11383.4 4715.7;" xml:space="preserve">
<style type="text/css">
	.st0{stroke:#000000;stroke-width:14;stroke-miterlimit:10;}
</style>
<g id="Layer_1">
	<g>
		<g>
			<path class="st0" d="M7284,1809.6c-2.6,0.4-7.2,3.9-8.4,12c-20.4,64.1-49.8,144.2-123.9,157.1c-66.4,11.6-136.6-59.1-187.9-142.2
				c153.3-71.5,225.7-214.3,216.1-337.6c-10.3-127.1-110-230.8-295.1-198.5l-34.5,6c-282.2,71.6-365.1,320.2-236.7,378
				c-6.8-175.1,146.5-291.3,289.5-316.2c54.9-9.6,107.1-4.2,148.8,16.1c133.7,64.8,70.2,236.4-15.1,321
				c-43,40.4-96.2,74.7-149.9,98.5c31.6-135.7,73.4-265.4,110.2-303.4c-11.8-7.2-24.2-10.3-35.6-8.3c-20.4,3.6-40.7,22.9-51.6,51.1
				c-15.9,37-65.9,157.5-104,286.5l-10.2,1.8c-11.5,2-23,4-34.9,3.5c-2.6,0.4-9.2,0.3-14.3,1.2l-2.6,0.4
				c-4.2,36.3,15.2,42.1,50.4,39.9c-44.3,168.2-56.8,330.9,67.2,325.1c2.6-0.4,8.7-2.8,9.3-6.9c5.7-4.9,3.3-11.1,0.8-10.7
				c-6.4,1.1-13.2-0.3-15.6-6.5c-17.2-53.6-6.7-181.7,18.1-311c12.5-3.5,22.8-5.3,35.1-10.1c51.1,112.1,134.6,221.2,229.1,204.7
				c91.9-16,134.1-158.9,155.4-240.2C7296.9,1815.3,7290.4,1808.5,7284,1809.6z"/>
			<path class="st0" d="M7356.1,2326.9c-10.2,1.8-20.6,2.3-30.3,0c-47.8-10.1-64.2-66.4-36.2-117.3
				c21.8-48.5,75.7-109.2,129.3-171.2c7.4-40.8,12.4-79.8,19-109.9c3.7-24.3,3-50.5,6.7-74.8c-0.4-2.6,9-54.2,8.3-58
				c-14.5,52.5-65,223.1-127.6,234.1c-24.3,4.2-39.5-7.6-48.8-31c-28.7-73.9,9.3-346.3,84.5-383.1l8.9-1.6c23-4,43.1,13.5,39.5,15.5
				c-46.9,47.7-82.5,228.8-73.4,295.6c2.2,12.8,5.4,16.2,10.6,15.3c31.9-5.6,126-273.2,135.2-303.8c5.8-19.4,15.4-47.4,38.4-51.4
				c26.8-4.7,52.1,19.9,40.9,31c-30.1,23.7-45.2,110.5-57.4,213.9c-4.2,36.3-7.5,77.6-11.9,120.5c7.6-9.2,16.5-18.7,22.8-27.7
				c0.6-4.1,2.7-7.1,6.3-9c26.7-42.8,50.8-100.9,68.8-148.8c1.2-8.1,6.1-10.3,9.9-10.9c5.1-0.9,10.1,4.8,9.9,11.4
				c-25.1,97.8-59.6,156.4-120.8,235.5C7472.5,2156.7,7448.1,2310.9,7356.1,2326.9z M7405.2,2102.6
				c-57.4,70.5-103.6,129.9-89.8,156.4c3,2.1,8.3,2.5,13.4,1.6C7359.4,2255.3,7383.8,2184,7405.2,2102.6z"/>
			<path class="st0" d="M7798.7,1620.9c26.8-4.7,55.3,15.4,46.9,27.3c-45.9,46.2-68.7,239.6-15.3,228.9c47-9.5,94.3-123,107.4-168.7
				c2.5-8.3,6.1-10.3,9.9-10.9c6.4-1.1,11.1,3.3,10.9,9.9c-16.6,63.4-79.2,240.1-154.5,253.2c-49.8,8.7-66.7-58.1-68.1-134.1
				c-16.3,42.3-55.5,157-107.8,166.1c-108.5,18.9-66.4-358.1,49.6-432.3c7.2-3.9,15.9-6.7,23.6-8.1c33.2-5.8,72.3,15,70.7,81.1
				C7778.7,1627,7788.5,1622.7,7798.7,1620.9z M7645.1,1901.6c23-4,67-106.4,96.8-184c2-18.8,6.1-40.5,12.6-56.1
				c-2-11.5-14.8-69.8-31.4-66.9c-38.3,6.7-106.6,196.2-88.6,291.7C7636.5,1897.9,7640,1902.5,7645.1,1901.6z"/>
			<path class="st0" d="M7923.6,1884.6c-16.7-95.8,13.3-270.7,39.3-363.4c3.1-12.4,11.6-16.5,20.5-18.1c23-4,52.7,7.9,49.1,17.7
				c-9.1,30.5-26.1,121.6-35.6,195.6c19.9-52.1,90.9-232.9,154.8-244.1c30.6-5.3,54.7,19.4,50.7,26.7c-1.1,1.5-1.7,5.6-4.8,10.1
				c-16.2,50.2-62.2,284.5-13.5,299.7l2.8,0.8c1.5,1.1,2.8,0.8,4.1,0.6c2.6-0.4,3.6-1.9,7.4-2.6c46.1-14.6,90.5-122.3,103.8-166.8
				c1.2-8.1,5.9-11.5,8.4-12c6.4-1.1,11.5,5.9,11.2,11.2c-34.4,127-98.5,242.1-151.9,252.8c-111.3,18.1-60-276.3-51.1-338.4
				c-49.4,86.2-126.6,254.9-120.5,357.8c0.9,13-0.1,14.5-12.6,18C7948.5,1936.9,7932.2,1918.7,7923.6,1884.6z"/>
		</g>
		<g>
			<path class="st0" d="M7580.8,2116.4c70.3-41.4,145.3-70.9,217.7-89.9c3.9-8.9,4.1-8,8.9-17c4.7-9.9,11.3-13.8,18.3-15
				c9.7-1.7,18.8,3.1,20.6,8.3c-3.5,6.1-1.6,6.7-5.1,12.7c54.9-9.6,106.3-17.6,162.3-15.5c21.1,0.9,65.4,4.1,63.7,30.8
				c-29.1-4.9-67.9-2.7-112.2,5c-43.4,7.6-91.2,20.5-139.4,37.1c-51.1,120.1-93.1,271.5-95.6,403.2c-1.1,30.3,0.3,95.7,21,120.3
				c1.2,1.6,0.5,2.7-1.3,3c-1.8,0.3-2.8-0.4-3.7-0.3c-73.9,10.1-80-77.2-78.3-130.4c4.9-128.5,55.2-264,108.9-379.1
				c-64.8,25.9-125.8,57.5-170.5,89c-55.8,40.7-82.6,91-56.4,121.1c3.7,5.7,1.7,9.7-2.7,10.5c-3.5,0.6-7.4-0.5-10.8-4.5
				C7456.9,2231.9,7508.4,2160.9,7580.8,2116.4z"/>
			<path class="st0" d="M7789.3,2548.6c-9-77.7,48.1-477,126.5-492.5c13.3-2.3,32,0.8,41.1,11.1c5.8,7.2-3.8,9.8-9.2,15.3
				c-52.8,47.5-94.1,265.3-106.9,354.1c13.6-37,61.1-162,107.1-170c21.2-3.7,37,13.6,35.3,19.4c-0.9,0.2-2.3,2.2-3.5,6.1
				c-11.3,34.8-43.1,197.1-9.2,208.6l1.8-0.3c1.9,0.6,4.6,0.1,7.2-0.3c31.1-10,63.4-85.8,71.8-116.4c1.7-5.8,4.2-7.1,6.9-7.6
				c3.5-0.6,7.8,3.2,6.7,7c-23,87.9-67.4,167.6-104.4,175c-78,12.7-42.5-191.3-35.3-233.6c-41.9,68.4-82.9,173.1-89.2,251.7
				c0.6,3.5-3.5,6.1-9.7,7.2C7813,2585.5,7793.8,2579.7,7789.3,2548.6z"/>
			<path class="st0" d="M8167.3,2290.4c-3.1,39.7-28.9,127.2-76.7,135.5c-3.5,0.6-5.3,0.9-9,0.7c-0.7,27.5,7.4,47.9,27.1,50.9
				c3.7,0.3,7.2-0.3,9.9-0.8c35.4-6.2,62.8-73.9,72.3-108.3c1.7-5.8,3.9-8.9,6.6-9.4c4.4-0.8,8,4.1,7,8.8
				c-14.6,57.2-50.2,161.9-113,172.9c-33.6,5.9-55.4-25-60.8-55.9c-9.9-56.6,10.7-132.2,36.7-181.4c11.6-22.1,36-60.1,63.4-64.9
				c3.5-0.6,6.3-0.2,10,0.1C8167.9,2241.9,8169,2269.1,8167.3,2290.4z M8136.9,2314.8c0.8-5.6,8.2-47-2.4-45.2
				c-24.8,4.3-49.2,115.2-51.7,137.6C8111.1,2402.3,8132,2339.4,8136.9,2314.8z"/>
		</g>
		<g>
			<path class="st0" d="M7245.1,2493.2c8.7-10.7,20.5-18.1,34.6-20.5c16.6-2.9,26.4,0.7,38.4,9.1l0.9,5.1l-2.3,1.7
				c-69.9,89.8-124,367.6-145.3,539.7c76.1-76.4,178.1-140.3,268.3-166.5c18.5-67.7,27.4-160,12.9-243
				c-27.6-158.3-121.4-168.3-189.1-156.5c-129,22.5-279.3,148.7-315.4,273.4c-3.8,8.6-4.8,17.9-8.5,26.5c-0.6,4.1-6.8,28.8-10.2,32
				c0,0-1.1,1.5-3.4,3.2c-15.3,2.7-42.5-40-47.2-66.8c-10.5-60,30-122.3,49.2-148c73.2-100.9,195.4-169.6,293.7-186.7
				c85.5-14.9,262.2-4.9,302.1,223.6c14.5,83,5.3,166.2-8.1,232.9c17.5,2.2,47.4,7.5,52.4,29l0.9,5.1c-1.4,6.8-5,8.8-7.6,9.2
				c-15.3,2.7-31.3,1.5-46.6,4.2l-12.8,2.2c-55,189.8-171.6,328.6-296.7,350.4c-48.5,8.5-106.1-5.2-115.7-60.1
				c-6.7-38.3,13.1-75.9,32.7-107c-10.3-6.1-22.5-15.8-26.9-41.3C7074.5,2925.5,7190.6,2550.1,7245.1,2493.2z M7154.3,3172.1
				c14.2,13.3,33.5,11.3,48.9,8.6c86.8-15.1,170.4-124.4,215.7-249.4C7358.6,2962.8,7163.3,3087.6,7154.3,3172.1z"/>
			<path class="st0" d="M7791.3,2736.1c-4.5,57.3-41.7,183.5-110.6,195.6c-5.1,0.9-7.7,1.3-13,0.9c-1,39.6,10.7,69.2,39.1,73.4
				c5.3,0.4,10.4-0.5,14.3-1.2c51.1-8.9,90.6-106.6,104.3-156.3c2.5-8.3,5.7-12.8,9.5-13.5c6.4-1.1,11.5,5.9,10.1,12.7
				c-21.1,82.6-72.4,233.6-163,249.4c-48.5,8.5-80-36-87.7-80.7c-14.2-81.7,15.4-190.8,53-261.8c16.8-31.9,52-86.7,91.6-93.6
				c5.1-0.9,9.2-0.3,14.5,0.1C7792.3,2666.2,7793.8,2705.4,7791.3,2736.1z M7747.5,2771.3c1.2-8.1,11.9-67.8-3.5-65.2
				c-35.7,6.2-71,166.3-74.6,198.5C7710.3,2897.5,7740.5,2806.8,7747.5,2771.3z"/>
			<path class="st0" d="M7983.1,2915.7c-15,50-61.2,139.6-117.3,149.4c-21.7,3.8-37.1-1.4-48.8-23.1c-49.7-88.7,0.6-373.7,54.8-395
				c2.3-1.7,6.2-2.4,8.7-2.8c28.1-4.9,51.5,16,43.3,29.3c-33.6,33.5-99,322.5-32.8,309.6c30.6-5.3,65.7-75.9,79.2-119.1
				c-17.3-61.4-6.5-240.9,54.8-251.6c5.1-0.9,9.2-0.3,16.2,2.4c62.1,16.8-17.1,188.5-32.8,234.6c0.4,24.9,3.6,58.6,15.3,80.2
				c0.9,5.1,1.1,6.4-0.2,6.6C8009.5,2938.8,7991.5,2926.1,7983.1,2915.7z"/>
			<path class="st0" d="M8254.7,2655.3c-4.5,57.3-41.7,183.5-110.6,195.6c-5.1,0.9-7.7,1.3-13,0.9c-1,39.6,10.7,69.2,39.1,73.4
				c5.3,0.4,10.4-0.5,14.3-1.2c51.1-8.9,90.6-106.6,104.3-156.3c2.5-8.3,5.7-12.8,9.5-13.5c6.4-1.1,11.5,5.9,10.1,12.7
				c-21.1,82.6-72.4,233.6-163,249.4c-48.5,8.5-80-36-87.7-80.7c-14.2-81.7,15.4-190.8,53-261.8c16.8-31.9,52-86.7,91.6-93.6
				c5.1-0.9,9.2-0.3,14.5,0.1C8255.7,2585.4,8257.3,2624.6,8254.7,2655.3z M8210.9,2690.5c1.2-8.1,11.9-67.8-3.5-65.2
				c-35.7,6.2-71,166.3-74.6,198.5C8173.7,2816.7,8203.9,2725.9,8210.9,2690.5z"/>
			<path class="st0" d="M8266.2,2788.8c10.9-133.5,79.8-462.5,153-541.1c9.5-13.5,25.4-20.2,39.5-22.7c31.9-5.6,61.5,13,51.7,69.9
				c-20.8,122-115.1,335.8-169.3,440c-11.3,86.2-11.6,152,17.4,160.1l1.7,2.3l10.2-1.8c46.1-14.6,92.6-125.3,103.8-166.8
				c1.2-8.1,5.7-12.8,10.8-13.7c5.1-0.9,10.3,6.1,9.9,11.4c-17.6,64.9-76.5,233-151.7,254
				C8275.1,2991.1,8258.2,2886.2,8266.2,2788.8z M8356.9,2645.3c32.1-72.7,61.6-144.9,85.5-218.8l0.6-4.1
				c10.6-29.5,19.8-60,27.9-89.1c11.4-40.1,11.5-54.6,9-54.2c-6.4,1.1-21.9,32.8-33.2,58.4
				C8407.1,2427.4,8378.1,2548.2,8356.9,2645.3z"/>
			<path class="st0" d="M8531.2,2950.4c-138.5,5.7-79.1-408.5,71.5-434.8c5.1-0.9,10.2-1.8,16.8-1.6c52.9,1.3,71.4,92.8,65.6,142.5
				c7.8,14.4,5.8,33.2,4.2,46.6c-2.6,22.8-8.1,51.4-18.2,76.8l3.8-0.7c25.5-4.5,38.2-44.8,46.4-66c2.3-9.6,5.8-19.4,8.3-27.8
				c2.5-8.3,5.9-11.5,9.7-12.2c6.4-1.1,11.5,5.9,11.2,11.2c-13.1,45.7-37.7,138.1-91.4,147.5c-14,2.4-25.6-3.4-36.1-18.7
				c2,11.5,9.1,22.1,16,31.4c4.7,4.4,3.7,5.9,0.7,11.7C8614.7,2901.6,8587.3,2940.6,8531.2,2950.4z M8530,2853.3
				c5.8,2.9,11.5,5.9,16.7,5c20.4-3.6,40.7-30.8,58.9-69.5c-10.1-43,3-111,37.1-134.1c1.4-6.8,2.4-16.2,3-20.3
				c-0.1-38.1-8.9-73.4-20.6-72.7c-1.3,0.2-4.1-0.6-5.3-0.4C8552.2,2573.1,8489.5,2824.8,8530,2853.3z"/>
			<path class="st0" d="M8821.6,2495.9c3.7,5.9-2.4,16.2-4.9,24.5c-8.5,26.5-17.7,79.4-28.5,145.7c14.7-59.1,62.4-200.3,133.9-212.8
				c28.1-4.9,46.8,19.5,57.1,55.8c29,113.3-36.9,361.6-130.1,377.9c-37,6.5-61.4-27.5-70.8-58.7c-1.4-15.5-4.5-33.4-4.2-54.5
				c-25.2,195.1-36.4,432.6-3.9,475.6l-3.8,0.7c-84.3,14.7-93.7-85-90.2-155.3c4.8-100.8,64.1-597.9,90.1-607.7
				c3.8-0.7,5.9-3.7,8.5-4.1C8789.9,2480.4,8813,2484.2,8821.6,2495.9z M8826.2,2809.5c57.5-10,147.3-309.8,87.2-299.4
				c-2.6,0.4-7.4,2.6-9.8,4.3c-49,28.3-117.6,223.1-105.8,268.4C8801.2,2794.1,8810.9,2812.2,8826.2,2809.5z"/>
			<path class="st0" d="M9204.6,2489.6c-4.5,57.3-41.7,183.5-110.6,195.6c-5.1,0.9-7.7,1.3-13,0.9c-1,39.6,10.7,69.2,39.1,73.4
				c5.3,0.4,10.4-0.5,14.3-1.2c51.1-8.9,90.6-106.6,104.3-156.3c2.5-8.3,5.7-12.8,9.5-13.5c6.4-1.1,11.5,5.9,10.1,12.7
				c-21.1,82.6-72.4,233.6-163,249.4c-48.5,8.5-80-36-87.7-80.7c-14.2-81.7,15.4-190.8,53-261.8c16.8-31.9,52-86.7,91.6-93.6
				c5.1-0.9,9.2-0.3,14.5,0.1C9205.6,2419.7,9207.1,2458.9,9204.6,2489.6z M9160.8,2524.9c1.2-8.1,11.9-67.8-3.5-65.2
				c-35.7,6.2-71,166.3-74.6,198.5C9123.6,2651.1,9153.8,2560.3,9160.8,2524.9z"/>
			<path class="st0" d="M9200.5,2737.7l0.2-6.6c2.8-82.1,65.1-207.4,81.5-302.3c-114.8,5.5-79.6-79.5-28.1-108.2
				c5.9-3.7,11-4.6,16.2-5.4c23-4,33.4,17.9,31.1,80.1c24.3-4.2,80.7-12.7,93.7,16.6c18,42.9-70.1,314.8,5,300.4
				c45.7-9.3,93.1-114.9,107.2-162.1c1.2-8.1,5.9-11.5,8.4-12c6.4-1.1,12.8,5.7,10.9,9.9c-16.6,63.4-78.9,241.4-155.6,254.7
				c-130.2,22.7-39.7-295.7-31.9-364.1c2.2-17.5-28.4-12.1-35-12.3c-2.6,22.8-8.2,43.5-13.3,66.8c-15.3,63.2-65.5,243-45.2,284.1
				c0.9,5.1,4.1,8.5,1.6,8.9c-3.8,0.7-5.1,0.9-10.7-0.8C9212.1,2781.7,9199.4,2761.5,9200.5,2737.7z"/>
		</g>
	</g>
</g>
<g id="Layer_2">
</g>
<g id="Layer_3">
</g>
</svg>
