<svg width="3028" height="1891" viewBox="0 0 3028 1891" fill="none" xmlns="http://www.w3.org/2000/svg">
<path fill-rule="evenodd" clip-rule="evenodd" d="M515.862 48.3838C566.554 81.6465 597.107 135.677 606.511 196.389L606.515 196.412C623.894 310.778 568.091 447.396 435.66 527.045C433.848 528.135 432.942 528.68 432.774 529.556C432.605 530.432 433.231 531.258 434.485 532.91C459.008 565.244 486.439 594.079 514.347 613.873C545.411 635.905 575.833 645.907 603.148 639.07C634.397 631.248 655.424 609.774 670.63 582.017C676.428 571.434 681.318 560.048 685.555 548.323C685.677 547.986 685.738 547.817 685.768 547.639C685.798 547.462 685.796 547.281 685.791 546.918C685.425 518.352 686.956 487.322 690.389 456.843C694.787 417.791 702.34 379.345 713.182 348C723.85 317.158 738.334 291.287 757.848 279.911L759.894 279.078L768.118 277.019C780.923 273.814 793.074 276.778 801.398 280.62C805.555 282.539 809.151 284.854 811.644 287.15C812.784 288.2 814.266 289.759 815.189 291.735C815.652 292.726 816.307 294.523 816.045 296.752C815.811 298.752 814.903 300.525 813.548 301.856C804.598 312.576 796.199 330.794 788.925 353.953C781.63 377.184 775.712 404.57 771.43 432.53C762.831 488.673 761.043 545.662 767.178 575.121C767.843 577.759 768.475 579.703 769.058 581.112C769.246 581.566 769.82 581.682 770.166 581.333C770.306 581.192 770.453 581.039 770.609 580.871C772.234 579.124 774.177 576.474 776.397 572.829C780.826 565.56 785.802 555.26 791.12 542.657C801.732 517.512 813.294 484.199 824.203 450.012C846.026 381.622 864.948 310.636 868.105 296.411C870.161 287.147 873.118 274.963 878.53 264.332C883.956 253.676 892.468 243.398 906.153 239.973C921.086 236.235 935.91 240.751 945.656 247.783C950.514 251.288 954.732 255.863 956.85 261.12C959.097 266.7 958.976 273.384 954.229 278.854L953.59 279.509C948.351 284.284 943.427 292.541 939.053 304.632C934.725 316.598 931.181 331.622 928.272 349.2C922.453 384.359 919.322 428.755 917.134 477.327C916.263 497.686 915.815 519.603 915.346 542.599L915.343 542.731C915.231 548.227 915.117 553.784 914.996 559.396C914.96 561.1 917.13 561.784 918.036 560.34C918.152 560.154 918.227 559.952 918.269 559.737C919.077 555.557 921.139 551.965 924.317 549.188C924.667 548.882 924.842 548.729 924.958 548.582C925.074 548.434 925.165 548.257 925.348 547.905C938.107 523.273 949.687 493.801 959.774 464.42C959.873 464.13 959.923 463.985 959.95 463.834C959.977 463.684 959.981 463.529 959.989 463.22C960.058 460.462 960.149 457.694 960.26 454.918C962.199 406.778 970.556 355.34 985.029 310.919C999.407 266.788 1020.23 228.315 1047.96 207.601L1048.44 207.269C1055.69 202.657 1064.41 199.112 1072.19 197.165C1089.46 192.842 1109.18 195.34 1125.04 208.037C1137.37 217.911 1146.66 233.367 1150.92 254.91C1151.44 257.503 1151.7 258.799 1152.55 259.242C1153.4 259.685 1154.64 259.135 1157.12 258.035C1160.53 256.518 1164.09 255.308 1167.67 254.413C1182.15 250.788 1197.28 253.874 1207.91 259.529C1213.21 262.343 1218.04 266.14 1221.03 270.775C1224.15 275.632 1225.55 282.161 1221.83 288.366L1221.05 289.445C1212.4 299.509 1204.81 318 1199.31 341.018C1193.87 363.744 1190.73 389.804 1190.31 414.044C1189.88 438.438 1192.22 460.27 1197.29 474.86C1199.84 482.203 1202.8 486.881 1205.68 489.351C1208.14 491.454 1210.68 492.161 1214.24 491.186C1222.55 488.863 1231.61 481.449 1240.89 469.304C1250.03 457.355 1258.62 441.822 1266.31 425.011C1273.93 408.358 1280.51 390.741 1285.77 374.624C1285.86 374.339 1285.9 374.196 1285.93 374.048C1285.95 373.899 1285.96 373.747 1285.96 373.444C1286.17 358.461 1286.73 343.253 1287.57 328.091C1291.09 264.492 1299.63 200.863 1308.64 156.41C1309.96 148.998 1313.18 143.344 1317.79 139.256C1322.29 135.276 1327.59 133.238 1332.36 132.045C1344.54 128.997 1358.39 130.119 1368.91 133.224C1374.14 134.77 1379.17 136.988 1382.89 139.947C1386.31 142.668 1390.67 147.858 1388.88 154.725C1385.42 170.42 1380.96 203.215 1377.02 241.085C1375.79 252.873 1375.18 258.767 1376.88 259.174C1378.59 259.581 1380.71 254.018 1384.96 242.89C1390.08 229.468 1395.65 215.717 1401.6 202.256C1413.05 176.34 1426.02 151.196 1440.02 131.485C1453.76 112.129 1469.55 96.4581 1487.14 92.0566C1503.62 87.9296 1518.79 92.1545 1529.32 98.3217C1534.56 101.395 1538.98 105.134 1541.96 108.967C1543.43 110.871 1544.76 113.062 1545.53 115.438C1546.29 117.756 1546.75 121.052 1545.23 124.36L1545.23 124.368C1545.17 124.481 1545.14 124.538 1545.11 124.608C1545.1 124.626 1545.09 124.656 1545.08 124.674C1545.05 124.746 1545.04 124.794 1545.01 124.89C1544.94 125.112 1544.87 125.363 1544.77 125.716L1544.74 125.801C1544.64 126.175 1544.51 126.63 1544.36 127.121C1543.86 128.765 1543.12 130.89 1541.9 133.233C1541.77 133.487 1541.7 133.614 1541.66 133.732C1541.61 133.85 1541.59 133.969 1541.53 134.206C1535.79 158.789 1526.52 224.053 1524.17 285.074C1522.98 316.253 1523.62 345.827 1527.3 368.08C1529.15 379.244 1531.69 388.068 1534.84 394.221C1538.01 400.413 1541.16 402.724 1543.75 403.343L1543.78 403.351L1546.27 403.903C1546.32 403.913 1546.36 403.927 1546.41 403.945C1546.66 404.044 1546.94 404.025 1547.17 403.892C1547.26 403.84 1547.36 403.781 1547.47 403.716C1548.66 403.034 1550.3 402.15 1552.72 401.476C1561.05 398.006 1569.83 389.892 1578.61 377.814C1587.43 365.699 1595.66 350.411 1603 334.069C1617.57 301.644 1628.22 266.047 1632.87 245.28C1633.82 235.542 1639.45 228.705 1645.78 227.121C1652.07 225.547 1657.52 228.232 1660.91 231.503C1664.2 234.674 1666.69 239.408 1666.69 244.418L1666.55 245.917C1654.71 306.827 1635.66 365.602 1613.24 411.029C1602.04 433.733 1589.88 453.332 1577.2 468.234C1564.62 483.011 1550.92 493.873 1536.47 497.858L1536.2 497.926C1521.65 501.392 1508.74 499.58 1497.74 493.04C1486.97 486.631 1478.78 476.137 1472.52 463.579C1460.06 438.611 1453.98 403.052 1451.3 365.981C1448.35 325.279 1449.42 281.479 1451.32 245.41C1451.8 236.456 1452.03 231.98 1450.38 231.613C1448.73 231.246 1447.06 235.383 1443.72 243.655C1430.94 275.309 1418.12 310.927 1407.49 347.014C1388.99 409.811 1377.47 472.922 1383.55 518.921C1383.99 521.9 1384.35 524.768 1384.33 527.315C1384.32 529.973 1383.89 532.978 1382.19 535.825C1380.48 538.671 1378.03 540.46 1375.69 541.728C1373.44 542.951 1370.72 543.989 1367.87 545.013L1367.12 545.241C1348.65 549.863 1333.47 548.19 1321.38 539.69C1309.66 531.451 1302.29 517.761 1296.96 501.633L1296.8 501.076C1294.58 492.211 1292.74 482.615 1291.24 472.439C1291.21 472.197 1290.87 472.155 1290.78 472.381C1290.53 472.991 1290.28 473.6 1290.02 474.208C1279.07 500.469 1266.15 525.733 1251.35 545.662C1236.67 565.425 1219.4 580.966 1199.47 585.956C1186.09 589.305 1174.04 587.399 1163.68 580.998C1153.58 574.755 1145.71 564.629 1139.54 552.562C1133.54 540.834 1128.85 526.696 1125.23 511.149C1123.76 504.817 1123.03 501.651 1121.52 501.579C1120.01 501.508 1118.98 504.567 1116.93 510.686C1112.35 524.369 1107.04 538.894 1100.99 552.826C1093.5 570.089 1084.7 586.832 1074.49 600.15C1064.37 613.356 1052.18 624.071 1037.64 627.709C1022.69 631.451 1009.43 628.026 998.56 619.018C988.06 610.314 980.187 596.756 974.38 580.661C972.419 575.226 970.663 569.414 969.108 563.279C967.903 558.525 967.301 556.148 965.93 555.99C964.559 555.832 963.442 557.992 961.207 562.311C948.417 587.028 933.306 611.754 915.389 638.873C915.077 639.345 914.921 639.581 914.837 639.845C914.753 640.109 914.744 640.391 914.725 640.953C912.374 712.786 908.043 785.047 893.809 842.309C879.477 899.965 854.246 945.759 807.36 957.495C797.447 959.976 786.633 961.385 776.107 959.709C750.445 956.182 732.154 939.69 723.629 917.511C715.195 895.567 716.328 868.297 728.258 842.068C737.137 817.845 753.318 790.563 772.697 761.99C789.929 736.584 809.978 709.749 830.171 682.72L833.015 678.913C834.08 677.487 835.145 676.061 836.21 674.634C836.537 674.196 836.701 673.977 836.799 673.725C836.897 673.473 836.926 673.202 836.982 672.659C838.456 658.466 839.68 644.337 840.857 630.739C842.715 609.286 844.458 589.153 846.891 572.178C847.716 561.212 847.577 549.831 847.427 538.035L847.425 537.856L847.424 537.778C847.415 537.044 846.366 536.904 846.162 537.608C842.341 550.81 838.076 564.334 833.374 577.545C824.627 602.122 814.246 625.971 802.204 644.729C790.353 663.188 775.933 678.234 758.526 682.591C745.794 685.778 734.332 684.672 724.441 679.057C714.751 673.556 707.519 664.263 701.978 652.873L701.944 652.801C700.754 650.291 699.634 647.559 698.584 644.625C696.962 640.095 696.151 637.83 694.819 637.762C693.487 637.695 692.468 639.83 690.43 644.1C670.574 685.7 642.077 721.65 600.224 732.126C553.169 743.904 507.55 723.513 467.603 688.842C430.022 656.225 396.312 610.051 369.267 562.361C368.44 560.903 368.027 560.174 367.331 559.923C366.634 559.672 365.839 559.974 364.249 560.578C359.808 562.265 355.486 563.69 351.204 565.102L351.195 565.105C350.313 565.396 349.433 565.686 348.554 565.978C347.388 566.365 346.805 566.559 346.437 567.013C346.068 567.467 345.999 568.08 345.86 569.306C339.258 627.63 335.732 685.073 336.095 734.006C336.475 785.158 341.115 825.92 350.278 848.842C350.472 849.191 350.748 849.435 351.467 849.632C352.497 849.914 354.158 849.949 356.193 849.439C360.318 848.407 363.652 850.363 365.436 852.211C367.233 854.073 368.208 856.415 368.586 858.633C369.239 862.474 368.271 866.603 365.659 870.225C365.462 870.499 365.363 870.636 365.306 870.739C365.249 870.841 365.179 871.012 365.038 871.353C363.638 874.758 360.96 877.005 359.27 878.192C356.741 879.969 353.872 881.174 351.783 881.697L350.814 881.876C320.175 885.558 296.152 878.207 278.476 861.467C261.107 845.018 250.845 820.416 245.437 791.44C235.333 737.296 241.574 664.421 254.685 589.733C255.093 587.406 255.298 586.242 254.671 585.522C254.045 584.803 252.837 584.846 250.422 584.932C247.902 585.022 245.464 585.021 243.119 584.91C236.156 584.582 229.503 583.274 223.798 580.104C211.735 573.401 207.163 560.483 207.672 542.927C207.69 542.281 207.7 541.958 207.815 541.648C207.931 541.338 208.14 541.081 208.559 540.567L212.812 535.352C213.229 534.842 213.437 534.587 213.71 534.413C213.983 534.24 214.302 534.16 214.941 534L216.002 533.735C218.875 533.015 222.028 532.601 224.45 532.307C224.92 532.25 225.352 532.198 225.756 532.15C226.476 532.065 227.107 531.99 227.708 531.911C228.154 531.853 228.51 531.801 228.792 531.755C228.931 531.732 229.037 531.712 229.114 531.697L229.154 531.689L229.182 531.683C229.212 531.677 229.223 531.674 229.218 531.675L230.915 531.443C241.076 531.173 250.824 528.764 261.525 526.085L263.802 525.515C264.971 525.223 265.555 525.077 265.951 524.669C266.348 524.262 266.478 523.672 266.74 522.492C293.407 402.13 330.651 289.992 342.832 254.855C351.543 226.343 370.651 204.154 393.018 198.556C405.315 195.478 418.373 197.743 430.555 203.605C431.385 204.005 431.801 204.204 432.089 204.575C432.377 204.945 432.472 205.413 432.662 206.348L434.335 214.591C434.521 215.506 434.614 215.964 434.512 216.392C434.411 216.82 434.11 217.204 433.508 217.971C426.745 226.584 419.697 239.975 412.61 257.61C405.154 276.165 397.863 298.882 390.888 324.572C378.701 369.454 367.575 423.045 358.231 478.648C357.625 482.258 357.322 484.063 358.378 484.784C359.435 485.506 360.997 484.571 364.123 482.702C404.242 458.708 442.562 428.328 473.721 394.468C509.646 353.189 539.078 292.548 543.886 236.475C546.283 208.514 542.528 182.116 530.869 159.835C519.279 137.686 499.579 119.015 468.943 106.813L468.926 106.806C430.546 91.4105 383.237 89.8424 333.941 102.181C205.099 134.43 75.0292 249.647 91.196 405.806C91.3105 406.911 91.3677 407.464 91.1668 407.938C90.9659 408.412 90.539 408.748 89.6853 409.419L82.7005 414.908C81.8389 415.585 81.4081 415.923 80.8839 416.002C80.3598 416.08 79.8596 415.886 78.8592 415.498C46.5756 402.975 26.1452 377.93 18.0255 346.313C9.80096 314.287 14.2548 275.912 30.6926 236.922C63.61 158.843 145.181 76.6269 276.09 33.0986L276.66 32.9326L308.379 24.9934C395.196 3.26331 465.109 15.0803 515.862 48.3838ZM802.973 290.284C803.037 290.23 803.083 290.289 803.02 290.344L802.993 290.367C802.98 290.379 802.961 290.38 802.947 290.371C802.925 290.357 802.923 290.326 802.943 290.31C802.953 290.301 802.963 290.293 802.973 290.284ZM1547.65 404.439L1547.69 404.45C1547.72 404.456 1547.74 404.462 1547.76 404.469C1547.86 404.495 1547.85 404.518 1547.75 404.482L1547.65 404.439ZM1544.83 125.128L1545.07 124.671C1545.02 124.777 1544.94 124.939 1544.83 125.128ZM1098.97 250.421C1098.9 250.387 1098.83 250.381 1098.76 250.405C1096.88 251.068 1093.77 253.236 1089.7 258.39C1085.48 263.733 1080.99 271.312 1076.45 280.826C1067.39 299.813 1058.62 325.503 1051.61 353.855C1037.5 410.896 1031.02 476.574 1042.12 518.524L1042.14 518.625C1042.44 519.809 1042.73 520.84 1043.02 521.735C1043.57 523.467 1043.84 524.332 1044.97 524.579C1046.1 524.825 1046.7 524.164 1047.91 522.841C1047.95 522.788 1048 522.733 1048.05 522.679C1050.56 519.884 1053.41 515.812 1056.53 510.477C1062.77 499.831 1069.55 485.119 1076.48 467.973C1090.33 433.744 1104.41 390.825 1115.68 353.743L1115.84 353.284L1115.84 353.282L1115.84 353.28L1115.86 353.231L1115.86 353.225C1115.88 353.179 1115.9 353.107 1115.94 353.01L1115.97 352.923L1116 352.842C1116.03 352.755 1116.07 352.657 1116.1 352.546C1116.15 352.41 1116.21 352.256 1116.27 352.085C1116.55 351.262 1116.96 350.042 1117.45 348.501C1118.43 345.413 1119.69 341.068 1120.85 336.065C1123.19 325.946 1124.87 314.022 1123.41 304.429C1122.05 299.089 1117.61 283.897 1111.75 270.502C1108.74 263.594 1105.56 257.677 1102.51 253.838C1100.99 251.914 1099.81 250.913 1099.07 250.478C1099.03 250.457 1099 250.438 1098.97 250.421ZM768.385 882.779C768.415 882.87 768.498 882.933 768.594 882.938C768.649 882.94 768.705 882.943 768.763 882.945C770.128 882.99 771.817 882.805 773.575 882.365C777.916 881.279 782.919 877.526 788.323 869.615C793.648 861.821 798.71 850.938 803.503 837.445C808.108 824.479 812.344 809.459 816.299 793.068C818.168 785.324 819.102 781.451 817.561 780.781C816.02 780.112 813.822 783.442 809.427 790.102C798.829 806.164 789.628 821.025 782.532 834.335C775.648 847.248 770.979 858.275 768.85 867.231C767.153 874.373 767.266 879.354 768.385 882.779Z" fill="url(#paint0_linear_339_30)"/>
<path fill-rule="evenodd" clip-rule="evenodd" d="M1514.91 614.458C1520.16 618.863 1523.74 624.917 1524.23 632.615C1524.28 633.432 1524.31 633.841 1524.14 634.265C1523.97 634.688 1523.64 634.989 1522.97 635.59L1516.97 641.026C1516.33 641.612 1516 641.904 1515.61 642.037C1515.21 642.17 1514.77 642.132 1513.89 642.054C1488.97 639.86 1455.96 643.973 1417.99 653.25C1413.23 654.414 1408.4 655.658 1403.53 656.977C1403 657.119 1403.05 657.908 1403.59 657.997C1411.34 659.289 1419.53 662.335 1425.47 668.205L1425.71 668.456C1427.94 670.864 1429.89 674.175 1429.66 678.283C1429.44 682.178 1427.34 684.953 1425.88 686.534C1424.59 687.937 1422.99 689.252 1421.86 690.182C1421.72 690.293 1421.6 690.399 1421.47 690.499C1420.12 691.621 1419.22 692.408 1418.57 693.158L1418.26 693.507C1408.48 703.567 1399.08 722.996 1390.52 749.117C1382.07 774.908 1374.78 806.076 1368.66 838.526C1363.6 865.315 1359.35 892.852 1355.89 918.77C1355.01 925.391 1354.57 928.702 1355.09 929.366C1355.63 930.059 1356.54 930.313 1357.36 930.005C1358.15 929.71 1359.52 926.623 1362.24 920.448C1369.9 903.104 1378.68 886.176 1388.31 872.83C1397.73 859.793 1408.98 848.737 1422.03 845.55C1433.88 842.654 1444.53 845.821 1451.94 850.428C1455.64 852.723 1458.77 855.514 1460.97 858.416C1462.07 859.862 1463.08 861.51 1463.75 863.297C1464.34 864.867 1464.88 867.091 1464.47 869.561C1464.47 869.572 1464.47 869.545 1464.47 869.57C1464.4 869.904 1464.2 870.309 1463.97 870.557C1463.95 870.576 1463.94 870.585 1463.92 870.605L1459.55 875.047C1459.27 875.332 1459.52 875.751 1459.88 875.581C1459.95 875.55 1460.01 875.519 1460.08 875.487C1460.46 875.296 1460.76 875.1 1460.98 874.941C1461.45 874.598 1461.77 874.274 1461.93 874.087C1462.25 873.725 1462.34 873.509 1462.28 873.624C1462.18 873.828 1461.88 874.525 1461.58 875.83L1461.54 875.997C1457.7 891.278 1451.05 935.578 1449.25 977.113C1448.35 997.881 1448.69 1017.47 1451.05 1032.17C1452.23 1039.55 1453.86 1045.22 1455.79 1049.08C1457.14 1051.77 1458.36 1053.04 1459.24 1053.64C1459.28 1053.67 1459.33 1053.68 1459.38 1053.68L1461.21 1053.67C1461.25 1053.67 1461.26 1053.62 1461.21 1053.61C1461.12 1053.6 1461.07 1053.6 1461.11 1053.6C1461.16 1053.6 1461.32 1053.6 1461.63 1053.55C1462.13 1053.47 1462.71 1053.35 1463.48 1053.17C1463.65 1053.13 1463.73 1053.11 1463.82 1053.07C1463.92 1053.04 1463.99 1053.01 1464.13 1052.95C1468.69 1050.86 1473.97 1046.01 1479.59 1038.32C1485.39 1030.38 1490.93 1020.25 1495.92 1009.35C1496.85 1007.3 1497.77 1005.24 1498.66 1003.16C1498.82 1002.79 1498.9 1002.6 1498.94 1002.4C1498.98 1002.21 1498.98 1002 1498.98 1001.59C1498.96 957.809 1510.9 910.04 1526.3 875.559C1530.99 865.016 1538.43 850.44 1547.97 837.617C1557.31 825.071 1569.68 812.797 1584.6 809.151C1588.28 808.254 1591.62 808.318 1594.19 808.368C1594.66 808.377 1595.1 808.386 1595.52 808.388L1595.96 808.403C1603.42 808.861 1609.7 811.108 1614.76 814.944C1619.78 818.745 1623.14 823.752 1625.38 829.028C1629.74 839.303 1630.25 851.597 1630.1 861.32C1629.9 880.149 1625.17 910.011 1615.03 936.649C1609.95 950 1603.38 962.895 1595.06 973.258C1586.75 983.621 1576.32 991.883 1563.53 995.009L1563.47 995.022L1562.89 995.164C1562.4 995.284 1562.07 995.752 1562.13 996.254C1563.14 1004.17 1565.09 1010.59 1567.82 1015.29C1571.17 1021.08 1575.55 1024.12 1581.34 1024.68C1583.48 1024.65 1585.64 1024.15 1587.96 1023.58C1593.63 1022.2 1599.48 1018.15 1605.34 1011.4C1611.16 1004.69 1616.51 995.864 1621.26 985.985C1630.76 966.226 1637.32 943.412 1640.45 928.124L1640.48 927.952C1641.18 924.909 1642.16 921.944 1643.66 919.466C1645.18 916.969 1647.69 914.246 1651.6 913.291C1656.95 911.983 1661.64 914.315 1664.44 917.465C1667.19 920.565 1668.69 924.96 1668.05 929.49L1667.99 929.818C1663.11 956.189 1654.15 993.957 1639.21 1027.02C1624.5 1059.58 1602.84 1090.12 1571.2 1097.85C1553.34 1102.22 1537.92 1096.34 1526.42 1085.77C1519.44 1079.36 1513.85 1071.22 1509.74 1062.42C1509.35 1061.6 1508.17 1061.57 1507.77 1062.39C1500.2 1077.59 1491.94 1090.81 1483.25 1100.91C1474.66 1110.89 1465.07 1118.53 1454.69 1121.33L1454.43 1121.4C1444.06 1123.81 1434.69 1122.53 1426.66 1117.78C1418.84 1113.16 1413.06 1105.68 1408.74 1097.03C1400.18 1079.88 1396.2 1055.74 1394.55 1030.98C1393.29 1011.95 1393.37 991.941 1394.08 973.415C1394.42 964.356 1394.59 959.826 1392.92 959.489C1391.26 959.152 1389.67 963.351 1386.49 971.749C1366.02 1025.87 1350.81 1087.53 1349.95 1136.51C1349.94 1136.65 1349.94 1136.72 1349.94 1136.78C1349.95 1136.84 1349.96 1136.93 1349.98 1137.12C1350.51 1141.91 1347.85 1145.6 1345.23 1147.72C1342.49 1149.94 1338.98 1151.27 1335.69 1152.07C1328.21 1153.9 1318.62 1153.6 1309.86 1148.17C1300.98 1142.67 1294.15 1132.64 1290.86 1117.32L1290.82 1117.09C1287.45 1098.82 1286.82 1062.43 1288.66 1018.57C1290.51 974.418 1294.9 921.914 1301.88 870.979C1308.85 820.109 1318.43 770.494 1330.75 732.268C1336.9 713.182 1343.84 696.58 1351.68 684.003C1351.96 683.561 1352.24 683.122 1352.52 682.687C1356.4 676.643 1358.35 673.621 1357.46 672.5C1356.57 671.379 1353.35 672.526 1346.91 674.821C1331.84 680.188 1316.57 686.094 1301.25 692.457C1300.44 692.796 1300.03 692.965 1299.73 693.278C1299.44 693.592 1299.3 694.006 1299.01 694.836C1261.52 804.195 1234.19 939.08 1239.67 1054.3L1239.68 1054.44C1240.09 1067.8 1241.56 1088.82 1245.37 1108.94C1247.27 1119 1249.72 1128.65 1252.83 1136.95C1255.97 1145.33 1259.59 1151.78 1263.55 1155.9L1263.88 1156.27C1265.23 1157.86 1267.57 1161.64 1265.64 1166.16C1263.96 1170.1 1260.3 1171.32 1258.77 1171.7C1257.17 1172.09 1255.79 1172.09 1254.78 1172.01C1254.41 1171.98 1254.23 1171.97 1254.1 1171.97C1253.96 1171.98 1253.81 1172.01 1253.51 1172.06C1236.22 1175.3 1221.71 1172.78 1209.87 1165.69C1197.83 1158.47 1189.38 1147.03 1183.42 1134.27C1171.6 1108.95 1168.48 1076.13 1167.62 1052.11L1167.62 1052.05C1164.56 945.098 1195.44 830.995 1232.34 730.705C1233.84 726.636 1234.59 724.601 1233.56 723.695C1232.53 722.79 1230.62 723.783 1226.79 725.769C1181.05 749.489 1139.26 775.879 1107.8 801.374C1084.62 820.807 1068.48 841.449 1061.09 859.684C1053.73 877.86 1055.47 892.106 1065.08 901.749L1065.8 902.575C1068.4 906.04 1070.32 910.638 1069.08 915.508C1067.75 920.687 1063.56 923.521 1059.58 924.494C1053.53 925.972 1047.31 924.126 1042.3 919.138C1024.89 902.95 1014.13 886.035 1009.19 868.774C1004.24 851.434 1005.32 834.289 1010.71 818.001C1021.4 785.752 1049 756.773 1080.74 734.2L1080.86 734.117C1140.37 693.428 1204.65 662.719 1267.35 641.195C1268.2 640.901 1268.63 640.754 1268.94 640.459C1269.26 640.164 1269.44 639.732 1269.79 638.869C1270.65 636.794 1271.34 635.368 1272.19 633.627L1272.19 633.619C1272.9 632.152 1273.72 630.461 1274.84 627.971C1279.37 616.494 1287.09 610.906 1295.76 608.787C1301.67 607.345 1307.5 607.897 1312.29 609.637C1316.62 611.208 1321.29 614.228 1323.55 618.952C1323.6 619.053 1323.62 619.104 1323.65 619.181C1323.72 619.355 1323.77 619.592 1323.78 619.777C1323.79 619.86 1323.78 619.933 1323.78 620.08C1323.76 620.906 1323.75 621.32 1323.84 621.63C1324.08 622.41 1324.77 622.967 1325.58 623.038C1325.9 623.066 1326.31 622.97 1327.11 622.778C1369.97 612.572 1411.67 604.114 1457.21 602.763L1457.24 602.762C1466.72 602.519 1482.4 602.398 1495.89 605.673C1502.63 607.31 1509.55 609.957 1514.91 614.458ZM1586.42 861.201C1586.55 860.949 1586.22 861.58 1586.35 861.419C1587.3 860.269 1589.52 860.806 1589.84 862.263C1589.89 862.467 1589.88 861.843 1589.88 862.092C1589.96 870.059 1589.17 878.673 1588.8 882.721C1588.75 883.288 1588.71 883.766 1588.68 884.139C1587.3 894.73 1583 913.958 1576.07 931.164C1572.58 939.812 1568.57 947.606 1564.16 953.469C1563.86 953.868 1563.24 953.612 1563.31 953.117C1565.15 939.642 1568.21 921.546 1572.3 904.089C1575.59 890.046 1579.46 876.808 1583.72 866.895C1584.63 864.789 1585.53 862.889 1586.42 861.201Z" fill="url(#paint1_linear_339_30)"/>
<path fill-rule="evenodd" clip-rule="evenodd" d="M2023.5 799.194C2036.4 810.925 2042.7 830.971 2040.43 859.131C2035.8 917.675 2015.86 998.89 1992.04 1077.79C1968.47 1155.85 1940.93 1232.23 1920.07 1283.23C1919.94 1283.55 1919.88 1283.71 1919.84 1283.89C1919.8 1284.06 1919.8 1284.23 1919.78 1284.59C1918.26 1324.17 1918.83 1358.34 1922.97 1383.17C1925.08 1395.84 1928.04 1405.5 1931.73 1412.09C1935.16 1418.22 1938.79 1420.97 1942.43 1421.86C1942.82 1421.95 1943.01 1422 1943.14 1422.05C1943.26 1422.1 1943.4 1422.18 1943.66 1422.33L1943.72 1422.36C1944.43 1422.76 1944.78 1422.95 1945.17 1423C1945.56 1423.05 1945.95 1422.95 1946.73 1422.74L1949.95 1421.87C1950.1 1421.83 1950.17 1421.81 1950.25 1421.78C1950.32 1421.76 1950.39 1421.73 1950.52 1421.67C1958.67 1417.98 1967.3 1409.62 1975.91 1397.3C1984.65 1384.79 1992.77 1369.07 1999.94 1352.42C2007.69 1334.41 2014.18 1315.61 2019.04 1299.12C2019.12 1298.87 2019.15 1298.75 2019.17 1298.61C2019.19 1298.48 2019.2 1298.35 2019.2 1298.08C2019.34 1291.99 2019.61 1285.86 2019.99 1279.71C2023.19 1228.89 2034.84 1176.14 2054.65 1133.51C2074.34 1091.14 2102.87 1057.21 2140.69 1047.04L2140.84 1047C2145.49 1045.75 2150.8 1044.32 2157.74 1043.87C2187.62 1041.92 2208.33 1066.33 2220.83 1093.2C2233.02 1119.39 2239.2 1151.33 2239.18 1175.52C2239.18 1176.06 2239.18 1176.33 2239.24 1176.58C2239.31 1176.82 2239.44 1177.07 2239.72 1177.57C2247.8 1192.3 2247.28 1210.66 2246.95 1222.01L2246.95 1222.05C2246.65 1234.88 2245.56 1249.75 2243.2 1264.97C2242.38 1270.25 2241.98 1272.89 2243.61 1273.41C2245.24 1273.93 2246.36 1271.68 2248.6 1267.17C2249.21 1265.96 2249.8 1264.69 2250.39 1263.38C2254.41 1254.31 2257.28 1244.37 2259.73 1235.52C2259.78 1235.31 2259.81 1235.21 2259.83 1235.1C2259.85 1234.99 2259.85 1234.88 2259.86 1234.66C2262.49 1182.33 2265.67 1133.25 2269.36 1094.61C2271.6 1071.09 2274.05 1051.27 2276.7 1036.88C2278.02 1029.71 2279.44 1023.64 2281 1019.04C2281.77 1016.76 2282.67 1014.57 2283.74 1012.72C2284.7 1011.09 2286.4 1008.62 2289.26 1007.24L2290.64 1006.72L2290.65 1006.72C2290.7 1006.71 2290.93 1006.64 2291.96 1005.81C2292.02 1005.77 2292.09 1005.71 2292.18 1005.64C2292.33 1005.51 2292.52 1005.36 2292.73 1005.19C2292.96 1005 2293.21 1004.8 2293.48 1004.6C2293.67 1004.46 2293.86 1004.31 2294.06 1004.18C2294.97 1003.54 2296.37 1002.67 2298.2 1002.18C2306.32 999.998 2316.35 999.439 2325.65 1000.79C2334.73 1002.12 2344.61 1005.49 2350.9 1012.57L2351.31 1013.07C2355.6 1018.79 2354.41 1025.96 2353.5 1030.06C2353.01 1032.31 2352.35 1034.61 2351.77 1036.6L2351.67 1036.94C2351.04 1039.14 2350.52 1040.96 2350.19 1042.6L2350.16 1042.76C2349.31 1046.5 2348.5 1050.82 2347.72 1055.66C2346.97 1060.27 2346.6 1062.58 2346.75 1063.04C2347.2 1064.4 2348.87 1064.87 2349.96 1063.94C2350.32 1063.62 2351.22 1061.41 2353.01 1056.98C2361.86 1035.07 2372.66 1014.02 2385.66 997.194C2398.62 980.418 2414.25 967.214 2432.92 962.196C2448.69 957.955 2462.64 962.503 2473.97 972.51C2484.98 982.227 2493.57 997.067 2500.1 1014.12L2500.17 1014.31C2519.11 1067.78 2517.84 1154.35 2501.47 1229.93C2493.25 1267.86 2481.11 1303.62 2465.37 1331.54C2449.78 1359.21 2429.86 1380.56 2405.47 1387.11C2385.57 1392.46 2368.18 1386.31 2354.64 1375.31C2348.5 1370.32 2343.08 1364.3 2338.44 1357.8C2334.73 1352.59 2332.88 1349.99 2331.49 1350.42C2330.11 1350.86 2330.07 1353.94 2330 1360.12C2329.21 1428.11 2330.69 1496.94 2334.78 1556.32C2337.64 1597.72 2341.75 1634.35 2347.21 1662.83C2349.94 1677.08 2352.98 1689.12 2356.29 1698.62C2359.17 1706.87 2362.09 1712.7 2364.85 1716.41C2365.56 1717.36 2365.91 1717.84 2366 1718.3C2366.08 1718.77 2365.93 1719.28 2365.63 1720.29L2363.13 1728.84C2362.82 1729.89 2362.66 1730.41 2362.29 1730.78C2361.91 1731.14 2361.38 1731.29 2360.33 1731.57L2358.99 1731.93C2338.12 1737.54 2320.46 1735.71 2305.88 1727.87C2291.48 1720.12 2281.05 1707.02 2273.46 1691.83C2258.41 1661.66 2253.42 1620.84 2252.1 1587.75C2250.45 1549.07 2251.72 1448.51 2255.37 1342.23C2255.53 1337.65 2255.6 1335.35 2254.42 1334.79C2253.24 1334.22 2251.43 1335.79 2247.8 1338.93C2240.86 1344.94 2232.96 1349.48 2223.92 1351.91C2222.97 1352.16 2222.02 1352.39 2221.08 1352.57C2217.78 1353.22 2216.13 1353.54 2215.72 1353.92C2215.41 1354.2 2215.48 1354.11 2215.29 1354.48C2215.03 1354.97 2215.19 1357.34 2215.5 1362.07C2215.64 1364.31 2215.12 1366.25 2214.68 1367.6C2214.33 1368.7 2213.83 1369.94 2213.39 1371.03L2213.38 1371.04L2213.38 1371.05C2213.3 1371.25 2213.22 1371.44 2213.15 1371.62L2213.04 1371.88C2193.44 1416.26 2169.92 1457.97 2114.73 1472.82L2113.72 1473.02C2095.51 1475.42 2079.66 1470.55 2066.58 1460.12C2053.7 1449.87 2043.84 1434.53 2036.54 1416.38C2034.75 1411.91 2033.1 1407.24 2031.58 1402.39C2029.99 1397.26 2029.19 1394.69 2027.77 1394.64C2026.35 1394.59 2025.38 1397.07 2023.45 1402.03C2023.4 1402.15 2023.36 1402.27 2023.31 1402.39C2013.16 1428.36 2001.08 1453.5 1987.03 1473.92C1973.07 1494.21 1956.6 1510.66 1937.36 1517.96L1936.47 1518.24C1918.63 1522.67 1902.99 1519.09 1890.01 1509.41C1877.37 1499.97 1867.73 1485.12 1860.43 1467.69C1859.14 1464.61 1857.92 1461.42 1856.75 1458.14C1855.09 1453.47 1854.26 1451.13 1852.89 1451.1C1851.51 1451.07 1850.58 1453.35 1848.72 1457.91C1847.97 1459.77 1847.2 1461.62 1846.41 1463.47C1825.55 1512.63 1794.76 1557.6 1749.47 1569.77C1724.3 1576.54 1702.3 1568.79 1685.5 1554.05C1668.91 1539.49 1657.22 1518.09 1651.41 1496.47C1630.67 1419.34 1649.67 1313.45 1679.08 1243.28C1685.69 1227.45 1696.22 1205.62 1709.86 1186.38C1723.3 1167.43 1740.75 1149.56 1761.63 1143.95C1766.56 1142.62 1770.99 1142.6 1774.87 1142.58C1775.61 1142.58 1776.32 1142.58 1777.02 1142.56L1777.46 1142.57C1787.99 1142.97 1796.72 1145.92 1803.74 1150.99C1810.71 1156.02 1815.53 1162.81 1818.86 1170.18C1825.4 1184.64 1826.61 1202.35 1826.72 1216.87C1827.05 1244.66 1821.07 1289.14 1806.94 1329C1799.87 1348.96 1790.63 1368.12 1778.85 1383.51C1767.07 1398.91 1752.39 1410.98 1734.4 1415.82L1734.35 1415.83C1733.67 1416.01 1733.03 1416.19 1732.41 1416.35C1730.67 1416.8 1729.8 1417.03 1729.38 1417.67C1728.96 1418.3 1729.08 1419.14 1729.31 1420.83C1731.1 1433.6 1734.45 1444.14 1739.21 1451.92C1745.03 1461.45 1752.83 1466.71 1763.09 1467.41C1766.88 1467.3 1770.58 1466.34 1774.07 1465.4C1783.6 1462.84 1792.88 1455.91 1801.71 1445.24C1810.5 1434.62 1818.39 1420.86 1825.26 1405.69C1830.9 1393.24 1835.76 1380.04 1839.83 1367.19C1839.94 1366.84 1839.99 1366.67 1840.02 1366.48C1840.04 1366.3 1840.03 1366.12 1840 1365.74C1839.46 1356.71 1839.16 1347.63 1839.08 1338.63C1838.56 1275.51 1847.48 1165.76 1864.2 1061.91C1872.57 1009.96 1882.91 959.291 1895.07 916.544C1907.07 874.361 1921.1 838.92 1937.32 817.785C1946.5 802.244 1962.81 793.903 1976.62 790.19C1992.91 785.809 2010.54 787.407 2023.5 799.194ZM2437.28 1030.93C2436.69 1030.63 2435.72 1030.36 2433.82 1030.87C2433.83 1030.87 2433.75 1030.89 2433.58 1030.95C2433.41 1031.02 2433.19 1031.11 2432.92 1031.22C2432.79 1031.28 2432.65 1031.35 2432.51 1031.42C2432.4 1031.47 2432.29 1031.52 2432.19 1031.57C2431.85 1031.74 2431.49 1031.93 2431.12 1032.14C2429.72 1032.92 2428.68 1033.65 2428.27 1034.01L2427.58 1034.56C2423.31 1037.57 2418.47 1042.91 2413.31 1050.66C2408.2 1058.32 2403.05 1067.9 2398.01 1078.89C2387.93 1100.87 2378.53 1127.97 2370.89 1155.56C2363.26 1183.13 2357.44 1210.96 2354.46 1234.32C2352.96 1246 2352.19 1256.45 2352.22 1265.11C2352.26 1273.86 2353.12 1280.19 2354.49 1284.07C2356.23 1288.46 2359.33 1293.9 2363.18 1297.67C2367.02 1301.44 2370.43 1302.54 2373.71 1301.66C2377.55 1300.63 2382.86 1296.53 2389.13 1287.73C2395.19 1279.22 2401.31 1267.5 2407.2 1253.47C2418.96 1225.45 2429.34 1189.29 2436.42 1153.88C2443.52 1118.38 2447.17 1084.25 2445.79 1060.19C2445.09 1047.99 2443.14 1039.41 2440.45 1034.55C2439.17 1032.23 2438.02 1031.29 2437.28 1030.93ZM2167.63 1103.27L2167.63 1103.26C2167.64 1103.26 2167.63 1103.27 2167.63 1103.27ZM2166.41 1103.55C2167.23 1103.55 2167.64 1103.55 2168 1103.7C2168.05 1103.72 2168.12 1103.75 2168.17 1103.78C2168.51 1103.96 2168.69 1104.16 2169.03 1104.57C2169.16 1104.71 2169.29 1104.88 2169.44 1105.06C2171.33 1107.47 2173.51 1111.58 2175.66 1117.37C2179.84 1128.63 2183.28 1144.48 2184.91 1161.4C2184.92 1161.54 2184.93 1161.61 2184.93 1161.69C2184.93 1161.76 2184.93 1161.83 2184.92 1161.98C2184.86 1163.13 2184.81 1164.45 2184.76 1165.87L2184.75 1165.93C2184.65 1168.78 2184.52 1172.06 2184.29 1175.21C2184.24 1175.96 2184.21 1176.34 2184.06 1176.67C2183.9 1177.01 2183.61 1177.29 2183.04 1177.84C2168.21 1192.16 2159.76 1214.87 2156.2 1237.85C2152.56 1261.35 2153.77 1286.73 2159.7 1307.07C2159.89 1307.73 2159.98 1308.06 2159.97 1308.38C2159.96 1308.71 2159.84 1309.02 2159.61 1309.64C2153.25 1326.45 2146.41 1340.6 2139.25 1351.15C2131.42 1362.69 2123.96 1368.81 2117.34 1370.59C2116.86 1370.72 2115.8 1370.8 2113.71 1370.26C2111.85 1369.79 2109.84 1369.02 2107.38 1368.05C2107.18 1367.96 2107.07 1367.92 2106.96 1367.86C2106.84 1367.79 2106.78 1367.74 2106.64 1367.64C2104.4 1365.95 2101.72 1362.09 2099.45 1354.68C2097.02 1346.76 2095.48 1336.17 2094.91 1323.54C2093.76 1298.34 2096.51 1266.33 2102.45 1234.33C2108.39 1202.32 2117.44 1170.77 2128.66 1146.38C2134.27 1134.18 2140.31 1124.04 2146.58 1116.57C2152.45 1109.57 2158.12 1105.39 2163.38 1103.63C2163.61 1103.55 2163.73 1103.51 2163.88 1103.49C2163.92 1103.48 2163.99 1103.47 2164.04 1103.46C2164.19 1103.45 2164.32 1103.46 2164.58 1103.47L2164.65 1103.48L2164.66 1103.48C2165.09 1103.5 2165.75 1103.54 2166.41 1103.55ZM1772.12 1201.99C1772.1 1201.91 1772.01 1201.88 1771.94 1201.93C1770.59 1202.93 1768.94 1204.57 1767.04 1207.18C1763.9 1211.52 1760.74 1217.64 1757.64 1225.32C1751.47 1240.65 1746.07 1260.89 1741.6 1282.15C1735.63 1310.55 1731.46 1340.06 1729.26 1360.86C1728.83 1364.91 1728.61 1366.93 1729.99 1367.5C1731.36 1368.08 1732.6 1366.57 1735.07 1363.56C1736.09 1362.32 1737.11 1360.99 1738.12 1359.58C1744.81 1350.25 1750.7 1338.07 1755.69 1324.81C1765.64 1298.38 1771.5 1269.01 1773.22 1252.8C1773.23 1252.53 1773.25 1252.22 1773.28 1251.87L1773.36 1250.65C1773.77 1244.61 1774.67 1231.41 1774.28 1219.24C1774.04 1212.06 1773.36 1206 1772.18 1202.17L1772.15 1202.07L1772.12 1201.99Z" fill="url(#paint2_linear_339_30)"/>
<path fill-rule="evenodd" clip-rule="evenodd" d="M2790.28 868.92C2790.47 871.11 2790.57 872.205 2791.31 872.74C2792.04 873.276 2793.11 873.031 2795.26 872.541C2805.57 870.186 2818.09 867.911 2830.3 867.465C2848.06 866.817 2869.17 869.916 2878.85 887.319L2878.92 887.459C2882.38 893.985 2883.68 903.888 2884.14 914.626C2884.63 925.775 2884.24 939.328 2883.43 954.154C2882.65 968.439 2881.47 984.11 2880.26 1000.2L2880.26 1000.24L2880.11 1002.12C2878.85 1018.92 2877.57 1036.16 2876.66 1052.92C2874.83 1086.69 2874.59 1117.68 2878.81 1138.84C2880.94 1149.53 2883.98 1156.46 2887.44 1160.13C2889.05 1161.84 2890.66 1162.77 2892.37 1163.19C2894.1 1163.62 2896.46 1163.66 2899.69 1162.74C2907.78 1160.3 2916.55 1153.13 2925.5 1141.56C2934.33 1130.15 2942.65 1115.36 2950.1 1099.27C2964.89 1067.32 2975.75 1031.37 2980.29 1009.34C2981.07 999.583 2986.58 992.649 2992.88 990.955C2998.84 989.353 3004.46 991.556 3008.05 994.429C3011.05 996.833 3015.34 1002.15 3013.6 1008.62C3008.42 1039.35 2995.03 1097.4 2974.08 1150.37C2963.56 1176.99 2951 1202.65 2936.41 1223C2921.94 1243.18 2904.74 1259.14 2884.61 1264.55C2868.22 1268.96 2853.91 1267.8 2841.92 1261.26C2830.09 1254.81 2821.59 1243.7 2815.48 1230.28C2803.38 1203.67 2799.47 1165.23 2799.29 1125.08C2799.11 1084.65 2802.75 1041.3 2806.49 1004.2C2807.6 993.16 2808.72 982.731 2809.75 973.112C2812.21 950.078 2814.18 931.683 2814.44 920.618L2814.44 920.52C2814.45 920.406 2814.45 920.302 2814.45 920.208C2814.45 920.13 2814.44 920.059 2814.44 919.994C2814.43 919.804 2814.41 919.665 2814.39 919.57C2814.37 919.486 2814.35 919.431 2814.34 919.401C2814.33 919.382 2814.33 919.369 2814.33 919.363L2814.32 919.36C2814.32 919.358 2814.32 919.357 2814.32 919.356C2814.3 919.336 2814.23 919.273 2814.08 919.181C2813.24 918.671 2811.29 918.119 2807.87 918.065C2804.65 918.015 2801.08 918.409 2797.71 918.898C2796.85 919.023 2796.21 919.741 2796.16 920.607C2795.37 934.682 2793.49 948.25 2791.58 962.055C2790.91 966.854 2790.24 971.682 2789.61 976.57L2789.59 976.722C2788.4 984.743 2786.82 994.662 2785.02 1005.93L2785.02 1005.94L2785.01 1006.03C2780.01 1037.37 2773.36 1079.1 2768.8 1119.37C2765.7 1146.74 2763.61 1173.15 2763.65 1194.88C2763.67 1205.74 2764.23 1215.26 2765.41 1223.05C2766.58 1230.79 2768.28 1236.18 2770.21 1239.46C2770.29 1239.6 2770.33 1239.67 2770.36 1239.73C2770.39 1239.79 2770.42 1239.85 2770.47 1239.97L2771.13 1241.5C2771.18 1241.62 2771.2 1241.67 2771.22 1241.73C2771.24 1241.78 2771.27 1241.87 2771.32 1242.04C2771.57 1242.88 2771.91 1243.52 2772.41 1244.5L2772.43 1244.53C2772.54 1244.74 2772.66 1244.98 2772.79 1245.23C2772.9 1245.45 2773.02 1245.68 2773.14 1245.93C2773.36 1246.37 2773.67 1247.01 2773.92 1247.72C2774.16 1248.38 2774.54 1249.61 2774.53 1251.13C2774.53 1252.85 2774.01 1255.01 2772.36 1256.86C2770.85 1258.55 2769.05 1259.25 2767.9 1259.56L2767.64 1259.63C2766.08 1260.05 2764.17 1260.57 2761.89 1260.67C2759.66 1260.77 2757.43 1260.47 2754.85 1259.96C2741.59 1259.04 2730.68 1253.38 2722.99 1244.48C2722.25 1243.62 2720.85 1243.77 2720.35 1244.78C2699.88 1286.32 2671.41 1321.88 2631.91 1332.5C2606.74 1339.27 2584.74 1331.51 2567.94 1316.77C2551.35 1302.22 2539.66 1280.81 2533.85 1259.2C2513.11 1182.07 2532.11 1076.17 2561.52 1006C2568.13 990.176 2578.66 968.345 2592.3 949.108C2605.74 930.153 2623.19 912.288 2644.07 906.675C2649 905.347 2653.43 905.325 2657.31 905.306H2657.32C2658.05 905.302 2658.76 905.299 2659.46 905.287L2659.9 905.291C2670.43 905.694 2679.16 908.641 2686.18 913.711C2693.15 918.747 2697.97 925.534 2701.3 932.9C2707.84 947.361 2709.05 965.071 2709.16 979.592C2709.49 1007.38 2703.51 1051.87 2689.38 1091.72C2682.31 1111.68 2673.07 1130.84 2661.29 1146.24C2649.51 1161.63 2634.83 1173.7 2616.84 1178.54L2616.79 1178.56C2616.11 1178.74 2615.47 1178.91 2614.85 1179.07C2613.11 1179.53 2612.24 1179.76 2611.82 1180.39C2611.4 1181.02 2611.52 1181.87 2611.75 1183.55C2613.54 1196.32 2616.89 1206.86 2621.65 1214.64C2627.47 1224.17 2635.27 1229.44 2645.53 1230.14C2649.32 1230.03 2653.02 1229.06 2656.51 1228.12C2666.04 1225.56 2675.32 1218.63 2684.15 1207.96C2692.94 1197.34 2700.83 1183.58 2707.7 1168.42C2709.34 1164.8 2710.91 1161.12 2712.42 1157.41C2712.51 1157.17 2712.56 1157.05 2712.59 1156.93C2712.62 1156.8 2712.64 1156.68 2712.67 1156.42C2716.46 1127.37 2723.67 1095.56 2731.29 1063.66C2732.66 1057.91 2734.05 1052.14 2735.44 1046.39L2735.47 1046.24L2735.51 1046.1L2735.51 1046.1C2745.21 1005.85 2754.84 965.874 2759.17 930.226C2759.43 928.008 2759.57 926.898 2758.92 926.216C2758.28 925.534 2757.14 925.607 2754.85 925.754C2734.83 927.037 2719.37 924.505 2708.07 918.685C2693.57 911.22 2686.76 898.768 2686.02 884.9C2685.31 871.533 2690.18 857.253 2697.82 844.597C2705.49 831.899 2716.34 820.136 2728.66 811.707C2735.03 806.971 2740.88 805.401 2745.56 804.143L2745.76 804.09C2752.3 802.33 2758.97 802.316 2765.17 805.256C2771.29 808.16 2775.87 813.432 2779.32 820.119C2784.9 830.921 2788.37 847.111 2790.28 868.92ZM2654.56 964.702C2654.54 964.632 2654.45 964.604 2654.39 964.647C2653.04 965.644 2651.38 967.288 2649.48 969.908C2646.34 974.24 2643.18 980.364 2640.08 988.044C2633.91 1003.37 2628.51 1023.61 2624.04 1044.87C2618.07 1073.28 2613.9 1102.79 2611.7 1123.59C2611.27 1127.63 2611.05 1129.65 2612.43 1130.23C2613.8 1130.8 2615.04 1129.3 2617.51 1126.28C2618.53 1125.04 2619.55 1123.71 2620.56 1122.3C2627.25 1112.97 2633.14 1100.79 2638.13 1087.53C2648.08 1061.1 2653.94 1031.73 2655.66 1015.52C2655.69 1014.97 2655.74 1014.25 2655.8 1013.37C2656.21 1007.33 2657.11 994.138 2656.72 981.966C2656.48 974.784 2655.8 968.719 2654.62 964.891C2654.6 964.826 2654.58 964.763 2654.56 964.702Z" fill="url(#paint3_linear_339_30)"/>
<path fill-rule="evenodd" clip-rule="evenodd" d="M984.296 1063.42C1045.05 1086.55 1102.05 1139.64 1130.77 1246.46C1150.25 1318.91 1150.05 1393.03 1144.3 1454.52C1144.13 1456.42 1144.04 1457.37 1144.56 1458.01C1145.08 1458.64 1146.05 1458.74 1147.98 1458.95C1154.06 1459.58 1160.69 1460.68 1166.97 1462.66C1177.89 1466.1 1189.51 1472.79 1193.93 1486.08L1194.07 1486.52L1195.22 1490.83C1195.27 1491.01 1195.3 1491.11 1195.31 1491.2C1195.33 1491.29 1195.34 1491.39 1195.35 1491.58L1195.51 1493.78C1195.52 1493.97 1195.53 1494.07 1195.53 1494.17C1195.53 1494.27 1195.51 1494.36 1195.49 1494.54C1194.93 1498.78 1193.5 1502.33 1191.2 1505.07C1188.82 1507.92 1185.95 1509.37 1183.48 1510.03C1176 1512.04 1168.34 1513.11 1161.23 1514.1L1161.23 1514.1L1161.01 1514.13C1153.67 1515.15 1146.91 1516.1 1140.44 1517.84L1135.85 1519.07C1134.69 1519.39 1134.11 1519.54 1133.72 1519.96C1133.33 1520.37 1133.21 1520.96 1132.96 1522.15C1114.82 1610.73 1082.04 1689.21 1039.52 1749.84C995.894 1812.06 941.648 1855.96 882.029 1871.99C858.778 1878.24 832.372 1879.47 809.62 1872.13C786.52 1864.68 767.223 1848.34 759.676 1820.27C750.487 1786.1 762.816 1751.2 776.647 1722.44C777.383 1720.91 777.752 1720.14 777.571 1719.43C777.39 1718.73 776.666 1718.21 775.218 1717.18C772.53 1715.25 769.809 1712.94 767.185 1710.09C761.126 1703.51 755.953 1694.49 752.524 1681.74C744.841 1653.17 744.256 1609.17 748.04 1559.22C751.844 1508.98 760.15 1451.79 770.797 1396.29C781.444 1340.8 794.463 1286.84 807.739 1243.07C814.375 1221.19 821.104 1201.75 827.669 1185.9C834.096 1170.38 840.589 1157.74 846.987 1149.64C851.608 1142.81 853.918 1139.39 853.439 1138.36C853.288 1138.04 853.127 1137.84 852.843 1137.62C851.944 1136.93 848.433 1138.32 841.411 1141.1C792.881 1160.31 743.708 1194.88 702.494 1237.24C653.183 1287.92 616.09 1348.9 604.895 1406.48L604.627 1407.49C603.46 1410.95 602.815 1414.62 602.066 1418.99L602.025 1419.23L602.025 1419.23C601.385 1422.97 600.652 1427.25 599.334 1431.53C599.272 1431.73 599.241 1431.83 599.221 1431.93C599.202 1432.02 599.191 1432.12 599.168 1432.33C598.813 1435.58 597.879 1441.65 596.77 1447.38C596.097 1450.86 595.313 1454.46 594.48 1457.47C594.065 1458.97 593.603 1460.45 593.09 1461.77C592.729 1462.69 592.103 1464.19 591.085 1465.55L591.029 1465.64C590.815 1465.96 590.53 1466.36 590.167 1466.82C589.505 1467.67 588.578 1468.72 587.349 1469.85C587.189 1470 587.11 1470.07 587.008 1470.15C586.907 1470.22 586.802 1470.27 586.593 1470.39L584.24 1471.66C584.029 1471.77 583.923 1471.83 583.8 1471.87C583.678 1471.92 583.578 1471.94 583.378 1471.99C576.422 1473.64 569.565 1470.19 564.559 1466.68C558.989 1462.77 553.347 1457.1 548.191 1450.81C537.944 1438.32 528.397 1421.85 524.718 1408.17C516.778 1378.64 521.607 1347.88 530.061 1321.74C538.532 1295.54 550.881 1273.24 558.911 1260.18C619.628 1158.33 729.3 1082.94 821.226 1058.22C861.324 1047.44 924.054 1040.48 984.296 1063.42ZM925.044 1124.95C922.398 1124.81 921.074 1124.73 920.77 1124.81C919.251 1125.21 918.743 1126.94 919.803 1128.1C920.015 1128.33 921.269 1129.04 923.776 1130.47C923.861 1130.52 923.904 1130.55 923.943 1130.57C924.113 1130.68 924.27 1130.82 924.4 1130.97C924.43 1131.01 924.458 1131.04 924.514 1131.11L927.389 1134.85C927.631 1135.17 927.752 1135.33 927.839 1135.5C927.926 1135.68 927.978 1135.87 928.081 1136.25L928.837 1139.07C928.983 1139.61 929.057 1139.88 929.053 1140.16C929.049 1140.44 928.968 1140.71 928.806 1141.25L927.075 1147.03C926.93 1147.52 926.858 1147.76 926.73 1147.97C926.71 1148.01 926.689 1148.04 926.667 1148.07C926.528 1148.28 926.339 1148.45 925.961 1148.78C925.771 1148.95 925.676 1149.03 925.592 1149.13C925.579 1149.14 925.566 1149.16 925.554 1149.18C925.473 1149.27 925.407 1149.38 925.277 1149.59C911.918 1170.92 899.989 1202.67 889.573 1241.38C878.973 1280.78 870.088 1326.8 862.804 1375.22C850.177 1459.17 842.42 1549.96 838.838 1625.24C838.617 1629.89 838.507 1632.21 839.797 1632.75C841.088 1633.29 842.679 1631.57 845.861 1628.13C906.735 1562.37 984.008 1505.92 1056.28 1476.19C1057.29 1475.77 1057.8 1475.56 1058.12 1475.15C1058.45 1474.75 1058.53 1474.21 1058.71 1473.15C1068.94 1410.3 1068.74 1328.04 1049.32 1255.82C1030.21 1184.73 999.528 1150.48 967.603 1135.38C953.778 1128.85 939.374 1125.73 925.044 1124.95ZM834.246 1787.13C834.072 1788.36 833.985 1788.98 834.309 1789.56C834.633 1790.15 835.172 1790.39 836.248 1790.87C846.199 1795.31 858.052 1793.22 870.016 1790C907.217 1780 942.882 1749.18 973.432 1705.02C998.393 1668.94 1019.51 1624.56 1034.93 1577.02C1036.41 1572.44 1037.15 1570.15 1035.98 1569.29C1034.8 1568.44 1032.85 1569.86 1028.96 1572.69C1000.05 1593.72 960.632 1625.06 924.677 1659.36C900.039 1682.86 877.24 1707.55 860.58 1731.1C845.838 1751.94 836.521 1771.04 834.246 1787.13Z" fill="url(#paint4_linear_339_30)"/>
<path fill-rule="evenodd" clip-rule="evenodd" d="M1612.17 1191.36C1621.47 1193.1 1628.66 1197.99 1633.76 1205.12C1638.77 1212.14 1641.56 1221.02 1642.96 1230.59C1645.75 1249.65 1643.35 1273.85 1638.94 1298.26C1632.82 1332.1 1622.26 1368.75 1614.73 1394.91L1614.73 1394.94L1614.72 1394.96C1611.79 1405.14 1609.31 1413.73 1607.74 1419.94C1607.65 1420.29 1607.61 1420.46 1607.6 1420.64C1607.58 1420.82 1607.6 1420.99 1607.64 1421.35C1610.21 1443.99 1615.89 1471.93 1626.96 1488.88C1627.05 1489.01 1627.1 1489.08 1627.14 1489.15C1627.17 1489.22 1627.21 1489.29 1627.27 1489.44L1628.04 1491.14C1628.11 1491.29 1628.14 1491.36 1628.17 1491.44C1628.19 1491.51 1628.21 1491.59 1628.26 1491.75C1628.27 1491.8 1628.28 1491.85 1628.3 1491.89L1628.31 1491.94C1628.8 1493.77 1629.36 1495.83 1629.52 1497.43C1629.6 1498.29 1629.76 1500.47 1628.6 1502.75C1627.16 1505.59 1624.68 1506.77 1623.04 1507.21C1614.03 1509.63 1604.33 1507.11 1596.51 1503.55C1594.72 1502.74 1592.96 1501.84 1591.25 1500.87C1588.95 1499.58 1587.81 1498.93 1586.91 1499.31C1586.01 1499.68 1585.67 1500.91 1584.98 1503.36C1578.86 1525.35 1568.96 1551.39 1555.82 1574.87C1539.11 1604.74 1516.01 1632.55 1487.03 1640.34C1476.27 1643.23 1465.9 1644 1456.13 1640.7C1446.28 1637.38 1438.16 1630.31 1431.18 1619.77C1424.11 1609.44 1418.4 1596.29 1413.86 1581.24C1413.62 1580.44 1413.5 1580.05 1413.42 1579.89C1412.7 1578.48 1410.82 1578.38 1409.96 1579.7C1409.86 1579.85 1409.7 1580.23 1409.38 1580.98C1388.51 1630.14 1357.73 1675.11 1312.43 1687.29C1287.27 1694.05 1265.27 1686.3 1248.46 1671.56C1231.87 1657 1220.19 1635.6 1214.38 1613.99C1193.64 1536.86 1212.64 1430.96 1242.05 1360.79C1248.65 1344.97 1259.18 1323.13 1272.83 1303.9C1286.27 1284.94 1303.72 1267.08 1324.59 1261.46C1329.53 1260.14 1333.96 1260.11 1337.84 1260.1C1338.27 1260.09 1338.7 1260.09 1339.12 1260.09C1339.41 1260.08 1339.7 1260.08 1339.99 1260.08L1340.42 1260.08C1350.96 1260.48 1359.68 1263.43 1366.71 1268.5C1373.68 1273.54 1378.5 1280.32 1381.83 1287.69C1388.36 1302.15 1389.58 1319.86 1389.68 1334.38C1390.02 1362.17 1384.03 1406.65 1369.91 1446.51C1362.84 1466.47 1353.6 1485.63 1341.82 1501.02C1330.03 1516.42 1315.36 1528.49 1297.37 1533.33L1297.31 1533.34C1296.64 1533.53 1296 1533.7 1295.38 1533.86C1293.64 1534.32 1292.77 1534.55 1292.35 1535.18C1291.93 1535.81 1292.04 1536.65 1292.28 1538.34C1294.07 1551.11 1297.42 1561.65 1302.18 1569.43C1308 1578.96 1315.79 1584.23 1326.06 1584.93C1329.85 1584.82 1333.54 1583.85 1337.04 1582.91C1346.57 1580.35 1355.84 1573.42 1364.68 1562.75C1373.47 1552.13 1381.36 1538.37 1388.23 1523.21C1392.52 1513.74 1396.36 1503.83 1399.74 1493.98C1399.86 1493.62 1399.92 1493.43 1399.95 1493.24C1399.98 1493.05 1399.97 1492.85 1399.94 1492.46C1398.38 1465.12 1398.63 1436.4 1400.39 1408.53C1402.95 1368.06 1408.75 1329.09 1417.07 1298.53C1421.22 1283.26 1426.07 1269.84 1431.61 1259.3C1436.77 1249.46 1443.07 1241.09 1450.88 1236.73C1451.01 1236.66 1451.08 1236.62 1451.14 1236.59C1451.19 1236.55 1451.26 1236.5 1451.39 1236.4C1453.17 1235.1 1455.07 1234.26 1456.52 1233.71C1458.31 1233.03 1460.09 1232.56 1461.22 1232.25L1461.31 1232.23C1476.33 1228.19 1490.87 1231.21 1500.95 1237.47C1505.96 1240.58 1510.28 1244.76 1512.78 1249.74C1515.36 1254.89 1516.02 1261.07 1513.09 1266.94L1512.08 1268.47C1509.55 1271.49 1506.24 1278.24 1502.65 1288.91C1499.17 1299.26 1495.71 1312.39 1492.51 1327.33C1486.1 1357.2 1480.8 1393.78 1478.26 1428.77C1475.7 1463.9 1475.98 1496.79 1480.41 1519.55C1482.65 1531.07 1485.78 1538.96 1489.3 1543.34C1490.97 1545.42 1492.51 1546.45 1493.86 1546.91C1495.16 1547.36 1496.88 1547.51 1499.34 1546.8L1499.49 1546.76C1504.12 1545.51 1509.74 1541.35 1515.97 1533.66C1522.04 1526.16 1527.99 1516.16 1533.5 1504.83C1543.9 1483.41 1552.26 1458.22 1556.83 1438.55C1556.96 1438 1557.02 1437.72 1557.01 1437.44C1556.99 1437.16 1556.9 1436.89 1556.71 1436.34C1546.28 1406.19 1540.3 1351.33 1543.32 1301.77C1544.9 1275.96 1548.95 1250.94 1556.43 1231.17C1563.79 1211.72 1575.28 1195.31 1593.06 1190.53C1599.49 1188.8 1604.79 1189.29 1612.17 1191.36ZM1335.09 1319.5C1335.07 1319.42 1334.98 1319.4 1334.91 1319.44C1333.56 1320.44 1331.9 1322.08 1330.01 1324.7C1326.87 1329.03 1323.71 1335.15 1320.61 1342.83C1314.44 1358.16 1309.04 1378.4 1304.57 1399.66C1298.6 1428.06 1294.43 1457.58 1292.22 1478.38C1291.8 1482.42 1291.58 1484.44 1292.95 1485.02C1294.33 1485.59 1295.56 1484.08 1298.04 1481.07C1299.06 1479.83 1300.07 1478.5 1301.09 1477.09C1307.77 1467.76 1313.67 1455.58 1318.66 1442.32C1328.61 1415.89 1334.46 1386.52 1336.18 1370.31C1336.2 1370.09 1336.21 1369.83 1336.23 1369.54C1336.26 1369.14 1336.29 1368.68 1336.33 1368.16V1368.16C1336.74 1362.12 1337.64 1348.93 1337.24 1336.76C1337.01 1329.57 1336.33 1323.51 1335.15 1319.68C1335.13 1319.62 1335.11 1319.56 1335.09 1319.5Z" fill="url(#paint5_linear_339_30)"/>
<path fill-rule="evenodd" clip-rule="evenodd" d="M515.862 48.3838C566.554 81.6465 597.107 135.677 606.511 196.389L606.515 196.412C623.894 310.778 568.091 447.396 435.66 527.045C433.848 528.135 432.942 528.68 432.774 529.556C432.605 530.432 433.231 531.258 434.485 532.91C459.008 565.244 486.439 594.079 514.347 613.873C545.411 635.905 575.833 645.907 603.148 639.07C634.397 631.248 655.424 609.774 670.63 582.017C676.428 571.434 681.318 560.048 685.555 548.323C685.677 547.986 685.738 547.817 685.768 547.639C685.798 547.462 685.796 547.281 685.791 546.918C685.425 518.352 686.956 487.322 690.389 456.843C694.787 417.791 702.34 379.345 713.182 348C723.85 317.158 738.334 291.287 757.848 279.911L759.894 279.078L768.118 277.019C780.923 273.814 793.074 276.778 801.398 280.62C805.555 282.539 809.151 284.854 811.644 287.15C812.784 288.2 814.266 289.759 815.189 291.735C815.652 292.726 816.307 294.523 816.045 296.752C815.811 298.752 814.903 300.525 813.548 301.856C804.598 312.576 796.199 330.794 788.925 353.953C781.63 377.184 775.712 404.57 771.43 432.53C762.831 488.673 761.043 545.662 767.178 575.121C767.843 577.759 768.475 579.703 769.058 581.112C769.246 581.566 769.82 581.682 770.166 581.333C770.306 581.192 770.453 581.039 770.609 580.871C772.234 579.124 774.177 576.474 776.397 572.829C780.826 565.56 785.802 555.26 791.12 542.657C801.732 517.512 813.294 484.199 824.203 450.012C846.026 381.622 864.948 310.636 868.105 296.411C870.161 287.147 873.118 274.963 878.53 264.332C883.956 253.676 892.468 243.398 906.153 239.973C921.086 236.235 935.91 240.751 945.656 247.783C950.514 251.288 954.732 255.863 956.85 261.12C959.097 266.7 958.976 273.384 954.229 278.854L953.59 279.509C948.351 284.284 943.427 292.541 939.053 304.632C934.725 316.598 931.181 331.622 928.272 349.2C922.453 384.359 919.322 428.755 917.134 477.327C916.263 497.686 915.815 519.603 915.346 542.599L915.343 542.731C915.231 548.227 915.117 553.784 914.996 559.396C914.96 561.1 917.13 561.784 918.036 560.34C918.152 560.154 918.227 559.952 918.269 559.737C919.077 555.557 921.139 551.965 924.317 549.188C924.667 548.882 924.842 548.729 924.958 548.582C925.074 548.434 925.165 548.257 925.348 547.905C938.107 523.273 949.687 493.801 959.774 464.42C959.873 464.13 959.923 463.985 959.95 463.834C959.977 463.684 959.981 463.529 959.989 463.22C960.058 460.462 960.149 457.694 960.26 454.918C962.199 406.778 970.556 355.34 985.029 310.919C999.407 266.788 1020.23 228.315 1047.96 207.601L1048.44 207.269C1055.69 202.657 1064.41 199.112 1072.19 197.165C1089.46 192.842 1109.18 195.34 1125.04 208.037C1137.37 217.911 1146.66 233.367 1150.92 254.91C1151.44 257.503 1151.7 258.799 1152.55 259.242C1153.4 259.685 1154.64 259.135 1157.12 258.035C1160.53 256.518 1164.09 255.308 1167.67 254.413C1182.15 250.788 1197.28 253.874 1207.91 259.529C1213.21 262.343 1218.04 266.14 1221.03 270.775C1224.15 275.632 1225.55 282.161 1221.83 288.366L1221.05 289.445C1212.4 299.509 1204.81 318 1199.31 341.018C1193.87 363.744 1190.73 389.804 1190.31 414.044C1189.88 438.438 1192.22 460.27 1197.29 474.86C1199.84 482.203 1202.8 486.881 1205.68 489.351C1208.14 491.454 1210.68 492.161 1214.24 491.186C1222.55 488.863 1231.61 481.449 1240.89 469.304C1250.03 457.355 1258.62 441.822 1266.31 425.011C1273.93 408.358 1280.51 390.741 1285.77 374.624C1285.86 374.339 1285.9 374.196 1285.93 374.048C1285.95 373.899 1285.96 373.747 1285.96 373.444C1286.17 358.461 1286.73 343.253 1287.57 328.091C1291.09 264.492 1299.63 200.863 1308.64 156.41C1309.96 148.998 1313.18 143.344 1317.79 139.256C1322.29 135.276 1327.59 133.238 1332.36 132.045C1344.54 128.997 1358.39 130.119 1368.91 133.224C1374.14 134.77 1379.17 136.988 1382.89 139.947C1386.31 142.668 1390.67 147.858 1388.88 154.725C1385.42 170.42 1380.96 203.215 1377.02 241.085C1375.79 252.873 1375.18 258.767 1376.88 259.174C1378.59 259.581 1380.71 254.018 1384.96 242.89C1390.08 229.468 1395.65 215.717 1401.6 202.256C1413.05 176.34 1426.02 151.196 1440.02 131.485C1453.76 112.129 1469.55 96.4581 1487.14 92.0566C1503.62 87.9296 1518.79 92.1545 1529.32 98.3217C1534.56 101.395 1538.98 105.134 1541.96 108.967C1543.43 110.871 1544.76 113.062 1545.53 115.438C1546.29 117.756 1546.75 121.052 1545.23 124.36L1545.23 124.368C1545.17 124.481 1545.14 124.538 1545.11 124.608C1545.1 124.626 1545.09 124.656 1545.08 124.674C1545.05 124.746 1545.04 124.794 1545.01 124.89C1544.94 125.112 1544.87 125.363 1544.77 125.716L1544.74 125.801C1544.64 126.175 1544.51 126.63 1544.36 127.121C1543.86 128.765 1543.12 130.89 1541.9 133.233C1541.77 133.487 1541.7 133.614 1541.66 133.732C1541.61 133.85 1541.59 133.969 1541.53 134.206C1535.79 158.789 1526.52 224.053 1524.17 285.074C1522.98 316.253 1523.62 345.827 1527.3 368.08C1529.15 379.244 1531.69 388.068 1534.84 394.221C1538.01 400.413 1541.16 402.724 1543.75 403.343L1543.78 403.351L1546.27 403.903C1546.32 403.913 1546.36 403.927 1546.41 403.945C1546.66 404.044 1546.94 404.025 1547.17 403.892C1547.26 403.84 1547.36 403.781 1547.47 403.716C1548.66 403.034 1550.3 402.15 1552.72 401.476C1561.05 398.006 1569.83 389.892 1578.61 377.814C1587.43 365.699 1595.66 350.411 1603 334.069C1617.57 301.644 1628.22 266.047 1632.87 245.28C1633.82 235.542 1639.45 228.705 1645.78 227.121C1652.07 225.547 1657.52 228.232 1660.91 231.503C1664.2 234.674 1666.69 239.408 1666.69 244.418L1666.55 245.917C1654.71 306.827 1635.66 365.602 1613.24 411.029C1602.04 433.733 1589.88 453.332 1577.2 468.234C1564.62 483.011 1550.92 493.873 1536.47 497.858L1536.2 497.926C1521.65 501.392 1508.74 499.58 1497.74 493.04C1486.97 486.631 1478.78 476.137 1472.52 463.579C1460.06 438.611 1453.98 403.052 1451.3 365.981C1448.35 325.279 1449.42 281.479 1451.32 245.41C1451.8 236.456 1452.03 231.98 1450.38 231.613C1448.73 231.246 1447.06 235.383 1443.72 243.655C1430.94 275.309 1418.12 310.927 1407.49 347.014C1388.99 409.811 1377.47 472.922 1383.55 518.921C1383.99 521.9 1384.35 524.768 1384.33 527.315C1384.32 529.973 1383.89 532.978 1382.19 535.825C1380.48 538.671 1378.03 540.46 1375.69 541.728C1373.44 542.951 1370.72 543.989 1367.87 545.013L1367.12 545.241C1348.65 549.863 1333.47 548.19 1321.38 539.69C1309.66 531.451 1302.29 517.761 1296.96 501.633L1296.8 501.076C1294.58 492.211 1292.74 482.615 1291.24 472.439C1291.21 472.197 1290.87 472.155 1290.78 472.381C1290.53 472.991 1290.28 473.6 1290.02 474.208C1279.07 500.469 1266.15 525.733 1251.35 545.662C1236.67 565.425 1219.4 580.966 1199.47 585.956C1186.09 589.305 1174.04 587.399 1163.68 580.998C1153.58 574.755 1145.71 564.629 1139.54 552.562C1133.54 540.834 1128.85 526.696 1125.23 511.149C1123.76 504.817 1123.03 501.651 1121.52 501.579C1120.01 501.508 1118.98 504.567 1116.93 510.686C1112.35 524.369 1107.04 538.894 1100.99 552.826C1093.5 570.089 1084.7 586.832 1074.49 600.15C1064.37 613.356 1052.18 624.071 1037.64 627.709C1022.69 631.451 1009.43 628.026 998.56 619.018C988.06 610.314 980.187 596.756 974.38 580.661C972.419 575.226 970.663 569.414 969.108 563.279C967.903 558.525 967.301 556.148 965.93 555.99C964.559 555.832 963.442 557.992 961.207 562.311C948.417 587.028 933.306 611.754 915.389 638.873C915.077 639.345 914.921 639.581 914.837 639.845C914.753 640.109 914.744 640.391 914.725 640.953C912.374 712.786 908.043 785.047 893.809 842.309C879.477 899.965 854.246 945.759 807.36 957.495C797.447 959.976 786.633 961.385 776.107 959.709C750.445 956.182 732.154 939.69 723.629 917.511C715.195 895.567 716.328 868.297 728.258 842.068C737.137 817.845 753.318 790.563 772.697 761.99C789.929 736.584 809.978 709.749 830.171 682.72L833.015 678.913C834.08 677.487 835.145 676.061 836.21 674.634C836.537 674.196 836.701 673.977 836.799 673.725C836.897 673.473 836.926 673.202 836.982 672.659C838.456 658.466 839.68 644.337 840.857 630.739C842.715 609.286 844.458 589.153 846.891 572.178C847.716 561.212 847.577 549.831 847.427 538.035L847.425 537.856L847.424 537.778C847.415 537.044 846.366 536.904 846.162 537.608C842.341 550.81 838.076 564.334 833.374 577.545C824.627 602.122 814.246 625.971 802.204 644.729C790.353 663.188 775.933 678.234 758.526 682.591C745.794 685.778 734.332 684.672 724.441 679.057C714.751 673.556 707.519 664.263 701.978 652.873L701.944 652.801C700.754 650.291 699.634 647.559 698.584 644.625C696.962 640.095 696.151 637.83 694.819 637.762C693.487 637.695 692.468 639.83 690.43 644.1C670.574 685.7 642.077 721.65 600.224 732.126C553.169 743.904 507.55 723.513 467.603 688.842C430.022 656.225 396.312 610.051 369.267 562.361C368.44 560.903 368.027 560.174 367.331 559.923C366.634 559.672 365.839 559.974 364.249 560.578C359.808 562.265 355.486 563.69 351.204 565.102L351.195 565.105C350.313 565.396 349.433 565.686 348.554 565.978C347.388 566.365 346.805 566.559 346.437 567.013C346.068 567.467 345.999 568.08 345.86 569.306C339.258 627.63 335.732 685.073 336.095 734.006C336.475 785.158 341.115 825.92 350.278 848.842C350.472 849.191 350.748 849.435 351.467 849.632C352.497 849.914 354.158 849.949 356.193 849.439C360.318 848.407 363.652 850.363 365.436 852.211C367.233 854.073 368.208 856.415 368.586 858.633C369.239 862.474 368.271 866.603 365.659 870.225C365.462 870.499 365.363 870.636 365.306 870.739C365.249 870.841 365.179 871.012 365.038 871.353C363.638 874.758 360.96 877.005 359.27 878.192C356.741 879.969 353.872 881.174 351.783 881.697L350.814 881.876C320.175 885.558 296.152 878.207 278.476 861.467C261.107 845.018 250.845 820.416 245.437 791.44C235.333 737.296 241.574 664.421 254.685 589.733C255.093 587.406 255.298 586.242 254.671 585.522C254.045 584.803 252.837 584.846 250.422 584.932C247.902 585.022 245.464 585.021 243.119 584.91C236.156 584.582 229.503 583.274 223.798 580.104C211.735 573.401 207.163 560.483 207.672 542.927C207.69 542.281 207.7 541.958 207.815 541.648C207.931 541.338 208.14 541.081 208.559 540.567L212.812 535.352C213.229 534.842 213.437 534.587 213.71 534.413C213.983 534.24 214.302 534.16 214.941 534L216.002 533.735C218.875 533.015 222.028 532.601 224.45 532.307C224.92 532.25 225.352 532.198 225.756 532.15C226.476 532.065 227.107 531.99 227.708 531.911C228.154 531.853 228.51 531.801 228.792 531.755C228.931 531.732 229.037 531.712 229.114 531.697L229.154 531.689L229.182 531.683C229.212 531.677 229.223 531.674 229.218 531.675L230.915 531.443C241.076 531.173 250.824 528.764 261.525 526.085L263.802 525.515C264.971 525.223 265.555 525.077 265.951 524.669C266.348 524.262 266.478 523.672 266.74 522.492C293.407 402.13 330.651 289.992 342.832 254.855C351.543 226.343 370.651 204.154 393.018 198.556C405.315 195.478 418.373 197.743 430.555 203.605C431.385 204.005 431.801 204.204 432.089 204.575C432.377 204.945 432.472 205.413 432.662 206.348L434.335 214.591C434.521 215.506 434.614 215.964 434.512 216.392C434.411 216.82 434.11 217.204 433.508 217.971C426.745 226.584 419.697 239.975 412.61 257.61C405.154 276.165 397.863 298.882 390.888 324.572C378.701 369.454 367.575 423.045 358.231 478.648C357.625 482.258 357.322 484.063 358.378 484.784C359.435 485.506 360.997 484.571 364.123 482.702C404.242 458.708 442.562 428.328 473.721 394.468C509.646 353.189 539.078 292.548 543.886 236.475C546.283 208.514 542.528 182.116 530.869 159.835C519.279 137.686 499.579 119.015 468.943 106.813L468.926 106.806C430.546 91.4105 383.237 89.8424 333.941 102.181C205.099 134.43 75.0292 249.647 91.196 405.806C91.3105 406.911 91.3677 407.464 91.1668 407.938C90.9659 408.412 90.539 408.748 89.6853 409.419L82.7005 414.908C81.8389 415.585 81.4081 415.923 80.8839 416.002C80.3598 416.08 79.8596 415.886 78.8592 415.498C46.5756 402.975 26.1452 377.93 18.0255 346.313C9.80096 314.287 14.2548 275.912 30.6926 236.922C63.61 158.843 145.181 76.6269 276.09 33.0986L276.66 32.9326L308.379 24.9934C395.196 3.26331 465.109 15.0803 515.862 48.3838ZM802.973 290.284C803.037 290.23 803.083 290.289 803.02 290.344L802.993 290.367C802.98 290.379 802.961 290.38 802.947 290.371C802.925 290.357 802.923 290.326 802.943 290.31C802.953 290.301 802.963 290.293 802.973 290.284ZM1547.65 404.439L1547.69 404.45C1547.72 404.456 1547.74 404.462 1547.76 404.469C1547.86 404.495 1547.85 404.518 1547.75 404.482L1547.65 404.439ZM1544.83 125.128L1545.07 124.671C1545.02 124.777 1544.94 124.939 1544.83 125.128ZM1098.97 250.421C1098.9 250.387 1098.83 250.381 1098.76 250.405C1096.88 251.068 1093.77 253.236 1089.7 258.39C1085.48 263.733 1080.99 271.312 1076.45 280.826C1067.39 299.813 1058.62 325.503 1051.61 353.855C1037.5 410.896 1031.02 476.574 1042.12 518.524L1042.14 518.625C1042.44 519.809 1042.73 520.84 1043.02 521.735C1043.57 523.467 1043.84 524.332 1044.97 524.579C1046.1 524.825 1046.7 524.164 1047.91 522.841C1047.95 522.788 1048 522.733 1048.05 522.679C1050.56 519.884 1053.41 515.812 1056.53 510.477C1062.77 499.831 1069.55 485.119 1076.48 467.973C1090.33 433.744 1104.41 390.825 1115.68 353.743L1115.84 353.284L1115.84 353.282L1115.84 353.28L1115.86 353.231L1115.86 353.225C1115.88 353.179 1115.9 353.107 1115.94 353.01L1115.97 352.923L1116 352.842C1116.03 352.755 1116.07 352.657 1116.1 352.546C1116.15 352.41 1116.21 352.256 1116.27 352.085C1116.55 351.262 1116.96 350.042 1117.45 348.501C1118.43 345.413 1119.69 341.068 1120.85 336.065C1123.19 325.946 1124.87 314.022 1123.41 304.429C1122.05 299.089 1117.61 283.897 1111.75 270.502C1108.74 263.594 1105.56 257.677 1102.51 253.838C1100.99 251.914 1099.81 250.913 1099.07 250.478C1099.03 250.457 1099 250.438 1098.97 250.421ZM768.385 882.779C768.415 882.87 768.498 882.933 768.594 882.938C768.649 882.94 768.705 882.943 768.763 882.945C770.128 882.99 771.817 882.805 773.575 882.365C777.916 881.279 782.919 877.526 788.323 869.615C793.648 861.821 798.71 850.938 803.503 837.445C808.108 824.479 812.344 809.459 816.299 793.068C818.168 785.324 819.102 781.451 817.561 780.781C816.02 780.112 813.822 783.442 809.427 790.102C798.829 806.164 789.628 821.025 782.532 834.335C775.648 847.248 770.979 858.275 768.85 867.231C767.153 874.373 767.266 879.354 768.385 882.779Z" stroke="black" stroke-width="27" stroke-linejoin="bevel"/>
<path fill-rule="evenodd" clip-rule="evenodd" d="M1514.91 614.458C1520.16 618.863 1523.74 624.917 1524.23 632.615C1524.28 633.432 1524.31 633.841 1524.14 634.265C1523.97 634.688 1523.64 634.989 1522.97 635.59L1516.97 641.026C1516.33 641.612 1516 641.904 1515.61 642.037C1515.21 642.17 1514.77 642.132 1513.89 642.054C1488.97 639.86 1455.96 643.973 1417.99 653.25C1413.23 654.414 1408.4 655.658 1403.53 656.977C1403 657.119 1403.05 657.908 1403.59 657.997C1411.34 659.289 1419.53 662.335 1425.47 668.205L1425.71 668.456C1427.94 670.864 1429.89 674.175 1429.66 678.283C1429.44 682.178 1427.34 684.953 1425.88 686.534C1424.59 687.937 1422.99 689.252 1421.86 690.182C1421.72 690.293 1421.6 690.399 1421.47 690.499C1420.12 691.621 1419.22 692.408 1418.57 693.158L1418.26 693.507C1408.48 703.567 1399.08 722.996 1390.52 749.117C1382.07 774.908 1374.78 806.076 1368.66 838.526C1363.6 865.315 1359.35 892.852 1355.89 918.77C1355.01 925.391 1354.57 928.702 1355.09 929.366C1355.63 930.059 1356.54 930.313 1357.36 930.005C1358.15 929.71 1359.52 926.623 1362.24 920.448C1369.9 903.104 1378.68 886.176 1388.31 872.83C1397.73 859.793 1408.98 848.737 1422.03 845.55C1433.88 842.654 1444.53 845.821 1451.94 850.428C1455.64 852.723 1458.77 855.514 1460.97 858.416C1462.07 859.862 1463.08 861.51 1463.75 863.297C1464.34 864.867 1464.88 867.091 1464.47 869.561C1464.47 869.572 1464.47 869.545 1464.47 869.57C1464.4 869.904 1464.2 870.309 1463.97 870.557C1463.95 870.576 1463.94 870.585 1463.92 870.605L1459.55 875.047C1459.27 875.332 1459.52 875.751 1459.88 875.581C1459.95 875.55 1460.01 875.519 1460.08 875.487C1460.46 875.296 1460.76 875.1 1460.98 874.941C1461.45 874.598 1461.77 874.274 1461.93 874.087C1462.25 873.725 1462.34 873.509 1462.28 873.624C1462.18 873.828 1461.88 874.525 1461.58 875.83L1461.54 875.997C1457.7 891.278 1451.05 935.578 1449.25 977.113C1448.35 997.881 1448.69 1017.47 1451.05 1032.17C1452.23 1039.55 1453.86 1045.22 1455.79 1049.08C1457.14 1051.77 1458.36 1053.04 1459.24 1053.64C1459.28 1053.67 1459.33 1053.68 1459.38 1053.68L1461.21 1053.67C1461.25 1053.67 1461.26 1053.62 1461.21 1053.61C1461.12 1053.6 1461.07 1053.6 1461.11 1053.6C1461.16 1053.6 1461.32 1053.6 1461.63 1053.55C1462.13 1053.47 1462.71 1053.35 1463.48 1053.17C1463.65 1053.13 1463.73 1053.11 1463.82 1053.07C1463.92 1053.04 1463.99 1053.01 1464.13 1052.95C1468.69 1050.86 1473.97 1046.01 1479.59 1038.32C1485.39 1030.38 1490.93 1020.25 1495.92 1009.35C1496.85 1007.3 1497.77 1005.24 1498.66 1003.16C1498.82 1002.79 1498.9 1002.6 1498.94 1002.4C1498.98 1002.21 1498.98 1002 1498.98 1001.59C1498.96 957.809 1510.9 910.04 1526.3 875.559C1530.99 865.016 1538.43 850.44 1547.97 837.617C1557.31 825.071 1569.68 812.797 1584.6 809.151C1588.28 808.254 1591.62 808.318 1594.19 808.368C1594.66 808.377 1595.1 808.386 1595.52 808.388L1595.96 808.403C1603.42 808.861 1609.7 811.108 1614.76 814.944C1619.78 818.745 1623.14 823.752 1625.38 829.028C1629.74 839.303 1630.25 851.597 1630.1 861.32C1629.9 880.149 1625.17 910.011 1615.03 936.649C1609.95 950 1603.38 962.895 1595.06 973.258C1586.75 983.621 1576.32 991.883 1563.53 995.009L1563.47 995.022L1562.89 995.164C1562.4 995.284 1562.07 995.752 1562.13 996.254C1563.14 1004.17 1565.09 1010.59 1567.82 1015.29C1571.17 1021.08 1575.55 1024.12 1581.34 1024.68C1583.48 1024.65 1585.64 1024.15 1587.96 1023.58C1593.63 1022.2 1599.48 1018.15 1605.34 1011.4C1611.16 1004.69 1616.51 995.864 1621.26 985.985C1630.76 966.226 1637.32 943.412 1640.45 928.124L1640.48 927.952C1641.18 924.909 1642.16 921.944 1643.66 919.466C1645.18 916.969 1647.69 914.246 1651.6 913.291C1656.95 911.983 1661.64 914.315 1664.44 917.465C1667.19 920.565 1668.69 924.96 1668.05 929.49L1667.99 929.818C1663.11 956.189 1654.15 993.957 1639.21 1027.02C1624.5 1059.58 1602.84 1090.12 1571.2 1097.85C1553.34 1102.22 1537.92 1096.34 1526.42 1085.77C1519.44 1079.36 1513.85 1071.22 1509.74 1062.42C1509.35 1061.6 1508.17 1061.57 1507.77 1062.39C1500.2 1077.59 1491.94 1090.81 1483.25 1100.91C1474.66 1110.89 1465.07 1118.53 1454.69 1121.33L1454.43 1121.4C1444.06 1123.81 1434.69 1122.53 1426.66 1117.78C1418.84 1113.16 1413.06 1105.68 1408.74 1097.03C1400.18 1079.88 1396.2 1055.74 1394.55 1030.98C1393.29 1011.95 1393.37 991.941 1394.08 973.415C1394.42 964.356 1394.59 959.826 1392.92 959.489C1391.26 959.152 1389.67 963.351 1386.49 971.749C1366.02 1025.87 1350.81 1087.53 1349.95 1136.51C1349.94 1136.65 1349.94 1136.72 1349.94 1136.78C1349.95 1136.84 1349.96 1136.93 1349.98 1137.12C1350.51 1141.91 1347.85 1145.6 1345.23 1147.72C1342.49 1149.94 1338.98 1151.27 1335.69 1152.07C1328.21 1153.9 1318.62 1153.6 1309.86 1148.17C1300.98 1142.67 1294.15 1132.64 1290.86 1117.32L1290.82 1117.09C1287.45 1098.82 1286.82 1062.43 1288.66 1018.57C1290.51 974.418 1294.9 921.914 1301.88 870.979C1308.85 820.109 1318.43 770.494 1330.75 732.268C1336.9 713.182 1343.84 696.58 1351.68 684.003C1351.96 683.561 1352.24 683.122 1352.52 682.687C1356.4 676.643 1358.35 673.621 1357.46 672.5C1356.57 671.379 1353.35 672.526 1346.91 674.821C1331.84 680.188 1316.57 686.094 1301.25 692.457C1300.44 692.796 1300.03 692.965 1299.73 693.278C1299.44 693.592 1299.3 694.006 1299.01 694.836C1261.52 804.195 1234.19 939.08 1239.67 1054.3L1239.68 1054.44C1240.09 1067.8 1241.56 1088.82 1245.37 1108.94C1247.27 1119 1249.72 1128.65 1252.83 1136.95C1255.97 1145.33 1259.59 1151.78 1263.55 1155.9L1263.88 1156.27C1265.23 1157.86 1267.57 1161.64 1265.64 1166.16C1263.96 1170.1 1260.3 1171.32 1258.77 1171.7C1257.17 1172.09 1255.79 1172.09 1254.78 1172.01C1254.41 1171.98 1254.23 1171.97 1254.1 1171.97C1253.96 1171.98 1253.81 1172.01 1253.51 1172.06C1236.22 1175.3 1221.71 1172.78 1209.87 1165.69C1197.83 1158.47 1189.38 1147.03 1183.42 1134.27C1171.6 1108.95 1168.48 1076.13 1167.62 1052.11L1167.62 1052.05C1164.56 945.098 1195.44 830.995 1232.34 730.705C1233.84 726.636 1234.59 724.601 1233.56 723.695C1232.53 722.79 1230.62 723.783 1226.79 725.769C1181.05 749.489 1139.26 775.879 1107.8 801.374C1084.62 820.807 1068.48 841.449 1061.09 859.684C1053.73 877.86 1055.47 892.106 1065.08 901.749L1065.8 902.575C1068.4 906.04 1070.32 910.638 1069.08 915.508C1067.75 920.687 1063.56 923.521 1059.58 924.494C1053.53 925.972 1047.31 924.126 1042.3 919.138C1024.89 902.95 1014.13 886.035 1009.19 868.774C1004.24 851.434 1005.32 834.289 1010.71 818.001C1021.4 785.752 1049 756.773 1080.74 734.2L1080.86 734.117C1140.37 693.428 1204.65 662.719 1267.35 641.195C1268.2 640.901 1268.63 640.754 1268.94 640.459C1269.26 640.164 1269.44 639.732 1269.79 638.869C1270.65 636.794 1271.34 635.368 1272.19 633.627L1272.19 633.619C1272.9 632.152 1273.72 630.461 1274.84 627.971C1279.37 616.494 1287.09 610.906 1295.76 608.787C1301.67 607.345 1307.5 607.897 1312.29 609.637C1316.62 611.208 1321.29 614.228 1323.55 618.952C1323.6 619.053 1323.62 619.104 1323.65 619.181C1323.72 619.355 1323.77 619.592 1323.78 619.777C1323.79 619.86 1323.78 619.933 1323.78 620.08C1323.76 620.906 1323.75 621.32 1323.84 621.63C1324.08 622.41 1324.77 622.967 1325.58 623.038C1325.9 623.066 1326.31 622.97 1327.11 622.778C1369.97 612.572 1411.67 604.114 1457.21 602.763L1457.24 602.762C1466.72 602.519 1482.4 602.398 1495.89 605.673C1502.63 607.31 1509.55 609.957 1514.91 614.458ZM1586.42 861.201C1586.55 860.949 1586.22 861.58 1586.35 861.419C1587.3 860.269 1589.52 860.806 1589.84 862.263C1589.89 862.467 1589.88 861.843 1589.88 862.092C1589.96 870.059 1589.17 878.673 1588.8 882.721C1588.75 883.288 1588.71 883.766 1588.68 884.139C1587.3 894.73 1583 913.958 1576.07 931.164C1572.58 939.812 1568.57 947.606 1564.16 953.469C1563.86 953.868 1563.24 953.612 1563.31 953.117C1565.15 939.642 1568.21 921.546 1572.3 904.089C1575.59 890.046 1579.46 876.808 1583.72 866.895C1584.63 864.789 1585.53 862.889 1586.42 861.201Z" stroke="black" stroke-width="27" stroke-linejoin="bevel"/>
<path fill-rule="evenodd" clip-rule="evenodd" d="M2023.5 799.194C2036.4 810.925 2042.7 830.971 2040.43 859.131C2035.8 917.675 2015.86 998.89 1992.04 1077.79C1968.47 1155.85 1940.93 1232.23 1920.07 1283.23C1919.94 1283.55 1919.88 1283.71 1919.84 1283.89C1919.8 1284.06 1919.8 1284.23 1919.78 1284.59C1918.26 1324.17 1918.83 1358.34 1922.97 1383.17C1925.08 1395.84 1928.04 1405.5 1931.73 1412.09C1935.16 1418.22 1938.79 1420.97 1942.43 1421.86C1942.82 1421.95 1943.01 1422 1943.14 1422.05C1943.26 1422.1 1943.4 1422.18 1943.66 1422.33L1943.72 1422.36C1944.43 1422.76 1944.78 1422.95 1945.17 1423C1945.56 1423.05 1945.95 1422.95 1946.73 1422.74L1949.95 1421.87C1950.1 1421.83 1950.17 1421.81 1950.25 1421.78C1950.32 1421.76 1950.39 1421.73 1950.52 1421.67C1958.67 1417.98 1967.3 1409.62 1975.91 1397.3C1984.65 1384.79 1992.77 1369.07 1999.94 1352.42C2007.69 1334.41 2014.18 1315.61 2019.04 1299.12C2019.12 1298.87 2019.15 1298.75 2019.17 1298.61C2019.19 1298.48 2019.2 1298.35 2019.2 1298.08C2019.34 1291.99 2019.61 1285.86 2019.99 1279.71C2023.19 1228.89 2034.84 1176.14 2054.65 1133.51C2074.34 1091.14 2102.87 1057.21 2140.69 1047.04L2140.84 1047C2145.49 1045.75 2150.8 1044.32 2157.74 1043.87C2187.62 1041.92 2208.33 1066.33 2220.83 1093.2C2233.02 1119.39 2239.2 1151.33 2239.18 1175.52C2239.18 1176.06 2239.18 1176.33 2239.24 1176.58C2239.31 1176.82 2239.44 1177.07 2239.72 1177.57C2247.8 1192.3 2247.28 1210.66 2246.95 1222.01L2246.95 1222.05C2246.65 1234.88 2245.56 1249.75 2243.2 1264.97C2242.38 1270.25 2241.98 1272.89 2243.61 1273.41C2245.24 1273.93 2246.36 1271.68 2248.6 1267.17C2249.21 1265.96 2249.8 1264.69 2250.39 1263.38C2254.41 1254.31 2257.28 1244.37 2259.73 1235.52C2259.78 1235.31 2259.81 1235.21 2259.83 1235.1C2259.85 1234.99 2259.85 1234.88 2259.86 1234.66C2262.49 1182.33 2265.67 1133.25 2269.36 1094.61C2271.6 1071.09 2274.05 1051.27 2276.7 1036.88C2278.02 1029.71 2279.44 1023.64 2281 1019.04C2281.77 1016.76 2282.67 1014.57 2283.74 1012.72C2284.7 1011.09 2286.4 1008.62 2289.26 1007.24L2290.64 1006.72L2290.65 1006.72C2290.7 1006.71 2290.93 1006.64 2291.96 1005.81C2292.02 1005.77 2292.09 1005.71 2292.18 1005.64C2292.33 1005.51 2292.52 1005.36 2292.73 1005.19C2292.96 1005 2293.21 1004.8 2293.48 1004.6C2293.67 1004.46 2293.86 1004.31 2294.06 1004.18C2294.97 1003.54 2296.37 1002.67 2298.2 1002.18C2306.32 999.998 2316.35 999.439 2325.65 1000.79C2334.73 1002.12 2344.61 1005.49 2350.9 1012.57L2351.31 1013.07C2355.6 1018.79 2354.41 1025.96 2353.5 1030.06C2353.01 1032.31 2352.35 1034.61 2351.77 1036.6L2351.67 1036.94C2351.04 1039.14 2350.52 1040.96 2350.19 1042.6L2350.16 1042.76C2349.31 1046.5 2348.5 1050.82 2347.72 1055.66C2346.97 1060.27 2346.6 1062.58 2346.75 1063.04C2347.2 1064.4 2348.87 1064.87 2349.96 1063.94C2350.32 1063.62 2351.22 1061.41 2353.01 1056.98C2361.86 1035.07 2372.66 1014.02 2385.66 997.194C2398.62 980.418 2414.25 967.214 2432.92 962.196C2448.69 957.955 2462.64 962.503 2473.97 972.51C2484.98 982.227 2493.57 997.067 2500.1 1014.12L2500.17 1014.31C2519.11 1067.78 2517.84 1154.35 2501.47 1229.93C2493.25 1267.86 2481.11 1303.62 2465.37 1331.54C2449.78 1359.21 2429.86 1380.56 2405.47 1387.11C2385.57 1392.46 2368.18 1386.31 2354.64 1375.31C2348.5 1370.32 2343.08 1364.3 2338.44 1357.8C2334.73 1352.59 2332.88 1349.99 2331.49 1350.42C2330.11 1350.86 2330.07 1353.94 2330 1360.12C2329.21 1428.11 2330.69 1496.94 2334.78 1556.32C2337.64 1597.72 2341.75 1634.35 2347.21 1662.83C2349.94 1677.08 2352.98 1689.12 2356.29 1698.62C2359.17 1706.87 2362.09 1712.7 2364.85 1716.41C2365.56 1717.36 2365.91 1717.84 2366 1718.3C2366.08 1718.77 2365.93 1719.28 2365.63 1720.29L2363.13 1728.84C2362.82 1729.89 2362.66 1730.41 2362.29 1730.78C2361.91 1731.14 2361.38 1731.29 2360.33 1731.57L2358.99 1731.93C2338.12 1737.54 2320.46 1735.71 2305.88 1727.87C2291.48 1720.12 2281.05 1707.02 2273.46 1691.83C2258.41 1661.66 2253.42 1620.84 2252.1 1587.75C2250.45 1549.07 2251.72 1448.51 2255.37 1342.23C2255.53 1337.65 2255.6 1335.35 2254.42 1334.79C2253.24 1334.22 2251.43 1335.79 2247.8 1338.93C2240.86 1344.94 2232.96 1349.48 2223.92 1351.91C2222.97 1352.16 2222.02 1352.39 2221.08 1352.57C2217.78 1353.22 2216.13 1353.54 2215.72 1353.92C2215.41 1354.2 2215.48 1354.11 2215.29 1354.48C2215.03 1354.97 2215.19 1357.34 2215.5 1362.07C2215.64 1364.31 2215.12 1366.25 2214.68 1367.6C2214.33 1368.7 2213.83 1369.94 2213.39 1371.03L2213.38 1371.04L2213.38 1371.05C2213.3 1371.25 2213.22 1371.44 2213.15 1371.62L2213.04 1371.88C2193.44 1416.26 2169.92 1457.97 2114.73 1472.82L2113.72 1473.02C2095.51 1475.42 2079.66 1470.55 2066.58 1460.12C2053.7 1449.87 2043.84 1434.53 2036.54 1416.38C2034.75 1411.91 2033.1 1407.24 2031.58 1402.39C2029.99 1397.26 2029.19 1394.69 2027.77 1394.64C2026.35 1394.59 2025.38 1397.07 2023.45 1402.03C2023.4 1402.15 2023.36 1402.27 2023.31 1402.39C2013.16 1428.36 2001.08 1453.5 1987.03 1473.92C1973.07 1494.21 1956.6 1510.66 1937.36 1517.96L1936.47 1518.24C1918.63 1522.67 1902.99 1519.09 1890.01 1509.41C1877.37 1499.97 1867.73 1485.12 1860.43 1467.69C1859.14 1464.61 1857.92 1461.42 1856.75 1458.14C1855.09 1453.47 1854.26 1451.13 1852.89 1451.1C1851.51 1451.07 1850.58 1453.35 1848.72 1457.91C1847.97 1459.77 1847.2 1461.62 1846.41 1463.47C1825.55 1512.63 1794.76 1557.6 1749.47 1569.77C1724.3 1576.54 1702.3 1568.79 1685.5 1554.05C1668.91 1539.49 1657.22 1518.09 1651.41 1496.47C1630.67 1419.34 1649.67 1313.45 1679.08 1243.28C1685.69 1227.45 1696.22 1205.62 1709.86 1186.38C1723.3 1167.43 1740.75 1149.56 1761.63 1143.95C1766.56 1142.62 1770.99 1142.6 1774.87 1142.58C1775.61 1142.58 1776.32 1142.58 1777.02 1142.56L1777.46 1142.57C1787.99 1142.97 1796.72 1145.92 1803.74 1150.99C1810.71 1156.02 1815.53 1162.81 1818.86 1170.18C1825.4 1184.64 1826.61 1202.35 1826.72 1216.87C1827.05 1244.66 1821.07 1289.14 1806.94 1329C1799.87 1348.96 1790.63 1368.12 1778.85 1383.51C1767.07 1398.91 1752.39 1410.98 1734.4 1415.82L1734.35 1415.83C1733.67 1416.01 1733.03 1416.19 1732.41 1416.35C1730.67 1416.8 1729.8 1417.03 1729.38 1417.67C1728.96 1418.3 1729.08 1419.14 1729.31 1420.83C1731.1 1433.6 1734.45 1444.14 1739.21 1451.92C1745.03 1461.45 1752.83 1466.71 1763.09 1467.41C1766.88 1467.3 1770.58 1466.34 1774.07 1465.4C1783.6 1462.84 1792.88 1455.91 1801.71 1445.24C1810.5 1434.62 1818.39 1420.86 1825.26 1405.69C1830.9 1393.24 1835.76 1380.04 1839.83 1367.19C1839.94 1366.84 1839.99 1366.67 1840.02 1366.48C1840.04 1366.3 1840.03 1366.12 1840 1365.74C1839.46 1356.71 1839.16 1347.63 1839.08 1338.63C1838.56 1275.51 1847.48 1165.76 1864.2 1061.91C1872.57 1009.96 1882.91 959.291 1895.07 916.544C1907.07 874.361 1921.1 838.92 1937.32 817.785C1946.5 802.244 1962.81 793.903 1976.62 790.19C1992.91 785.809 2010.54 787.407 2023.5 799.194ZM2437.28 1030.93C2436.69 1030.63 2435.72 1030.36 2433.82 1030.87C2433.83 1030.87 2433.75 1030.89 2433.58 1030.95C2433.41 1031.02 2433.19 1031.11 2432.92 1031.22C2432.79 1031.28 2432.65 1031.35 2432.51 1031.42C2432.4 1031.47 2432.29 1031.52 2432.19 1031.57C2431.85 1031.74 2431.49 1031.93 2431.12 1032.14C2429.72 1032.92 2428.68 1033.65 2428.27 1034.01L2427.58 1034.56C2423.31 1037.57 2418.47 1042.91 2413.31 1050.66C2408.2 1058.32 2403.05 1067.9 2398.01 1078.89C2387.93 1100.87 2378.53 1127.97 2370.89 1155.56C2363.26 1183.13 2357.44 1210.96 2354.46 1234.32C2352.96 1246 2352.19 1256.45 2352.22 1265.11C2352.26 1273.86 2353.12 1280.19 2354.49 1284.07C2356.23 1288.46 2359.33 1293.9 2363.18 1297.67C2367.02 1301.44 2370.43 1302.54 2373.71 1301.66C2377.55 1300.63 2382.86 1296.53 2389.13 1287.73C2395.19 1279.22 2401.31 1267.5 2407.2 1253.47C2418.96 1225.45 2429.34 1189.29 2436.42 1153.88C2443.52 1118.38 2447.17 1084.25 2445.79 1060.19C2445.09 1047.99 2443.14 1039.41 2440.45 1034.55C2439.17 1032.23 2438.02 1031.29 2437.28 1030.93ZM2167.63 1103.27L2167.63 1103.26C2167.64 1103.26 2167.63 1103.27 2167.63 1103.27ZM2166.41 1103.55C2167.23 1103.55 2167.64 1103.55 2168 1103.7C2168.05 1103.72 2168.12 1103.75 2168.17 1103.78C2168.51 1103.96 2168.69 1104.16 2169.03 1104.57C2169.16 1104.71 2169.29 1104.88 2169.44 1105.06C2171.33 1107.47 2173.51 1111.58 2175.66 1117.37C2179.84 1128.63 2183.28 1144.48 2184.91 1161.4C2184.92 1161.54 2184.93 1161.61 2184.93 1161.69C2184.93 1161.76 2184.93 1161.83 2184.92 1161.98C2184.86 1163.13 2184.81 1164.45 2184.76 1165.87L2184.75 1165.93C2184.65 1168.78 2184.52 1172.06 2184.29 1175.21C2184.24 1175.96 2184.21 1176.34 2184.06 1176.67C2183.9 1177.01 2183.61 1177.29 2183.04 1177.84C2168.21 1192.16 2159.76 1214.87 2156.2 1237.85C2152.56 1261.35 2153.77 1286.73 2159.7 1307.07C2159.89 1307.73 2159.98 1308.06 2159.97 1308.38C2159.96 1308.71 2159.84 1309.02 2159.61 1309.64C2153.25 1326.45 2146.41 1340.6 2139.25 1351.15C2131.42 1362.69 2123.96 1368.81 2117.34 1370.59C2116.86 1370.72 2115.8 1370.8 2113.71 1370.26C2111.85 1369.79 2109.84 1369.02 2107.38 1368.05C2107.18 1367.96 2107.07 1367.92 2106.96 1367.86C2106.84 1367.79 2106.78 1367.74 2106.64 1367.64C2104.4 1365.95 2101.72 1362.09 2099.45 1354.68C2097.02 1346.76 2095.48 1336.17 2094.91 1323.54C2093.76 1298.34 2096.51 1266.33 2102.45 1234.33C2108.39 1202.32 2117.44 1170.77 2128.66 1146.38C2134.27 1134.18 2140.31 1124.04 2146.58 1116.57C2152.45 1109.57 2158.12 1105.39 2163.38 1103.63C2163.61 1103.55 2163.73 1103.51 2163.88 1103.49C2163.92 1103.48 2163.99 1103.47 2164.04 1103.46C2164.19 1103.45 2164.32 1103.46 2164.58 1103.47L2164.65 1103.48L2164.66 1103.48C2165.09 1103.5 2165.75 1103.54 2166.41 1103.55ZM1772.12 1201.99C1772.1 1201.91 1772.01 1201.88 1771.94 1201.93C1770.59 1202.93 1768.94 1204.57 1767.04 1207.18C1763.9 1211.52 1760.74 1217.64 1757.64 1225.32C1751.47 1240.65 1746.07 1260.89 1741.6 1282.15C1735.63 1310.55 1731.46 1340.06 1729.26 1360.86C1728.83 1364.91 1728.61 1366.93 1729.99 1367.5C1731.36 1368.08 1732.6 1366.57 1735.07 1363.56C1736.09 1362.32 1737.11 1360.99 1738.12 1359.58C1744.81 1350.25 1750.7 1338.07 1755.69 1324.81C1765.64 1298.38 1771.5 1269.01 1773.22 1252.8C1773.23 1252.53 1773.25 1252.22 1773.28 1251.87L1773.36 1250.65C1773.77 1244.61 1774.67 1231.41 1774.28 1219.24C1774.04 1212.06 1773.36 1206 1772.18 1202.17L1772.15 1202.07L1772.12 1201.99Z" stroke="black" stroke-width="27" stroke-linejoin="bevel"/>
<path fill-rule="evenodd" clip-rule="evenodd" d="M2790.28 868.92C2790.47 871.11 2790.57 872.205 2791.31 872.74C2792.04 873.276 2793.11 873.031 2795.26 872.541C2805.57 870.186 2818.09 867.911 2830.3 867.465C2848.06 866.817 2869.17 869.916 2878.85 887.319L2878.92 887.459C2882.38 893.985 2883.68 903.888 2884.14 914.626C2884.63 925.775 2884.24 939.328 2883.43 954.154C2882.65 968.439 2881.47 984.11 2880.26 1000.2L2880.26 1000.24L2880.11 1002.12C2878.85 1018.92 2877.57 1036.16 2876.66 1052.92C2874.83 1086.69 2874.59 1117.68 2878.81 1138.84C2880.94 1149.53 2883.98 1156.46 2887.44 1160.13C2889.05 1161.84 2890.66 1162.77 2892.37 1163.19C2894.1 1163.62 2896.46 1163.66 2899.69 1162.74C2907.78 1160.3 2916.55 1153.13 2925.5 1141.56C2934.33 1130.15 2942.65 1115.36 2950.1 1099.27C2964.89 1067.32 2975.75 1031.37 2980.29 1009.34C2981.07 999.583 2986.58 992.649 2992.88 990.955C2998.84 989.353 3004.46 991.556 3008.05 994.429C3011.05 996.833 3015.34 1002.15 3013.6 1008.62C3008.42 1039.35 2995.03 1097.4 2974.08 1150.37C2963.56 1176.99 2951 1202.65 2936.41 1223C2921.94 1243.18 2904.74 1259.14 2884.61 1264.55C2868.22 1268.96 2853.91 1267.8 2841.92 1261.26C2830.09 1254.81 2821.59 1243.7 2815.48 1230.28C2803.38 1203.67 2799.47 1165.23 2799.29 1125.08C2799.11 1084.65 2802.75 1041.3 2806.49 1004.2C2807.6 993.16 2808.72 982.731 2809.75 973.112C2812.21 950.078 2814.18 931.683 2814.44 920.618L2814.44 920.52C2814.45 920.406 2814.45 920.302 2814.45 920.208C2814.45 920.13 2814.44 920.059 2814.44 919.994C2814.43 919.804 2814.41 919.665 2814.39 919.57C2814.37 919.486 2814.35 919.431 2814.34 919.401C2814.33 919.382 2814.33 919.369 2814.33 919.363L2814.32 919.36C2814.32 919.358 2814.32 919.357 2814.32 919.356C2814.3 919.336 2814.23 919.273 2814.08 919.181C2813.24 918.671 2811.29 918.119 2807.87 918.065C2804.65 918.015 2801.08 918.409 2797.71 918.898C2796.85 919.023 2796.21 919.741 2796.16 920.607C2795.37 934.682 2793.49 948.25 2791.58 962.055C2790.91 966.854 2790.24 971.682 2789.61 976.57L2789.59 976.722C2788.4 984.743 2786.82 994.662 2785.02 1005.93L2785.02 1005.94L2785.01 1006.03C2780.01 1037.37 2773.36 1079.1 2768.8 1119.37C2765.7 1146.74 2763.61 1173.15 2763.65 1194.88C2763.67 1205.74 2764.23 1215.26 2765.41 1223.05C2766.58 1230.79 2768.28 1236.18 2770.21 1239.46C2770.29 1239.6 2770.33 1239.67 2770.36 1239.73C2770.39 1239.79 2770.42 1239.85 2770.47 1239.97L2771.13 1241.5C2771.18 1241.62 2771.2 1241.67 2771.22 1241.73C2771.24 1241.78 2771.27 1241.87 2771.32 1242.04C2771.57 1242.88 2771.91 1243.52 2772.41 1244.5L2772.43 1244.53C2772.54 1244.74 2772.66 1244.98 2772.79 1245.23C2772.9 1245.45 2773.02 1245.68 2773.14 1245.93C2773.36 1246.37 2773.67 1247.01 2773.92 1247.72C2774.16 1248.38 2774.54 1249.61 2774.53 1251.13C2774.53 1252.85 2774.01 1255.01 2772.36 1256.86C2770.85 1258.55 2769.05 1259.25 2767.9 1259.56L2767.64 1259.63C2766.08 1260.05 2764.17 1260.57 2761.89 1260.67C2759.66 1260.77 2757.43 1260.47 2754.85 1259.96C2741.59 1259.04 2730.68 1253.38 2722.99 1244.48C2722.25 1243.62 2720.85 1243.77 2720.35 1244.78C2699.88 1286.32 2671.41 1321.88 2631.91 1332.5C2606.74 1339.27 2584.74 1331.51 2567.94 1316.77C2551.35 1302.22 2539.66 1280.81 2533.85 1259.2C2513.11 1182.07 2532.11 1076.17 2561.52 1006C2568.13 990.176 2578.66 968.345 2592.3 949.108C2605.74 930.153 2623.19 912.288 2644.07 906.675C2649 905.347 2653.43 905.325 2657.31 905.306H2657.32C2658.05 905.302 2658.76 905.299 2659.46 905.287L2659.9 905.291C2670.43 905.694 2679.16 908.641 2686.18 913.711C2693.15 918.747 2697.97 925.534 2701.3 932.9C2707.84 947.361 2709.05 965.071 2709.16 979.592C2709.49 1007.38 2703.51 1051.87 2689.38 1091.72C2682.31 1111.68 2673.07 1130.84 2661.29 1146.24C2649.51 1161.63 2634.83 1173.7 2616.84 1178.54L2616.79 1178.56C2616.11 1178.74 2615.47 1178.91 2614.85 1179.07C2613.11 1179.53 2612.24 1179.76 2611.82 1180.39C2611.4 1181.02 2611.52 1181.87 2611.75 1183.55C2613.54 1196.32 2616.89 1206.86 2621.65 1214.64C2627.47 1224.17 2635.27 1229.44 2645.53 1230.14C2649.32 1230.03 2653.02 1229.06 2656.51 1228.12C2666.04 1225.56 2675.32 1218.63 2684.15 1207.96C2692.94 1197.34 2700.83 1183.58 2707.7 1168.42C2709.34 1164.8 2710.91 1161.12 2712.42 1157.41C2712.51 1157.17 2712.56 1157.05 2712.59 1156.93C2712.62 1156.8 2712.64 1156.68 2712.67 1156.42C2716.46 1127.37 2723.67 1095.56 2731.29 1063.66C2732.66 1057.91 2734.05 1052.14 2735.44 1046.39L2735.47 1046.24L2735.51 1046.1L2735.51 1046.1C2745.21 1005.85 2754.84 965.874 2759.17 930.226C2759.43 928.008 2759.57 926.898 2758.92 926.216C2758.28 925.534 2757.14 925.607 2754.85 925.754C2734.83 927.037 2719.37 924.505 2708.07 918.685C2693.57 911.22 2686.76 898.768 2686.02 884.9C2685.31 871.533 2690.18 857.253 2697.82 844.597C2705.49 831.899 2716.34 820.136 2728.66 811.707C2735.03 806.971 2740.88 805.401 2745.56 804.143L2745.76 804.09C2752.3 802.33 2758.97 802.316 2765.17 805.256C2771.29 808.16 2775.87 813.432 2779.32 820.119C2784.9 830.921 2788.37 847.111 2790.28 868.92ZM2654.56 964.702C2654.54 964.632 2654.45 964.604 2654.39 964.647C2653.04 965.644 2651.38 967.288 2649.48 969.908C2646.34 974.24 2643.18 980.364 2640.08 988.044C2633.91 1003.37 2628.51 1023.61 2624.04 1044.87C2618.07 1073.28 2613.9 1102.79 2611.7 1123.59C2611.27 1127.63 2611.05 1129.65 2612.43 1130.23C2613.8 1130.8 2615.04 1129.3 2617.51 1126.28C2618.53 1125.04 2619.55 1123.71 2620.56 1122.3C2627.25 1112.97 2633.14 1100.79 2638.13 1087.53C2648.08 1061.1 2653.94 1031.73 2655.66 1015.52C2655.69 1014.97 2655.74 1014.25 2655.8 1013.37C2656.21 1007.33 2657.11 994.138 2656.72 981.966C2656.48 974.784 2655.8 968.719 2654.62 964.891C2654.6 964.826 2654.58 964.763 2654.56 964.702Z" stroke="black" stroke-width="27" stroke-linejoin="bevel"/>
<path fill-rule="evenodd" clip-rule="evenodd" d="M984.296 1063.42C1045.05 1086.55 1102.05 1139.64 1130.77 1246.46C1150.25 1318.91 1150.05 1393.03 1144.3 1454.52C1144.13 1456.42 1144.04 1457.37 1144.56 1458.01C1145.08 1458.64 1146.05 1458.74 1147.98 1458.95C1154.06 1459.58 1160.69 1460.68 1166.97 1462.66C1177.89 1466.1 1189.51 1472.79 1193.93 1486.08L1194.07 1486.52L1195.22 1490.83C1195.27 1491.01 1195.3 1491.11 1195.31 1491.2C1195.33 1491.29 1195.34 1491.39 1195.35 1491.58L1195.51 1493.78C1195.52 1493.97 1195.53 1494.07 1195.53 1494.17C1195.53 1494.27 1195.51 1494.36 1195.49 1494.54C1194.93 1498.78 1193.5 1502.33 1191.2 1505.07C1188.82 1507.92 1185.95 1509.37 1183.48 1510.03C1176 1512.04 1168.34 1513.11 1161.23 1514.1L1161.23 1514.1L1161.01 1514.13C1153.67 1515.15 1146.91 1516.1 1140.44 1517.84L1135.85 1519.07C1134.69 1519.39 1134.11 1519.54 1133.72 1519.96C1133.33 1520.37 1133.21 1520.96 1132.96 1522.15C1114.82 1610.73 1082.04 1689.21 1039.52 1749.84C995.894 1812.06 941.648 1855.96 882.029 1871.99C858.778 1878.24 832.372 1879.47 809.62 1872.13C786.52 1864.68 767.223 1848.34 759.676 1820.27C750.487 1786.1 762.816 1751.2 776.647 1722.44C777.383 1720.91 777.752 1720.14 777.571 1719.43C777.39 1718.73 776.666 1718.21 775.218 1717.18C772.53 1715.25 769.809 1712.94 767.185 1710.09C761.126 1703.51 755.953 1694.49 752.524 1681.74C744.841 1653.17 744.256 1609.17 748.04 1559.22C751.844 1508.98 760.15 1451.79 770.797 1396.29C781.444 1340.8 794.463 1286.84 807.739 1243.07C814.375 1221.19 821.104 1201.75 827.669 1185.9C834.096 1170.38 840.589 1157.74 846.987 1149.64C851.608 1142.81 853.918 1139.39 853.439 1138.36C853.288 1138.04 853.127 1137.84 852.843 1137.62C851.944 1136.93 848.433 1138.32 841.411 1141.1C792.881 1160.31 743.708 1194.88 702.494 1237.24C653.183 1287.92 616.09 1348.9 604.895 1406.48L604.627 1407.49C603.46 1410.95 602.815 1414.62 602.066 1418.99L602.025 1419.23L602.025 1419.23C601.385 1422.97 600.652 1427.25 599.334 1431.53C599.272 1431.73 599.241 1431.83 599.221 1431.93C599.202 1432.02 599.191 1432.12 599.168 1432.33C598.813 1435.58 597.879 1441.65 596.77 1447.38C596.097 1450.86 595.313 1454.46 594.48 1457.47C594.065 1458.97 593.603 1460.45 593.09 1461.77C592.729 1462.69 592.103 1464.19 591.085 1465.55L591.029 1465.64C590.815 1465.96 590.53 1466.36 590.167 1466.82C589.505 1467.67 588.578 1468.72 587.349 1469.85C587.189 1470 587.11 1470.07 587.008 1470.15C586.907 1470.22 586.802 1470.27 586.593 1470.39L584.24 1471.66C584.029 1471.77 583.923 1471.83 583.8 1471.87C583.678 1471.92 583.578 1471.94 583.378 1471.99C576.422 1473.64 569.565 1470.19 564.559 1466.68C558.989 1462.77 553.347 1457.1 548.191 1450.81C537.944 1438.32 528.397 1421.85 524.718 1408.17C516.778 1378.64 521.607 1347.88 530.061 1321.74C538.532 1295.54 550.881 1273.24 558.911 1260.18C619.628 1158.33 729.3 1082.94 821.226 1058.22C861.324 1047.44 924.054 1040.48 984.296 1063.42ZM925.044 1124.95C922.398 1124.81 921.074 1124.73 920.77 1124.81C919.251 1125.21 918.743 1126.94 919.803 1128.1C920.015 1128.33 921.269 1129.04 923.776 1130.47C923.861 1130.52 923.904 1130.55 923.943 1130.57C924.113 1130.68 924.27 1130.82 924.4 1130.97C924.43 1131.01 924.458 1131.04 924.514 1131.11L927.389 1134.85C927.631 1135.17 927.752 1135.33 927.839 1135.5C927.926 1135.68 927.978 1135.87 928.081 1136.25L928.837 1139.07C928.983 1139.61 929.057 1139.88 929.053 1140.16C929.049 1140.44 928.968 1140.71 928.806 1141.25L927.075 1147.03C926.93 1147.52 926.858 1147.76 926.73 1147.97C926.71 1148.01 926.689 1148.04 926.667 1148.07C926.528 1148.28 926.339 1148.45 925.961 1148.78C925.771 1148.95 925.676 1149.03 925.592 1149.13C925.579 1149.14 925.566 1149.16 925.554 1149.18C925.473 1149.27 925.407 1149.38 925.277 1149.59C911.918 1170.92 899.989 1202.67 889.573 1241.38C878.973 1280.78 870.088 1326.8 862.804 1375.22C850.177 1459.17 842.42 1549.96 838.838 1625.24C838.617 1629.89 838.507 1632.21 839.797 1632.75C841.088 1633.29 842.679 1631.57 845.861 1628.13C906.735 1562.37 984.008 1505.92 1056.28 1476.19C1057.29 1475.77 1057.8 1475.56 1058.12 1475.15C1058.45 1474.75 1058.53 1474.21 1058.71 1473.15C1068.94 1410.3 1068.74 1328.04 1049.32 1255.82C1030.21 1184.73 999.528 1150.48 967.603 1135.38C953.778 1128.85 939.374 1125.73 925.044 1124.95ZM834.246 1787.13C834.072 1788.36 833.985 1788.98 834.309 1789.56C834.633 1790.15 835.172 1790.39 836.248 1790.87C846.199 1795.31 858.052 1793.22 870.016 1790C907.217 1780 942.882 1749.18 973.432 1705.02C998.393 1668.94 1019.51 1624.56 1034.93 1577.02C1036.41 1572.44 1037.15 1570.15 1035.98 1569.29C1034.8 1568.44 1032.85 1569.86 1028.96 1572.69C1000.05 1593.72 960.632 1625.06 924.677 1659.36C900.039 1682.86 877.24 1707.55 860.58 1731.1C845.838 1751.94 836.521 1771.04 834.246 1787.13Z" stroke="black" stroke-width="27" stroke-linejoin="bevel"/>
<path fill-rule="evenodd" clip-rule="evenodd" d="M1612.17 1191.36C1621.47 1193.1 1628.66 1197.99 1633.76 1205.12C1638.77 1212.14 1641.56 1221.02 1642.96 1230.59C1645.75 1249.65 1643.35 1273.85 1638.94 1298.26C1632.82 1332.1 1622.26 1368.75 1614.73 1394.91L1614.73 1394.94L1614.72 1394.96C1611.79 1405.14 1609.31 1413.73 1607.74 1419.94C1607.65 1420.29 1607.61 1420.46 1607.6 1420.64C1607.58 1420.82 1607.6 1420.99 1607.64 1421.35C1610.21 1443.99 1615.89 1471.93 1626.96 1488.88C1627.05 1489.01 1627.1 1489.08 1627.14 1489.15C1627.17 1489.22 1627.21 1489.29 1627.27 1489.44L1628.04 1491.14C1628.11 1491.29 1628.14 1491.36 1628.17 1491.44C1628.19 1491.51 1628.21 1491.59 1628.26 1491.75C1628.27 1491.8 1628.28 1491.85 1628.3 1491.89L1628.31 1491.94C1628.8 1493.77 1629.36 1495.83 1629.52 1497.43C1629.6 1498.29 1629.76 1500.47 1628.6 1502.75C1627.16 1505.59 1624.68 1506.77 1623.04 1507.21C1614.03 1509.63 1604.33 1507.11 1596.51 1503.55C1594.72 1502.74 1592.96 1501.84 1591.25 1500.87C1588.95 1499.58 1587.81 1498.93 1586.91 1499.31C1586.01 1499.68 1585.67 1500.91 1584.98 1503.36C1578.86 1525.35 1568.96 1551.39 1555.82 1574.87C1539.11 1604.74 1516.01 1632.55 1487.03 1640.34C1476.27 1643.23 1465.9 1644 1456.13 1640.7C1446.28 1637.38 1438.16 1630.31 1431.18 1619.77C1424.11 1609.44 1418.4 1596.29 1413.86 1581.24C1413.62 1580.44 1413.5 1580.05 1413.42 1579.89C1412.7 1578.48 1410.82 1578.38 1409.96 1579.7C1409.86 1579.85 1409.7 1580.23 1409.38 1580.98C1388.51 1630.14 1357.73 1675.11 1312.43 1687.29C1287.27 1694.05 1265.27 1686.3 1248.46 1671.56C1231.87 1657 1220.19 1635.6 1214.38 1613.99C1193.64 1536.86 1212.64 1430.96 1242.05 1360.79C1248.65 1344.97 1259.18 1323.13 1272.83 1303.9C1286.27 1284.94 1303.72 1267.08 1324.59 1261.46C1329.53 1260.14 1333.96 1260.11 1337.84 1260.1C1338.27 1260.09 1338.7 1260.09 1339.12 1260.09C1339.41 1260.08 1339.7 1260.08 1339.99 1260.08L1340.42 1260.08C1350.96 1260.48 1359.68 1263.43 1366.71 1268.5C1373.68 1273.54 1378.5 1280.32 1381.83 1287.69C1388.36 1302.15 1389.58 1319.86 1389.68 1334.38C1390.02 1362.17 1384.03 1406.65 1369.91 1446.51C1362.84 1466.47 1353.6 1485.63 1341.82 1501.02C1330.03 1516.42 1315.36 1528.49 1297.37 1533.33L1297.31 1533.34C1296.64 1533.53 1296 1533.7 1295.38 1533.86C1293.64 1534.32 1292.77 1534.55 1292.35 1535.18C1291.93 1535.81 1292.04 1536.65 1292.28 1538.34C1294.07 1551.11 1297.42 1561.65 1302.18 1569.43C1308 1578.96 1315.79 1584.23 1326.06 1584.93C1329.85 1584.82 1333.54 1583.85 1337.04 1582.91C1346.57 1580.35 1355.84 1573.42 1364.68 1562.75C1373.47 1552.13 1381.36 1538.37 1388.23 1523.21C1392.52 1513.74 1396.36 1503.83 1399.74 1493.98C1399.86 1493.62 1399.92 1493.43 1399.95 1493.24C1399.98 1493.05 1399.97 1492.85 1399.94 1492.46C1398.38 1465.12 1398.63 1436.4 1400.39 1408.53C1402.95 1368.06 1408.75 1329.09 1417.07 1298.53C1421.22 1283.26 1426.07 1269.84 1431.61 1259.3C1436.77 1249.46 1443.07 1241.09 1450.88 1236.73C1451.01 1236.66 1451.08 1236.62 1451.14 1236.59C1451.19 1236.55 1451.26 1236.5 1451.39 1236.4C1453.17 1235.1 1455.07 1234.26 1456.52 1233.71C1458.31 1233.03 1460.09 1232.56 1461.22 1232.25L1461.31 1232.23C1476.33 1228.19 1490.87 1231.21 1500.95 1237.47C1505.96 1240.58 1510.28 1244.76 1512.78 1249.74C1515.36 1254.89 1516.02 1261.07 1513.09 1266.94L1512.08 1268.47C1509.55 1271.49 1506.24 1278.24 1502.65 1288.91C1499.17 1299.26 1495.71 1312.39 1492.51 1327.33C1486.1 1357.2 1480.8 1393.78 1478.26 1428.77C1475.7 1463.9 1475.98 1496.79 1480.41 1519.55C1482.65 1531.07 1485.78 1538.96 1489.3 1543.34C1490.97 1545.42 1492.51 1546.45 1493.86 1546.91C1495.16 1547.36 1496.88 1547.51 1499.34 1546.8L1499.49 1546.76C1504.12 1545.51 1509.74 1541.35 1515.97 1533.66C1522.04 1526.16 1527.99 1516.16 1533.5 1504.83C1543.9 1483.41 1552.26 1458.22 1556.83 1438.55C1556.96 1438 1557.02 1437.72 1557.01 1437.44C1556.99 1437.16 1556.9 1436.89 1556.71 1436.34C1546.28 1406.19 1540.3 1351.33 1543.32 1301.77C1544.9 1275.96 1548.95 1250.94 1556.43 1231.17C1563.79 1211.72 1575.28 1195.31 1593.06 1190.53C1599.49 1188.8 1604.79 1189.29 1612.17 1191.36ZM1335.09 1319.5C1335.07 1319.42 1334.98 1319.4 1334.91 1319.44C1333.56 1320.44 1331.9 1322.08 1330.01 1324.7C1326.87 1329.03 1323.71 1335.15 1320.61 1342.83C1314.44 1358.16 1309.04 1378.4 1304.57 1399.66C1298.6 1428.06 1294.43 1457.58 1292.22 1478.38C1291.8 1482.42 1291.58 1484.44 1292.95 1485.02C1294.33 1485.59 1295.56 1484.08 1298.04 1481.07C1299.06 1479.83 1300.07 1478.5 1301.09 1477.09C1307.77 1467.76 1313.67 1455.58 1318.66 1442.32C1328.61 1415.89 1334.46 1386.52 1336.18 1370.31C1336.2 1370.09 1336.21 1369.83 1336.23 1369.54C1336.26 1369.14 1336.29 1368.68 1336.33 1368.16V1368.16C1336.74 1362.12 1337.64 1348.93 1337.24 1336.76C1337.01 1329.57 1336.33 1323.51 1335.15 1319.68C1335.13 1319.62 1335.11 1319.56 1335.09 1319.5Z" stroke="black" stroke-width="27" stroke-linejoin="bevel"/>
<defs>
<linearGradient id="paint0_linear_339_30" x1="1514" y1="13.9863" x2="1514" y2="1877.17" gradientUnits="userSpaceOnUse">
<stop stop-color="#222222"/>
<stop offset="1" stop-color="#151515"/>
</linearGradient>
<linearGradient id="paint1_linear_339_30" x1="1514" y1="13.9863" x2="1514" y2="1877.17" gradientUnits="userSpaceOnUse">
<stop stop-color="#222222"/>
<stop offset="1" stop-color="#151515"/>
</linearGradient>
<linearGradient id="paint2_linear_339_30" x1="1514" y1="13.9863" x2="1514" y2="1877.17" gradientUnits="userSpaceOnUse">
<stop stop-color="#222222"/>
<stop offset="1" stop-color="#151515"/>
</linearGradient>
<linearGradient id="paint3_linear_339_30" x1="1514" y1="13.9863" x2="1514" y2="1877.17" gradientUnits="userSpaceOnUse">
<stop stop-color="#222222"/>
<stop offset="1" stop-color="#151515"/>
</linearGradient>
<linearGradient id="paint4_linear_339_30" x1="1514" y1="13.9863" x2="1514" y2="1877.17" gradientUnits="userSpaceOnUse">
<stop stop-color="#222222"/>
<stop offset="1" stop-color="#151515"/>
</linearGradient>
<linearGradient id="paint5_linear_339_30" x1="1514" y1="13.9863" x2="1514" y2="1877.17" gradientUnits="userSpaceOnUse">
<stop stop-color="#222222"/>
<stop offset="1" stop-color="#151515"/>
</linearGradient>
</defs>
</svg>
