<?xml version="1.0" encoding="UTF-8"?>
<svg id="Layer_2" data-name="Layer 2" xmlns="http://www.w3.org/2000/svg" viewBox="0 0 1209.41 675.46">
  <defs>
    <style>
      .cls-1, .cls-2 {
        fill: #f5f5f5;
      }

      .cls-2 {
        fill-rule: evenodd;
      }
    </style>
  </defs>
  <g id="Layer_1-2" data-name="Layer 1">
    <g>
      <g>
        <g>
          <path class="cls-2" d="M258.75,618.74c-1.31-1.36-3.77-2.8-6.8-2.04-1.5,.38-2.72,.35-3.48,.14-.53-.15-.73-.33-.88-.58-6.74-16.87-10.16-46.87-10.44-84.52-.18-24.16,.94-51.16,3.15-79.26l-.22-.02s.4-3.94,1.08-10.35c.91-10.43,1.97-20.98,3.17-31.58,.1-.89,.15-1.34,.41-1.67,2.82-25.38,6.25-54.47,8.34-65.41,1.19-6.24,2.72-14.12,4.29-22.11,5.99-32.79,12.78-63.99,20.1-90.93,5.13-18.91,10.5-35.63,15.99-49.28,5.22-12.98,10.4-22.83,15.38-29.17,.44-.56,.66-.85,.74-1.16,.07-.31,0-.65-.13-1.33l-1.23-6.07c-.14-.69-.21-1.03-.42-1.31-.21-.27-.52-.42-1.13-.71-8.97-4.31-18.58-5.98-27.63-3.72-16.46,4.12-30.53,20.45-36.94,41.44-8.6,24.82-34.2,101.84-53.59,186.31l-13.64,75.49-.19-.03c-7.84,49.53-10.99,97.01-4.25,133.15,3.98,21.33,11.53,39.43,24.32,51.54,13.01,12.32,30.69,17.73,53.24,15.02l.71-.14c1.54-.38,3.65-1.27,5.51-2.58,1.24-.88,3.22-2.53,4.25-5.03,.1-.26,.15-.38,.2-.46,.04-.08,.11-.18,.26-.38,1.92-2.67,2.63-5.7,2.15-8.53-.28-1.63-1-3.36-2.32-4.73Z"/>
          <path class="cls-2" d="M432,215.63c-8.07,33.45-22.13,65.08-43,92-3.25,4.19-9.5,12.12-17,20-8.54,8.97-18.45,17.9-23,22-10.59,9.54-36.91,28-36.91,28-4.51,1.2-36.62,19.39-71,31-27.48,9.28-57.12,12.54-70,13-7.06,.25-15.99-.04-22-6-4.39-4.35-5.87-10.38-7-15-1.4-5.71-2.6-10.61,0-14,1.69-2.2,5.46-2.97,13-4,22-3,31.08-6.6,57-16,21.73-7.88,43.65-18.43,46-20,0,0,45-28,80.27-66.6,15.34-16.79,26.64-37.4,36.64-59.4,8.27-18.2,13.41-38.32,15-56.88,1.76-20.58-1-40.01-9.58-56.4-8.53-16.3-23.03-30.05-45.58-39.03h-.01c-28.25-11.33-63.07-12.49-99.35-3.41-94.83,23.74-190.56,108.54-178.66,223.46,.08,.82,.12,1.22-.02,1.57-.15,.35-.47,.6-1.09,1.09l-5.15,4.04c-.63,.5-.95,.75-1.33,.81-.39,.06-.76-.09-1.49-.37-23.76-9.22-38.8-27.65-44.78-50.92-6.05-23.57-2.77-51.81,9.33-80.51C36.51,106.62,96.55,46.11,192.9,14.07l.42-.12,23.34-5.84c63.9-16,115.36-7.3,152.71,17.21,37.31,24.48,59.8,64.25,66.72,108.93v.02c3.59,23.62,2.49,54.09-4.09,81.36Z"/>
          <g>
            <path class="cls-1" d="M495.5,410.31l-.56-21.4"/>
            <path class="cls-1" d="M494.45,389.64c0,.27,0,.4-.02,.53-.03,.13-.07,.26-.16,.5-3.12,8.63-6.72,17.01-10.98,24.8-11.19,20.43-26.67,36.23-49.67,41.99-20.1,5.03-42.49-2.33-65.36-18.54-20.54-14.57-41.11-36.21-59.16-60.01,0,0-1-1-.88-2.05l-48.12,22.05c19.9,35.09,46.1,71.18,73.75,95.18,29.4,25.52,62.98,40.53,97.61,31.86,30.8-7.71,51.78-34.17,66.39-64.79,1.5-3.14,2.25-4.71,3.23-4.66"/>
            <path class="cls-1" d="M49.24,293.29c.39-.06,.7-.31,1.34-.8l-2.83,.43c.74,.29,1.1,.43,1.49,.37Z"/>
          </g>
        </g>
        <g>
          <g>
            <path class="cls-1" d="M692.66,310.37c.07-.21,.11-.32,.13-.43l-.13,.43Z"/>
            <path class="cls-1" d="M675.97,348.2c-.77,1.06-75.82,118.99-76.61,120.04l-2.1,2.8c-14.86,19.89-29.62,39.64-42.3,58.34-14.26,21.03-26.17,41.11-32.71,58.94-8.78,19.31-9.61,39.37-3.4,55.53,6.27,16.32,19.73,28.46,38.62,31.05,2.61,.42,5.25,.56,7.87,.51l23.62-121.21c.58-2.47,2-8.89,2-10m-35.36,73.78c-1.29,.32-2.54,.46-3.54,.43-.04,0-.08,0-.12,0-.08,0-.14-.05-.16-.12-.83-2.52-.91-6.18,.34-11.44,1.57-6.59,5-14.71,10.07-24.21,5.22-9.8,11.99-20.73,19.8-32.55,3.23-4.91,4.85-7.36,5.98-6.86,1.13,.49,.45,3.34-.93,9.04-2.91,12.06-6.03,23.12-9.42,32.66-3.53,9.93-7.25,17.94-11.17,23.68-3.98,5.82-7.66,8.59-10.86,9.39Z"/>
            <path class="cls-1" d="M588.97,544.2c13.16-19.93,63.6-87.83,73-106,1.64-3.18,34.21-60.54,35.22-60.43l-4.66-67.83c-.03,.16-30.51,70.89-30.59,71.04"/>
            <path class="cls-1" d="M565.79,675.4c.31,0,.61-.02,.92-.03-.31,.01-.61,.02-.92,.03Z"/>
          </g>
          <path class="cls-2" d="M689.65,160.81c-1.55-3.87-4.66-7.24-8.23-9.82-7.17-5.18-18.08-8.5-29.07-5.75-10.07,2.52-16.34,10.09-20.33,17.93-3.98,7.82-6.16,16.79-7.67,23.61-2.33,10.47-16.25,62.71-32.31,113.05-8.03,25.16-16.54,49.68-24.35,68.18-3.91,9.28-7.57,16.86-10.84,22.21-1.63,2.68-3.06,4.63-4.26,5.92-.11,.12-.22,.24-.33,.34-.25,.26-.68,.18-.81-.16-.43-1.04-.9-2.47-1.39-4.41-4.51-21.68-3.2-63.62,3.13-104.94,3.15-20.58,7.51-40.73,12.88-57.83,5.35-17.04,11.54-30.45,18.12-38.34,1-.98,1.66-2.28,1.84-3.76,.19-1.64-.29-2.96-.63-3.69-.68-1.45-1.77-2.6-2.61-3.37-1.83-1.69-4.48-3.39-7.54-4.81-6.13-2.83-15.07-5.01-24.49-2.65l-6.05,1.52-1.51,.61c-14.36,8.37-25.02,27.41-32.87,50.11-7.98,23.07-13.54,51.36-16.78,80.11-2.53,22.43-3.65,45.27-3.38,66.29l.56,21.4c2,14,3,29,11.33,56.53l.03,.05c4.08,8.39,9.4,15.23,16.53,19.27,7.28,4.13,15.71,4.95,25.09,2.6,12.81-3.2,23.43-14.28,32.15-27.86,8.86-13.81,16.5-31.36,22.94-49.45,3.46-9.72,6.6-19.68,9.41-29.39,.15-.52,.92-.42,.93,.13v.19c.11,8.69,.21,17.06-.4,25.13-1.79,12.49-3.07,27.31-4.44,43.1-.82,9.48-1.68,19.32-2.69,29.22l.03,.11-.09,.53c-.03,.33-.06,.66-.1,.99-.04,.4-.06,.6-.14,.78-.02,.06-.06,.13-.1,.19l-13.5,80.01c0,1.11-.36,2.87-.94,5.34l-22.32,125.45c5.18-.08,10.33-.93,15.19-2.14,34.51-8.64,53.08-42.34,63.63-84.77,10.48-42.15,13.66-95.33,15.4-148.19,.01-.41,.02-.62,.08-.82,.06-.19,.18-.37,.41-.71l-.29-58.49c.09-4.13,.18-8.22,.26-12.26v-.1c.35-16.93,.68-33.06,1.32-48.04,1.61-35.75,3.91-68.42,8.2-94.3,2.14-12.94,4.75-23.99,7.93-32.8,3.22-8.9,6.84-14.98,10.7-18.49l.47-.48c3.49-4.03,3.58-8.94,1.92-13.05Z"/>
        </g>
      </g>
      <path class="cls-2" d="M930.57,244.89c0,.22,0,.33-.03,.44-.02,.11-.05,.21-.12,.42-3.86,11.86-8.72,24.83-14.32,37.08-5.66,12.37-11.98,23.8-18.71,32.6-6.83,8.94-13.5,14.39-19.62,16.11-2.62,.72-4.49,.2-6.3-1.35-2.12-1.82-4.3-5.26-6.18-10.67-3.73-10.74-5.45-26.81-5.14-44.76,.31-17.84,2.63-37.02,6.62-53.74,4.05-16.94,9.64-30.55,16.01-37.96l.57-.79c2.74-4.57,1.71-9.37-.59-12.95-2.2-3.41-5.75-6.21-9.65-8.28-7.83-4.16-18.96-6.43-29.62-3.77-2.63,.66-5.25,1.55-7.76,2.67-1.82,.81-2.74,1.21-3.37,.89-.63-.33-.82-1.28-1.19-3.19-3.14-15.86-9.97-27.23-19.05-34.5-11.67-9.34-26.19-11.18-38.9-8-5.72,1.43-12.14,4.04-17.48,7.44l-.36,.24c-20.41,15.24-35.74,43.56-46.32,76.04-10.65,32.69-16.8,70.55-18.23,105.98-.08,2.04-.15,4.08-.2,6.11,0,.23,0,.34-.03,.45-.02,.11-.06,.22-.13,.43-1.6,4.66-3.26,9.33-4.96,13.96,3.53-8.21,6-13.96,6.01-14l4.66,67.83s-.15,.11-.31,.31c.49,.82,.88,2.35,1.47,4.66,1.14,4.52,2.44,8.8,3.88,12.8,4.27,11.84,10.07,21.82,17.79,28.23,8,6.63,17.76,9.15,28.76,6.4,10.7-2.68,19.67-10.56,27.12-20.28,7.52-9.8,13.99-22.13,19.51-34.83,4.45-10.25,8.36-20.94,11.73-31.01,1.51-4.5,2.27-6.76,3.38-6.7,1.11,.05,1.65,2.38,2.73,7.04,2.66,11.44,6.11,21.85,10.53,30.48,4.54,8.88,10.33,16.33,17.77,20.93,7.62,4.71,16.49,6.11,26.34,3.65,14.68-3.67,27.39-15.11,38.19-29.66,10.89-14.67,20.4-33.26,28.46-52.59,.19-.45,.38-.9,.56-1.34,.07-.17,.31-.14,.34,.04m-242.78-5.5l.13-.43c-.02,.11-.06,.22-.13,.43Zm117.37-94.86c-.85,3.68-1.78,6.88-2.5,9.15-.36,1.13-.66,2.03-.87,2.64-.04,.13-.08,.24-.12,.34-.03,.08-.06,.15-.08,.22l-.02,.06-.03,.06c-.03,.07-.05,.12-.06,.16h0s-.02,.04-.02,.04h0s-.12,.34-.12,.34c-8.3,27.29-18.66,58.88-28.85,84.07-5.1,12.62-10.09,23.45-14.68,31.28-2.3,3.93-4.4,6.92-6.24,8.98-.04,.04-.07,.08-.11,.12-.89,.97-1.33,1.46-2.16,1.28-.83-.18-1.03-.82-1.44-2.09-.21-.66-.43-1.42-.64-2.29l-.02-.07c-8.17-30.87-3.4-79.21,6.99-121.19,5.16-20.87,11.61-39.77,18.28-53.75,3.34-7,6.65-12.58,9.75-16.51,3-3.79,5.28-5.39,6.67-5.88,.05-.02,.11-.01,.15,.01,.03,.01,.05,.03,.08,.04,.54,.32,1.41,1.06,2.54,2.47,2.24,2.83,4.58,7.18,6.8,12.26,4.31,9.86,7.57,21.04,8.58,24.97,1.07,7.06-.16,15.84-1.88,23.28Z"/>
    </g>
    <path class="cls-2" d="M991.09,217.32c-1-31,1.98-90.11,2.88-98.79,2.9-27.87,6.18-52.01,8.74-63.56,1.31-5.05-1.89-8.87-4.41-10.88-2.74-2.18-6.44-3.81-10.29-4.95-7.74-2.29-17.93-3.11-26.9-.87-3.51,.88-7.41,2.38-10.72,5.31-3.4,3.01-5.76,7.17-6.73,12.62-6.64,32.72-12.92,79.54-15.51,126.35-.62,11.16-1.03,22.35-1.18,33.38,0,.22,0,.33-.03,.44-.02,.1-.05,.2-.1,.37l3.83,71.9c.08,0,.16,.05,.18,.15,1.1,7.49,2.46,14.55,4.09,21.08l.12,.41c3.92,11.87,9.35,21.95,17.97,28.01,8.9,6.25,20.07,7.48,33.67,4.08l.55-.17c2.09-.75,4.1-1.52,5.75-2.42,1.72-.94,3.52-2.25,4.78-4.35s1.57-4.31,1.58-6.26c.01-1.87-.26-3.98-.58-6.18"/>
    <g>
      <path class="cls-2" d="M991.09,248.32l8.74,85.15c-.31-31.41,7.46-70.06,18.8-108.57,7.82-26.56,17.26-52.77,26.66-76.07,2.46-6.09,3.69-9.13,4.9-8.86,1.22,.27,1.04,3.56,.7,10.15-1.4,26.55-2.19,58.78-.02,88.74,1.97,27.28,6.45,53.45,15.62,71.83,4.61,9.24,10.64,16.97,18.57,21.68,8.09,4.81,17.59,6.15,28.3,3.6l.2-.05c10.64-2.93,20.71-10.93,29.98-21.8,9.34-10.97,18.28-25.39,26.53-42.1,16.5-33.43,30.52-76.69,39.23-121.52l.11-1.1c0-3.69-1.83-7.17-4.26-9.5-2.5-2.41-6.51-4.38-11.14-3.23-4.66,1.17-8.8,6.2-9.5,13.36-3.43,15.28-11.26,41.48-21.99,65.35-5.4,12.03-11.46,23.28-17.95,32.19-6.47,8.89-12.93,14.86-19.06,17.42-1.78,.5-2.99,1.15-3.86,1.65-.08,.05-.16,.09-.22,.13-.18,.1-.38,.11-.56,.04-.04-.01-.07-.02-.1-.03l-1.83-.41h-.03c-1.9-.46-4.22-2.16-6.56-6.72-2.32-4.53-4.19-11.02-5.55-19.24-2.71-16.38-3.18-38.14-2.3-61.09,1.72-44.91,8.55-92.94,12.78-111.03,.04-.17,.06-.26,.09-.35,.04-.09,.08-.18,.18-.37,.9-1.73,1.44-3.29,1.8-4.5,.11-.36,.21-.7,.29-.97l.02-.06c.08-.26,.13-.44,.18-.61,.02-.07,.03-.11,.06-.16,0-.01,0-.04,.02-.05,.02-.05,.04-.09,.09-.18h0c1.11-2.44,.78-4.87,.23-6.57-.57-1.75-1.55-3.36-2.64-4.76-2.19-2.82-5.44-5.57-9.3-7.83-7.74-4.54-18.91-7.65-31.04-4.61-12.94,3.24-24.57,14.77-34.68,29.02-10.3,14.51-19.84,33.01-28.27,52.09-4.38,9.91-24.44,52.07-28.21,61.95m133.8-119.05c-.04,.08-.1,.2-.18,.34l.18-.34Zm1.97,205.93l-.08-.03h.03s.04,.02,.06,.02c.07,.02,.06,.04-.01,0Z"/>
      <path class="cls-2" d="M934.08,323.43c-.28-1.65-.54-3.31-.79-5.01,0-.02-.02-.02-.02-.04,.26,1.7,.53,3.39,.81,5.04Z"/>
    </g>
  </g>
</svg>