<?xml version="1.0" encoding="UTF-8"?>
<svg id="Layer_2" data-name="Layer 2" xmlns="http://www.w3.org/2000/svg" viewBox="0 0 2208 1371.25">
  <defs>
    <style>
      .cls-1 {
        fill: #050404;
        fill-rule: evenodd;
      }
    </style>
  </defs>
  <g id="Layer_1-2" data-name="Layer 1">
    <g>
      <path class="cls-1" d="m369.37,25.32c37.31,24.48,59.8,64.25,66.72,108.93v.02c12.8,84.17-28.28,184.72-125.75,243.34-1.33.8-2,1.2-2.12,1.84-.12.65.34,1.25,1.26,2.47,18.05,23.8,38.24,45.02,58.78,59.59,22.86,16.21,45.25,23.58,65.36,18.54,23-5.76,38.48-21.56,49.67-41.99,4.27-7.79,7.86-16.17,10.98-24.8.09-.25.14-.37.16-.5.02-.13.02-.27.02-.53-.27-21.02.86-43.86,3.38-66.29,3.24-28.74,8.8-57.04,16.78-80.11,7.85-22.7,18.51-41.74,32.87-50.11l1.51-.61,6.05-1.52c9.42-2.36,18.36-.18,24.49,2.65,3.06,1.41,5.7,3.12,7.54,4.81.84.77,1.93,1.92,2.61,3.37.34.73.82,2.05.63,3.69-.18,1.47-.84,2.78-1.84,3.76-6.59,7.89-12.77,21.3-18.12,38.34-5.37,17.1-9.72,37.25-12.88,57.83-6.33,41.32-7.64,83.26-3.13,104.94.49,1.94.96,3.37,1.39,4.41.14.34.56.42.81.16.11-.1.22-.22.33-.34,1.2-1.29,2.63-3.24,4.26-5.92,3.26-5.35,6.92-12.93,10.84-22.21,7.81-18.51,16.32-43.02,24.35-68.18,16.06-50.33,29.99-102.58,32.31-113.05,1.51-6.82,3.69-15.78,7.67-23.61,3.99-7.84,10.26-15.41,20.33-17.93,10.99-2.75,21.9.57,29.07,5.75,3.57,2.58,6.68,5.95,8.23,9.82,1.65,4.11,1.57,9.03-1.92,13.05l-.47.48c-3.86,3.51-7.48,9.59-10.7,18.49-3.19,8.81-5.79,19.86-7.93,32.8-4.29,25.88-6.59,58.55-8.2,94.3-.64,14.98-.97,31.11-1.31,48.04v.1c-.09,4.04-.17,8.13-.26,12.26-.03,1.25,1.57,1.76,2.24.7.09-.14.14-.29.17-.45.6-3.08,2.11-5.72,4.45-7.76.26-.23.39-.34.47-.45.09-.11.16-.24.29-.5,9.39-18.13,17.92-39.82,25.34-61.44.07-.21.11-.32.13-.43.02-.11.02-.23.03-.45.06-2.03.12-4.07.2-6.11,1.43-35.43,7.58-73.29,18.23-105.98,10.59-32.48,25.91-60.79,46.32-76.04l.36-.24c5.33-3.39,11.75-6,17.48-7.44,12.71-3.18,27.23-1.34,38.9,8,9.08,7.27,15.91,18.64,19.05,34.5.38,1.91.57,2.86,1.19,3.19.63.33,1.54-.08,3.37-.89,2.51-1.12,5.13-2.01,7.76-2.67,10.66-2.67,21.79-.4,29.62,3.77,3.9,2.07,7.46,4.87,9.65,8.28,2.3,3.57,3.33,8.38.59,12.95l-.57.79c-6.37,7.41-11.96,21.02-16.01,37.96-3.99,16.73-6.31,35.9-6.62,53.74-.32,17.95,1.41,34.02,5.14,44.76,1.88,5.4,4.06,8.85,6.18,10.67,1.8,1.55,3.68,2.07,6.3,1.35,6.11-1.71,12.79-7.17,19.62-16.11,6.73-8.79,13.05-20.23,18.71-32.6,5.6-12.26,10.46-25.22,14.32-37.08.07-.21.1-.31.12-.42.02-.11.02-.22.03-.44.15-11.03.56-22.22,1.18-33.38,2.59-46.81,8.87-93.64,15.51-126.35.97-5.45,3.33-9.62,6.73-12.62,3.31-2.93,7.21-4.43,10.72-5.31,8.97-2.24,19.16-1.42,26.9.87,3.85,1.14,7.55,2.77,10.29,4.95,2.52,2,5.72,5.82,4.41,10.88-2.55,11.55-5.83,35.69-8.74,63.56-.9,8.68-1.35,13.01-.1,13.31,1.26.3,2.82-3.8,5.94-11.98,3.77-9.88,7.87-20,12.25-29.91,8.43-19.07,17.97-37.58,28.27-52.09,10.11-14.25,21.74-25.78,34.68-29.02,12.13-3.04,23.3.07,31.04,4.61,3.86,2.26,7.11,5.01,9.3,7.83,1.09,1.4,2.06,3.01,2.64,4.76.55,1.71.89,4.13-.23,6.57h0c-.05.09-.07.13-.09.18-.01.01-.01.04-.02.05-.03.05-.04.09-.06.16-.05.16-.1.35-.18.61l-.02.06c-.08.28-.18.61-.29.97-.37,1.21-.9,2.77-1.8,4.5-.1.19-.15.28-.18.37-.03.09-.05.17-.09.35-4.23,18.09-11.05,66.13-12.78,111.03-.88,22.95-.41,44.71,2.3,61.09,1.36,8.22,3.23,14.71,5.55,19.24,2.34,4.56,4.65,6.26,6.56,6.71h.03s1.83.41,1.83.41c.03,0,.07.02.1.03.18.07.39.06.56-.04.07-.04.14-.08.22-.13.87-.5,2.08-1.15,3.86-1.65,6.13-2.55,12.6-8.53,19.06-17.42,6.49-8.92,12.54-20.17,17.95-32.19,10.73-23.86,18.56-50.06,21.99-65.35.7-7.17,4.84-12.2,9.5-13.36,4.63-1.16,8.64.82,11.14,3.23,2.42,2.33,4.25,5.82,4.26,9.5l-.11,1.1c-8.71,44.83-22.73,88.08-39.23,121.52-8.25,16.71-17.2,31.13-26.53,42.1-9.26,10.88-19.34,18.87-29.98,21.8l-.2.05c-10.71,2.55-20.21,1.22-28.3-3.6-7.93-4.72-13.96-12.44-18.57-21.68-9.17-18.38-13.64-44.55-15.62-71.83-2.17-29.96-1.38-62.19.02-88.74.35-6.59.52-9.88-.7-10.15-1.21-.27-2.45,2.77-4.9,8.86-9.4,23.3-18.84,49.51-26.66,76.07-13.61,46.22-22.09,92.67-17.62,126.52.32,2.19.59,4.3.58,6.18-.02,1.96-.33,4.17-1.58,6.26-1.26,2.1-3.06,3.41-4.78,4.35-1.65.9-3.66,1.66-5.75,2.42l-.55.17c-13.59,3.4-24.76,2.17-33.67-4.08-8.63-6.06-14.05-16.14-17.97-28.01l-.12-.41c-1.63-6.52-2.99-13.59-4.09-21.08-.03-.18-.27-.21-.34-.04-.19.45-.38.9-.56,1.34-8.06,19.33-17.57,37.92-28.46,52.59-10.8,14.54-23.51,25.98-38.19,29.66-9.84,2.47-18.71,1.06-26.34-3.65-7.43-4.6-13.23-12.04-17.77-20.93-4.42-8.63-7.87-19.04-10.53-30.48-1.08-4.66-1.62-6.99-2.73-7.04-1.11-.05-1.87,2.2-3.38,6.7-3.37,10.07-7.28,20.76-11.73,31.01-5.52,12.71-11.99,25.03-19.51,34.83-7.45,9.72-16.42,17.6-27.12,20.28-11,2.76-20.76.24-28.76-6.4-7.72-6.41-13.52-16.38-17.79-28.23-1.44-4-2.74-8.28-3.88-12.8-.89-3.5-1.33-5.25-2.34-5.36s-1.83,1.47-3.48,4.65c-9.41,18.19-20.53,36.39-33.72,56.35-.23.35-.35.52-.41.71-.06.2-.07.41-.08.82-1.73,52.87-4.92,106.05-15.4,148.19-10.55,42.43-29.12,76.14-63.63,84.77-7.3,1.82-15.26,2.86-23,1.63-18.89-2.6-32.35-14.74-38.62-31.05-6.21-16.15-5.38-36.22,3.4-55.53,6.54-17.83,18.44-37.91,32.71-58.94,12.68-18.69,27.44-38.45,42.3-58.34l2.09-2.8c.78-1.05,1.56-2.1,2.35-3.15.24-.32.36-.49.43-.67.08-.19.1-.38.14-.78,1.09-10.44,1.98-20.84,2.85-30.85,1.37-15.79,2.65-30.6,4.44-43.1.61-8.07.51-16.44.4-25.13v-.19c-.01-.54-.78-.65-.93-.13-2.81,9.71-5.95,19.67-9.41,29.39-6.44,18.09-14.08,35.64-22.94,49.45-8.72,13.58-19.34,24.66-32.15,27.86-9.37,2.35-17.81,1.53-25.08-2.6-7.13-4.04-12.45-10.89-16.53-19.27l-.03-.05c-.88-1.85-1.7-3.86-2.47-6.02-1.2-3.33-1.79-5-2.77-5.05-.98-.05-1.73,1.52-3.23,4.66-14.61,30.62-35.59,57.08-66.39,64.79-34.63,8.67-68.21-6.34-97.61-31.86-27.66-24-52.47-57.99-72.37-93.08-.61-1.08-.91-1.61-1.43-1.8-.51-.18-1.1.04-2.27.49-3.27,1.24-6.45,2.29-9.6,3.33h0c-.65.22-1.3.43-1.94.65-.86.28-1.29.43-1.56.76-.27.33-.32.78-.42,1.68-4.86,42.93-7.45,85.2-7.19,121.22.28,37.65,3.69,67.65,10.44,84.52.14.26.35.44.88.58.76.21,1.98.24,3.48-.14,3.04-.76,5.49.68,6.8,2.04,1.32,1.37,2.04,3.09,2.32,4.73.48,2.83-.23,5.86-2.15,8.53-.15.2-.22.3-.26.38-.04.08-.09.2-.2.46-1.03,2.51-3,4.15-4.25,5.03-1.86,1.31-3.97,2.2-5.51,2.58l-.71.14c-22.55,2.71-40.23-2.7-53.24-15.02-12.78-12.1-20.34-30.21-24.32-51.54-7.44-39.85-2.84-93.48,6.81-148.45.3-1.71.45-2.57-.01-3.1-.46-.53-1.35-.5-3.13-.44-1.85.07-3.65.07-5.37-.02-5.12-.24-10.02-1.21-14.22-3.54-8.88-4.93-12.24-14.44-11.87-27.36.01-.48.02-.72.11-.94.09-.23.24-.42.55-.8l3.13-3.84c.31-.37.46-.56.66-.69.2-.13.44-.19.91-.31l.78-.2c2.12-.53,4.44-.84,6.22-1.05.35-.04.66-.08.96-.12.53-.06.99-.12,1.44-.18.33-.04.59-.08.8-.12.1-.02.18-.03.24-.04h.03s.02-.01.02-.01c.02,0,.03-.01.03,0l1.25-.18c7.48-.2,14.65-1.97,22.53-3.94l1.68-.42c.86-.22,1.29-.32,1.58-.62.29-.3.39-.73.58-1.6,19.63-88.58,47.04-171.11,56-196.97,6.41-20.98,20.47-37.31,36.94-41.44,9.05-2.26,18.66-.6,27.63,3.72.61.29.92.44,1.13.71.21.27.28.62.42,1.31l1.23,6.07c.14.67.2,1.01.13,1.33-.07.32-.3.6-.74,1.16-4.98,6.34-10.16,16.19-15.38,29.17-5.49,13.66-10.85,30.37-15.99,49.28-8.97,33.03-17.16,72.47-24.04,113.4-.45,2.66-.67,3.99.11,4.52.78.53,1.93-.16,4.23-1.53,29.53-17.66,57.73-40.02,80.66-64.94,26.44-30.38,48.1-75.01,51.64-116.28,1.76-20.58-1-40.01-9.58-56.4-8.53-16.3-23.03-30.04-45.58-39.02h-.01c-28.25-11.34-63.07-12.49-99.35-3.41-94.83,23.73-190.56,108.53-178.66,223.46.08.81.13,1.22-.02,1.57-.15.35-.46.6-1.09,1.09l-5.14,4.04c-.63.5-.95.75-1.34.8-.39.06-.75-.09-1.49-.37-23.76-9.22-38.8-27.65-44.77-50.92-6.05-23.57-2.78-51.81,9.32-80.51C36.51,106.61,96.55,46.1,192.9,14.07l.42-.12,23.34-5.84c63.9-15.99,115.35-7.3,152.71,17.21Zm211.31,178.03s.08,0,.04.04l-.02.02s-.03,0-.04,0c-.02-.01-.02-.03,0-.05,0,0,0-.01.02-.02Zm548.08,84.01h.03s.04.02.06.02c.07.02.06.04-.01,0l-.08-.03Zm-2.08-205.56l.18-.34c-.04.08-.1.2-.18.34Zm-328.15,92.21s-.1-.03-.15-.01c-1.39.49-3.67,2.08-6.67,5.88-3.11,3.93-6.41,9.51-9.75,16.51-6.67,13.97-13.12,32.88-18.28,53.75-10.38,41.98-15.16,90.32-6.99,121.19l.02.07c.22.87.43,1.63.64,2.29.41,1.27.61,1.91,1.44,2.09.83.18,1.27-.31,2.16-1.28.04-.04.07-.08.11-.12,1.85-2.06,3.94-5.05,6.24-8.98,4.59-7.84,9.58-18.66,14.68-31.28,10.19-25.19,20.55-56.78,28.85-84.07l.12-.34h0s.02-.04.02-.04h0s.03-.09.06-.16l.03-.06.02-.06c.03-.06.05-.14.08-.22.04-.1.08-.21.12-.34.21-.61.52-1.5.87-2.64.72-2.27,1.65-5.47,2.5-9.15,1.72-7.45,2.96-16.22,1.88-23.28-1-3.93-4.27-15.11-8.58-24.97-2.22-5.08-4.56-9.44-6.8-12.26-1.12-1.42-1.99-2.15-2.54-2.47-.03-.02-.05-.03-.08-.04Zm-243.31,465.4c.02.07.08.12.16.12.04,0,.08,0,.12,0,1.01.03,2.25-.11,3.54-.43,3.19-.8,6.88-3.56,10.86-9.39,3.92-5.73,7.64-13.74,11.17-23.68,3.39-9.54,6.51-20.59,9.42-32.66,1.37-5.7,2.06-8.55.93-9.04-1.13-.5-2.75,1.95-5.98,6.86-7.8,11.82-14.57,22.75-19.8,32.55-5.07,9.5-8.5,17.62-10.07,24.21-1.25,5.26-1.17,8.92-.34,11.44Z"/>
      <path class="cls-1" d="m1104.67,441.93c3.86,3.24,6.49,7.7,6.86,13.37.04.6.06.9-.07,1.21-.13.31-.37.53-.86.98l-4.42,4c-.48.43-.71.65-1,.74-.29.1-.62.07-1.27.02-18.34-1.61-42.63,1.41-70.58,8.24-3.5.86-7.06,1.77-10.65,2.74-.39.11-.35.69.05.75,5.7.95,11.73,3.19,16.1,7.51l.18.19c1.64,1.77,3.08,4.21,2.91,7.23-.16,2.87-1.71,4.91-2.78,6.07-.95,1.03-2.13,2-2.96,2.69-.1.08-.2.16-.28.24-1,.82-1.66,1.4-2.14,1.95l-.24.26c-7.2,7.4-14.11,21.7-20.41,40.93-6.22,18.98-11.58,41.92-16.09,65.8-3.72,19.72-6.85,39.99-9.39,59.06-.65,4.88-.97,7.31-.59,7.8.4.51,1.07.7,1.67.47.58-.22,1.58-2.49,3.59-7.03,5.64-12.77,12.1-25.23,19.19-35.04,6.93-9.6,15.21-17.73,24.81-20.08,8.72-2.14,16.56.2,22.02,3.59,2.72,1.69,5.02,3.74,6.65,5.88.81,1.06,1.55,2.28,2.04,3.59.44,1.15.83,2.79.53,4.61,0,.01,0-.01,0,.01-.05.25-.2.54-.37.73-.01,0-.02.02-.03.04l-3.22,3.27c-.21.21-.02.52.25.39.05-.02.1-.05.14-.07.28-.14.5-.29.67-.41.35-.25.58-.49.7-.63.24-.27.3-.43.26-.34-.08.15-.3.66-.52,1.62l-.03.13c-2.82,11.24-7.72,43.84-9.05,74.42-.66,15.28-.41,29.7,1.33,40.52.87,5.43,2.06,9.61,3.49,12.44.99,1.98,1.88,2.92,2.54,3.36.03.02.07.03.1.03h1.35s.04-.05,0-.05c-.07-.01-.1,0-.08,0,.04,0,.16,0,.39-.04.37-.06.8-.15,1.36-.28.13-.03.19-.05.26-.07.07-.03.12-.05.23-.1,3.36-1.54,7.25-5.1,11.38-10.77,4.27-5.84,8.34-13.3,12.01-21.32.69-1.51,1.36-3.03,2.02-4.56.12-.28.18-.41.21-.56.03-.15.03-.3.03-.6-.02-32.22,8.78-67.38,20.11-92.75,3.45-7.76,8.93-18.48,15.95-27.92,6.87-9.24,15.98-18.27,26.96-20.95,2.7-.66,5.16-.62,7.06-.58.35,0,.67.01.98.02h.32c5.49.35,10.11,2,13.84,4.82,3.69,2.8,6.16,6.49,7.81,10.37,3.21,7.56,3.59,16.61,3.48,23.76-.15,13.86-3.63,35.84-11.09,55.44-3.74,9.82-8.58,19.32-14.7,26.94-6.12,7.63-13.79,13.71-23.21,16.01h-.04s-.43.12-.43.12c-.36.09-.6.44-.56.8.74,5.82,2.18,10.56,4.18,14.01,2.47,4.26,5.69,6.49,9.96,6.91,1.57-.03,3.16-.39,4.87-.81,4.17-1.02,8.48-4,12.79-8.97,4.28-4.93,8.22-11.43,11.72-18.7,6.99-14.54,11.82-31.33,14.12-42.58l.03-.13c.51-2.24,1.23-4.43,2.34-6.24,1.12-1.84,2.97-3.84,5.84-4.55,3.94-.96,7.39.75,9.45,3.07,2.02,2.28,3.13,5.51,2.66,8.85l-.04.24c-3.59,19.41-10.18,47.2-21.18,71.54-10.83,23.96-26.77,46.44-50.05,52.12-13.15,3.21-24.49-1.11-32.96-8.89-5.13-4.72-9.25-10.71-12.28-17.19-.28-.61-1.15-.62-1.44-.03-5.57,11.19-11.65,20.92-18.05,28.36-6.32,7.34-13.38,12.97-21.02,15.03l-.2.05c-7.63,1.77-14.52.83-20.43-2.66-5.75-3.41-10.01-8.91-13.19-15.28-6.3-12.62-9.23-30.39-10.44-48.61-.93-14.01-.87-28.73-.35-42.37.25-6.67.38-10-.85-10.25-1.23-.25-2.4,2.84-4.73,9.02-15.07,39.83-26.26,85.21-26.9,121.26,0,.1,0,.15,0,.2,0,.05,0,.12.02.25.39,3.53-1.56,6.24-3.49,7.8-2.01,1.63-4.6,2.61-7.02,3.2-5.5,1.34-12.57,1.13-19.01-2.87-6.54-4.05-11.56-11.43-13.98-22.71l-.04-.16c-2.48-13.45-2.94-40.23-1.59-72.51,1.36-32.49,4.6-71.14,9.73-108.62,5.13-37.44,12.18-73.96,21.25-102.09,4.53-14.05,9.64-26.26,15.41-35.52.2-.33.41-.65.61-.97,2.86-4.45,4.3-6.67,3.64-7.49-.66-.83-3.03.02-7.77,1.7-11.08,3.95-22.33,8.3-33.6,12.98-.6.25-.9.38-1.12.61-.22.23-.32.54-.53,1.14-27.6,80.49-47.71,179.76-43.68,264.56v.1c.31,9.83,1.39,25.3,4.2,40.11,1.4,7.4,3.2,14.51,5.49,20.61,2.32,6.17,4.98,10.92,7.89,13.95l.24.27c1,1.17,2.72,3.95,1.3,7.28-1.24,2.9-3.93,3.79-5.06,4.07-1.18.29-2.19.29-2.94.23-.27-.03-.4-.04-.5-.03-.1,0-.21.03-.43.07-12.73,2.38-23.41.53-32.12-4.7-8.87-5.31-15.08-13.73-19.47-23.13-8.7-18.63-11-42.78-11.63-60.46v-.04c-2.25-78.71,20.48-162.69,47.64-236.5,1.1-3,1.65-4.5.9-5.16-.76-.67-2.17.07-4.99,1.53-33.67,17.46-64.42,36.88-87.57,55.64-17.06,14.3-28.93,29.49-34.37,42.91-5.42,13.38-4.14,23.86,2.93,30.96l.53.61c1.92,2.55,3.33,5.93,2.42,9.52-.98,3.81-4.06,5.9-7,6.62-4.45,1.09-9.03-.27-12.72-3.94-12.82-11.91-20.73-24.36-24.36-37.06-3.65-12.76-2.85-25.38,1.12-37.37,7.87-23.73,28.18-45.06,51.54-61.67l.09-.06c43.8-29.95,91.11-52.55,137.25-68.39.63-.22.95-.33,1.18-.54.23-.22.36-.54.63-1.17.63-1.53,1.14-2.58,1.76-3.86h0c.52-1.08,1.13-2.33,1.95-4.16,3.33-8.45,9.02-12.56,15.4-14.12,4.35-1.06,8.64-.66,12.16.63,3.19,1.15,6.63,3.38,8.29,6.85.04.08.05.12.08.17.05.13.09.3.1.44,0,.06,0,.12,0,.22-.01.61-.02.91.05,1.14.18.57.68.98,1.28,1.03.24.03.54-.05,1.13-.19,31.54-7.51,62.23-13.73,95.75-14.73h.02c6.98-.18,18.52-.27,28.45,2.15,4.96,1.2,10.05,3.15,14,6.46Zm52.63,181.6c.1-.19-.15.28-.05.16.7-.85,2.34-.45,2.57.62.03.15.03-.31.03-.13.06,5.86-.52,12.2-.79,15.18-.04.42-.07.77-.1,1.04-1.01,7.79-4.18,21.95-9.28,34.61-2.57,6.37-5.52,12.1-8.77,16.42-.22.29-.67.11-.62-.26,1.35-9.92,3.61-23.24,6.62-36.08,2.43-10.34,5.27-20.08,8.41-27.38.67-1.55,1.33-2.95,1.98-4.19Z"/>
      <path class="cls-1" d="m1478.99,577.89c9.49,8.63,14.13,23.39,12.46,44.11-3.41,43.09-18.09,102.86-35.62,160.93-17.34,57.45-37.62,113.66-52.96,151.2-.1.24-.15.36-.17.48-.03.13-.03.26-.05.52-1.12,29.13-.7,54.28,2.35,72.56,1.55,9.32,3.73,16.43,6.45,21.28,2.53,4.51,5.19,6.54,7.87,7.19.29.07.43.11.53.14.09.04.19.1.39.21l.05.03c.52.29.78.44,1.06.47.29.04.57-.04,1.15-.2l2.37-.64c.11-.03.17-.05.22-.07.06-.02.1-.04.2-.09,6-2.71,12.35-8.87,18.69-17.94,6.43-9.21,12.41-20.77,17.69-33.03,5.7-13.26,10.48-27.09,14.06-39.22.06-.19.08-.28.1-.37.02-.1.02-.2.03-.39.1-4.49.3-9,.58-13.52,2.36-37.4,10.93-76.23,25.51-107.6,14.49-31.18,35.49-56.15,63.33-63.64l.11-.03c3.42-.92,7.33-1.97,12.43-2.31,22-1.43,37.23,16.53,46.44,36.31,8.97,19.27,13.52,42.78,13.51,60.59,0,.4,0,.59.05.77s.15.37.35.73c5.95,10.84,5.57,24.36,5.33,32.71v.03c-.23,9.44-1.03,20.38-2.76,31.59-.6,3.89-.9,5.83.3,6.21,1.2.39,2.03-1.27,3.68-4.59.45-.9.88-1.83,1.31-2.8,2.96-6.68,5.07-13.98,6.87-20.5.04-.16.07-.23.08-.31.02-.08.02-.16.03-.33,1.93-38.51,4.28-74.63,6.99-103.07,1.65-17.31,3.45-31.9,5.4-42.49.97-5.27,2.01-9.74,3.16-13.13.57-1.68,1.23-3.29,2.02-4.65.7-1.21,1.95-3.02,4.06-4.04l1.02-.38h0s.21-.06.96-.67c.05-.04.1-.08.16-.13.12-.09.25-.21.41-.33.17-.14.36-.28.55-.43.14-.11.29-.21.43-.31.67-.47,1.7-1.11,3.05-1.47,5.97-1.61,13.36-2.02,20.2-1.02,6.68.97,13.95,3.45,18.58,8.67l.31.37c3.15,4.21,2.28,9.48,1.61,12.5-.37,1.65-.85,3.34-1.28,4.81l-.07.25c-.47,1.61-.84,2.96-1.09,4.16l-.02.12c-.62,2.76-1.22,5.93-1.79,9.5-.55,3.39-.83,5.09-.71,5.43.33,1,1.56,1.35,2.36.66.27-.24.93-1.86,2.25-5.12,6.52-16.12,14.47-31.62,24.03-44,9.54-12.34,21.05-22.06,34.78-25.76,11.61-3.12,21.87.23,30.21,7.59,8.1,7.15,14.43,18.07,19.24,30.62l.05.14c13.94,39.36,13.01,103.07.95,158.69-6.05,27.92-14.99,54.23-26.56,74.78-11.48,20.37-26.14,36.08-44.09,40.9-14.65,3.94-27.45-.59-37.41-8.69-4.52-3.67-8.51-8.1-11.92-12.89-2.73-3.83-4.09-5.75-5.11-5.43-1.02.32-1.05,2.59-1.1,7.14-.58,50.04.51,100.7,3.52,144.4,2.1,30.47,5.13,57.43,9.15,78.39,2.01,10.49,4.25,19.35,6.69,26.34,2.12,6.06,4.26,10.36,6.29,13.09.52.7.79,1.06.85,1.4.06.34-.05.72-.27,1.46l-1.84,6.29c-.23.78-.34,1.16-.62,1.43-.28.27-.67.37-1.44.58l-.99.27c-15.36,4.13-28.36,2.78-39.08-2.99-10.6-5.7-18.28-15.35-23.86-26.53-11.08-22.2-14.75-52.25-15.72-76.6-1.22-28.47-.28-102.48,2.41-180.69.12-3.38.18-5.07-.7-5.48-.87-.42-2.21.74-4.88,3.05-5.1,4.42-10.92,7.76-17.57,9.55-.7.19-1.39.35-2.09.49-2.43.48-3.64.71-3.94.99-.23.21-.18.15-.32.42-.19.36-.08,2.11.16,5.58.11,1.65-.28,3.08-.6,4.07-.27.81-.63,1.72-.96,2.53h0s0,.02,0,.02c-.06.14-.12.28-.17.42l-.08.19c-14.43,32.66-31.74,63.37-72.36,74.29l-.74.15c-13.4,1.77-25.06-1.82-34.69-9.49-9.48-7.55-16.74-18.84-22.11-32.2-1.32-3.29-2.54-6.73-3.65-10.29-1.18-3.77-1.76-5.66-2.81-5.7-1.05-.03-1.76,1.79-3.18,5.44-.03.09-.07.18-.1.27-7.47,19.11-16.36,37.62-26.7,52.65-10.27,14.93-22.4,27.04-36.56,32.41l-.65.2c-13.13,3.27-24.64.63-34.2-6.5-9.31-6.95-16.4-17.87-21.77-30.7-.95-2.27-1.85-4.62-2.71-7.03-1.22-3.44-1.83-5.16-2.85-5.18-1.01-.03-1.69,1.65-3.06,5.01-.56,1.37-1.12,2.74-1.7,4.09-15.36,36.18-38.02,69.28-71.35,78.24-18.52,4.98-34.71-.72-47.08-11.57-12.21-10.71-20.81-26.47-25.09-42.37-15.27-56.77-1.28-134.7,20.37-186.35,4.86-11.65,12.61-27.72,22.65-41.87,9.89-13.95,22.74-27.1,38.1-31.23,3.63-.98,6.89-1,9.75-1.01.54,0,1.07,0,1.58-.02h.33c7.75.3,14.17,2.47,19.34,6.2,5.14,3.7,8.68,8.7,11.13,14.12,4.81,10.64,5.7,23.68,5.78,34.36.25,20.45-4.16,53.19-14.55,82.52-5.21,14.69-12.01,28.79-20.68,40.12-8.67,11.33-19.47,20.22-32.71,23.78h-.05c-.5.15-.97.27-1.42.39-1.28.34-1.92.5-2.23.97-.31.47-.23,1.09-.05,2.33,1.32,9.39,3.78,17.16,7.28,22.88,4.29,7.01,10.02,10.89,17.58,11.41,2.79-.09,5.51-.79,8.08-1.48,7.01-1.89,13.84-6.99,20.34-14.84,6.47-7.81,12.27-17.94,17.33-29.1,4.15-9.16,7.73-18.88,10.72-28.33.08-.26.12-.39.14-.52.02-.14.01-.27,0-.55-.4-6.65-.63-13.33-.68-19.96-.39-46.46,6.17-127.22,18.48-203.65,6.15-38.24,13.77-75.53,22.72-106.99,8.83-31.05,19.15-57.13,31.09-72.69,6.76-11.44,18.76-17.57,28.93-20.31,11.99-3.22,24.96-2.04,34.5,6.63Zm304.54,170.55c-.44-.22-1.15-.42-2.55-.05,0,0-.05.02-.18.07-.13.05-.29.11-.48.2-.1.05-.2.1-.31.15-.08.04-.16.08-.24.12-.25.13-.51.26-.78.41-1.03.58-1.8,1.12-2.1,1.38l-.51.4c-3.14,2.22-6.7,6.15-10.51,11.85-3.76,5.64-7.55,12.68-11.26,20.77-7.42,16.18-14.33,36.13-19.95,56.43-5.62,20.29-9.9,40.77-12.1,57.96-1.1,8.6-1.67,16.28-1.64,22.66.03,6.44.66,11.09,1.67,13.95,1.28,3.24,3.56,7.24,6.39,10.01,2.83,2.77,5.34,3.58,7.75,2.93,2.83-.76,6.74-3.77,11.35-10.25,4.46-6.26,8.97-14.89,13.3-25.22,8.66-20.62,16.3-47.23,21.51-73.3,5.22-26.12,7.91-51.25,6.9-68.95-.52-8.98-1.95-15.3-3.93-18.88-.94-1.71-1.79-2.39-2.33-2.66Zm-198.47,53.24h0s0,0,0,0Zm-.9.21c.61,0,.91,0,1.17.11.04.02.09.04.13.06.26.13.38.28.64.58.09.11.19.23.3.37,1.4,1.77,3,4.8,4.58,9.06,3.08,8.29,5.61,19.95,6.81,32.4.01.11.02.16.02.22,0,.05,0,.11,0,.22-.05.84-.08,1.81-.12,2.87v.04c-.08,2.1-.18,4.52-.34,6.84-.04.55-.06.83-.18,1.07-.12.25-.33.45-.75.86-10.91,10.54-17.13,27.25-19.75,44.17-2.68,17.3-1.78,35.97,2.58,50.95.14.48.21.72.2.96s-.1.47-.27.92c-4.68,12.37-9.71,22.79-14.98,30.56-5.76,8.49-11.25,12.99-16.13,14.3-.36.1-1.13.15-2.68-.25-1.36-.35-2.85-.91-4.65-1.63-.16-.06-.23-.09-.32-.14-.09-.05-.14-.08-.23-.16-1.65-1.25-3.62-4.09-5.3-9.54-1.78-5.82-2.92-13.62-3.34-22.91-.84-18.55,1.18-42.11,5.55-65.66,4.37-23.56,11.03-46.78,19.29-64.73,4.13-8.98,8.58-16.44,13.19-21.94,4.32-5.15,8.49-8.22,12.36-9.52.17-.06.26-.09.37-.11.04,0,.08-.01.12-.01.11-.01.21,0,.41,0h.05c.32.02.81.05,1.29.05Zm-290.19,72.45c-.02-.06-.09-.08-.14-.05-1,.74-2.21,1.94-3.61,3.87-2.31,3.19-4.64,7.69-6.92,13.35-4.55,11.28-8.52,26.18-11.8,41.83-4.4,20.91-7.46,42.62-9.09,57.93-.32,2.98-.48,4.47.54,4.89,1.01.43,1.92-.68,3.74-2.9.75-.91,1.5-1.89,2.25-2.93,4.92-6.87,9.26-15.83,12.94-25.59,7.32-19.45,11.63-41.07,12.9-53,.01-.2.03-.43.05-.68l.06-.9c.31-4.45.97-14.15.68-23.12-.18-5.28-.67-9.75-1.54-12.57l-.02-.07-.02-.06Z"/>
      <path class="cls-1" d="m2043.34,629.21c.14,1.61.21,2.42.75,2.81.54.4,1.33.22,2.91-.15,7.58-1.73,16.81-3.41,25.79-3.73,13.07-.48,28.61,1.8,35.73,14.61l.06.11c2.55,4.8,3.5,12.09,3.84,19.99.36,8.2.07,18.18-.53,29.09-.57,10.52-1.44,22.05-2.33,33.89v.03l-.11,1.39c-.93,12.36-1.87,25.05-2.55,37.39-1.34,24.85-1.52,47.66,1.58,63.23,1.57,7.87,3.81,12.97,6.36,15.67,1.18,1.25,2.37,1.93,3.62,2.25,1.28.32,3.01.35,5.39-.34,5.95-1.79,12.4-7.07,18.99-15.59,6.5-8.4,12.62-19.28,18.1-31.12,10.89-23.51,18.89-49.97,22.23-66.19.57-7.18,4.63-12.28,9.27-13.53,4.38-1.18,8.52.44,11.16,2.56,2.21,1.77,5.36,5.68,4.08,10.45-3.81,22.62-13.66,65.34-29.08,104.32-7.75,19.59-16.99,38.48-27.73,53.45-10.66,14.85-23.31,26.59-38.12,30.58-12.07,3.25-22.6,2.4-31.43-2.42-8.71-4.75-14.97-12.93-19.46-22.81-8.9-19.58-11.78-47.87-11.91-77.42-.13-29.76,2.54-61.66,5.3-88.96.82-8.13,1.64-15.8,2.4-22.88,1.81-16.95,3.26-30.49,3.45-38.63v-.08c0-.08,0-.16,0-.23,0-.06,0-.11-.01-.16,0-.14-.02-.24-.03-.31-.02-.07-.03-.11-.03-.13,0-.02-.01-.03-.01-.03h0s0,0,0,0c-.01-.01-.07-.06-.18-.13-.62-.38-2.05-.78-4.57-.82-2.37-.04-5,.25-7.48.61-.63.1-1.11.62-1.14,1.26-.58,10.36-1.96,20.34-3.37,30.5-.49,3.53-.98,7.09-1.44,10.69l-.02.11c-.88,5.9-2.04,13.21-3.36,21.5h0s-.01.08-.01.08c-3.67,23.06-8.57,53.77-11.92,83.41-2.28,20.14-3.82,39.58-3.79,55.57.02,8,.43,15.01,1.29,20.74.87,5.7,2.12,9.66,3.54,12.08.06.1.09.15.11.2.02.04.04.09.08.18l.48,1.13c.04.09.06.13.07.17.02.04.04.11.08.23.19.62.43,1.09.8,1.81l.02.03c.08.16.17.33.27.51.08.16.17.33.26.52.16.32.39.79.57,1.32.18.49.46,1.39.45,2.51,0,1.26-.39,2.85-1.6,4.22-1.11,1.25-2.44,1.76-3.28,1.99l-.2.06c-1.14.31-2.56.69-4.23.76-1.64.07-3.28-.15-5.18-.53-9.77-.68-17.8-4.84-23.46-11.39-.55-.63-1.57-.52-1.94.23-15.07,30.57-36.02,56.74-65.1,64.55-18.52,4.98-34.71-.73-47.08-11.58-12.21-10.71-20.81-26.46-25.09-42.37-15.26-56.77-1.28-134.7,20.37-186.34,4.86-11.65,12.61-27.72,22.65-41.88,9.89-13.95,22.74-27.09,38.11-31.23,3.63-.98,6.89-.99,9.74-1.01h0c.54,0,1.07,0,1.58-.01h.32c7.75.3,14.17,2.47,19.35,6.2,5.13,3.71,8.68,8.71,11.13,14.12,4.81,10.65,5.7,23.68,5.78,34.37.25,20.45-4.16,53.19-14.55,82.52-5.21,14.69-12,28.79-20.67,40.12-8.68,11.33-19.48,20.21-32.71,23.78h-.05c-.5.14-.97.27-1.42.39-1.28.34-1.92.5-2.23.97-.31.47-.22,1.09-.05,2.33,1.32,9.4,3.78,17.16,7.29,22.88,4.29,7.01,10.02,10.89,17.57,11.4,2.79-.08,5.51-.79,8.08-1.48,7.02-1.88,13.84-6.98,20.34-14.84,6.47-7.81,12.28-17.94,17.33-29.1,1.2-2.66,2.36-5.37,3.47-8.1.07-.17.11-.26.13-.35.03-.09.04-.19.07-.37,2.79-21.39,8.09-44.8,13.7-68.27,1.01-4.24,2.03-8.48,3.05-12.72l.03-.11.02-.11h0c7.14-29.62,14.23-59.05,17.41-85.28.2-1.63.3-2.45-.18-2.95-.47-.5-1.32-.45-3-.34-14.73.94-26.11-.92-34.43-5.2-10.67-5.49-15.68-14.66-16.23-24.86-.53-9.84,3.07-20.35,8.69-29.66,5.64-9.35,13.63-18,22.69-24.21,4.69-3.48,8.99-4.64,12.43-5.57l.15-.04c4.82-1.29,9.73-1.3,14.29.86,4.51,2.14,7.88,6.01,10.42,10.94,4.1,7.95,6.66,19.87,8.06,35.92Zm-99.89,70.49c-.02-.05-.08-.07-.13-.04-1,.73-2.22,1.94-3.61,3.87-2.31,3.19-4.64,7.69-6.92,13.35-4.55,11.28-8.52,26.18-11.81,41.83-4.39,20.9-7.46,42.62-9.09,57.93-.32,2.98-.47,4.47.54,4.89,1.01.43,1.92-.69,3.74-2.9.75-.92,1.5-1.89,2.25-2.93,4.92-6.87,9.26-15.83,12.93-25.59,7.32-19.45,11.63-41.07,12.9-53,.03-.41.06-.94.11-1.58.3-4.45.97-14.15.67-23.12-.18-5.28-.67-9.75-1.54-12.57-.02-.05-.03-.1-.04-.14Z"/>
      <path class="cls-1" d="m714.14,772.35c44.72,17.03,86.66,56.1,107.8,134.72,14.34,53.32,14.19,107.87,9.96,153.13-.13,1.4-.2,2.1.19,2.57.39.47,1.1.54,2.52.69,4.48.47,9.35,1.28,13.97,2.73,8.04,2.54,16.59,7.45,19.85,17.24l.1.33.85,3.17c.04.14.06.2.07.27.02.07.02.14.03.28l.12,1.62c.01.14.02.21.02.29,0,.08-.01.14-.03.27-.41,3.12-1.46,5.74-3.16,7.76-1.75,2.09-3.86,3.16-5.68,3.64-5.51,1.48-11.15,2.27-16.38,2.99h0s-.16.03-.16.03c-5.4.75-10.38,1.45-15.14,2.73l-3.38.91c-.86.23-1.28.35-1.57.65-.29.31-.38.74-.56,1.61-13.35,65.2-37.48,122.95-68.77,167.58-32.11,45.79-72.04,78.1-115.92,89.9-17.11,4.6-36.55,5.5-53.29.11-17-5.48-31.2-17.51-36.76-38.17-6.76-25.15,2.31-50.83,12.49-72,.54-1.13.81-1.69.68-2.21-.14-.52-.67-.9-1.73-1.66-1.98-1.41-3.98-3.12-5.91-5.21-4.46-4.84-8.27-11.48-10.79-20.86-5.66-21.03-6.08-53.41-3.3-90.18,2.8-36.97,8.92-79.06,16.75-119.91,7.84-40.85,17.42-80.56,27.19-112.77,4.88-16.1,9.83-30.41,14.67-42.07,4.73-11.42,9.51-20.73,14.22-26.69,3.4-5.03,5.1-7.55,4.75-8.3-.11-.24-.23-.39-.44-.55-.66-.51-3.24.52-8.42,2.56-35.72,14.13-71.91,39.58-102.24,70.75-36.29,37.3-63.59,82.18-71.83,124.56l-.2.74c-.86,2.55-1.33,5.25-1.88,8.47l-.03.18h0c-.47,2.75-1.01,5.9-1.98,9.05-.05.15-.07.23-.08.29-.02.07-.03.15-.04.3-.27,2.39-.95,6.86-1.76,11.07-.5,2.56-1.07,5.21-1.69,7.43-.31,1.1-.65,2.2-1.02,3.16-.27.68-.73,1.78-1.47,2.79l-.04.07c-.16.24-.37.53-.64.87-.49.62-1.17,1.4-2.07,2.23-.12.11-.18.16-.25.22-.08.05-.15.09-.31.18l-1.73.93c-.16.09-.24.13-.33.16-.09.04-.17.06-.31.09-5.12,1.22-10.17-1.32-13.85-3.91-4.1-2.88-8.25-7.05-12.04-11.67-7.54-9.2-14.57-21.32-17.28-31.39-5.84-21.73-2.29-44.37,3.93-63.61,6.23-19.28,15.32-35.69,21.23-45.31,44.69-74.96,125.41-130.44,193.06-148.63,29.52-7.93,75.68-13.06,120.02,3.82Zm-43.61,45.29c-1.95-.11-2.92-.16-3.15-.1-1.12.3-1.49,1.56-.71,2.42.16.17,1.08.7,2.93,1.75.06.04.09.06.12.08.13.08.24.18.34.29.03.03.05.06.09.11l2.12,2.76c.18.23.27.35.33.48s.11.27.18.55l.56,2.07c.11.4.16.6.16.81,0,.21-.07.41-.19.8l-1.27,4.26c-.11.36-.16.54-.26.69-.01.03-.03.05-.05.07-.1.16-.24.28-.52.53-.14.12-.21.19-.27.26-.01.01-.02.02-.03.04-.06.07-.11.15-.21.3-9.83,15.7-18.61,39.07-26.28,67.56-7.8,28.99-14.34,62.86-19.7,98.5-9.29,61.78-15,128.6-17.64,184.01-.17,3.42-.25,5.13.71,5.53.95.4,2.12-.87,4.46-3.4,44.8-48.4,101.68-89.95,154.87-111.83.74-.31,1.12-.46,1.35-.76.24-.3.31-.69.43-1.47,7.53-46.26,7.38-106.8-6.91-159.95-14.07-52.33-36.65-77.53-60.15-88.64-10.17-4.81-20.77-7.1-31.32-7.68Zm-66.83,487.35c-.13.9-.19,1.35.05,1.78.24.43.63.61,1.42.96,7.33,3.27,16.05,1.73,24.85-.64,27.38-7.36,53.63-30.04,76.11-62.54,18.37-26.56,33.92-59.23,45.26-94.21,1.09-3.37,1.64-5.06.77-5.68-.86-.63-2.3.41-5.16,2.5-21.28,15.48-50.29,38.54-76.75,63.79-18.13,17.3-34.91,35.47-47.18,52.8-10.85,15.34-17.71,29.39-19.38,41.24Z"/>
      <path class="cls-1" d="m1176.25,866.51c6.85,1.28,12.14,4.88,15.89,10.13,3.69,5.17,5.74,11.7,6.77,18.74,2.05,14.03.29,31.84-2.96,49.81-4.51,24.9-12.27,51.88-17.82,71.13v.02s0,.02,0,.02c-2.16,7.49-3.97,13.81-5.14,18.38-.07.25-.1.38-.11.51-.01.13,0,.26.04.52,1.89,16.66,6.07,37.22,14.22,49.7.07.1.1.16.13.21.02.05.05.1.1.21l.56,1.25c.05.11.08.17.1.22.02.06.03.11.07.23.01.04.02.07.03.11v.03c.37,1.35.78,2.87.9,4.04.06.64.18,2.25-.67,3.92-1.06,2.09-2.89,2.96-4.09,3.28-6.63,1.78-13.77-.07-19.53-2.69-1.32-.6-2.61-1.26-3.87-1.97-1.69-.95-2.54-1.43-3.2-1.15-.66.28-.91,1.18-1.42,2.98-4.51,16.18-11.79,35.34-21.47,52.63-12.29,21.98-29.3,42.45-50.63,48.18-7.92,2.13-15.55,2.69-22.74.27-7.25-2.45-13.23-7.64-18.37-15.4-5.2-7.6-9.4-17.29-12.75-28.36-.18-.58-.27-.88-.33-.99-.52-1.03-1.91-1.11-2.55-.14-.07.11-.19.39-.42.94-15.36,36.18-38.02,69.28-71.36,78.24-18.52,4.98-34.71-.73-47.08-11.58-12.21-10.71-20.81-26.46-25.09-42.37-15.27-56.77-1.28-134.7,20.37-186.34,4.86-11.65,12.61-27.72,22.65-41.88,9.89-13.95,22.73-27.09,38.1-31.23,3.63-.98,6.89-.99,9.75-1.01.32,0,.63,0,.94,0,.22,0,.43,0,.64-.01h.32c7.75.3,14.18,2.47,19.35,6.2,5.13,3.71,8.68,8.71,11.13,14.12,4.81,10.65,5.7,23.68,5.78,34.37.25,20.45-4.16,53.19-14.55,82.52-5.21,14.69-12.01,28.79-20.68,40.12-8.67,11.33-19.48,20.21-32.71,23.78h-.04c-.5.15-.97.27-1.43.39-1.28.34-1.92.5-2.23.97-.31.47-.22,1.09-.05,2.33,1.31,9.4,3.78,17.16,7.28,22.88,4.29,7.01,10.02,10.89,17.57,11.4,2.79-.08,5.51-.79,8.08-1.48,7.02-1.88,13.84-6.98,20.34-14.84,6.47-7.81,12.28-17.94,17.33-29.1,3.16-6.97,5.98-14.25,8.47-21.51.1-.27.14-.41.16-.55s.01-.29,0-.57c-1.15-20.13-.97-41.26.33-61.77,1.89-29.78,6.15-58.46,12.27-80.96,3.06-11.24,6.63-21.12,10.71-28.87,3.8-7.24,8.44-13.4,14.18-16.6.11-.06.16-.09.19-.11.04-.03.09-.06.19-.14,1.31-.96,2.71-1.57,3.77-1.98,1.32-.5,2.63-.85,3.46-1.07l.07-.02c11.05-2.97,21.75-.75,29.17,3.85,3.69,2.3,6.87,5.37,8.71,9.04,1.9,3.79,2.39,8.33.23,12.66l-.74,1.12c-1.87,2.23-4.31,7.2-6.95,15.05-2.56,7.62-5.1,17.29-7.46,28.28-4.72,21.98-8.62,48.91-10.49,74.65-1.88,25.86-1.68,50.06,1.58,66.81,1.65,8.48,3.95,14.28,6.54,17.51,1.23,1.53,2.37,2.29,3.36,2.63.96.33,2.23.44,4.03-.09l.11-.03c3.4-.91,7.55-3.97,12.12-9.63,4.48-5.53,8.85-12.89,12.91-21.23,7.66-15.76,13.81-34.3,17.18-48.78.09-.41.14-.61.13-.82-.01-.21-.08-.41-.22-.81-7.68-22.19-12.08-62.56-9.85-99.04,1.16-18.99,4.14-37.41,9.64-51.96,5.42-14.31,13.88-26.39,26.96-29.91,4.73-1.27,8.63-.91,14.06.61Zm-203.93,94.31c-.02-.06-.08-.08-.13-.04-1,.73-2.22,1.94-3.61,3.87-2.31,3.19-4.64,7.69-6.92,13.35-4.55,11.28-8.52,26.18-11.8,41.83-4.4,20.9-7.47,42.62-9.09,57.93-.32,2.98-.47,4.47.54,4.89,1.01.43,1.92-.69,3.74-2.9.75-.92,1.5-1.89,2.25-2.93,4.92-6.87,9.26-15.83,12.93-25.59,7.32-19.45,11.63-41.07,12.9-53,.01-.17.02-.36.03-.57.02-.3.05-.64.07-1.02h0c.31-4.45.97-14.16.67-23.12-.17-5.28-.67-9.75-1.54-12.56-.02-.05-.03-.09-.05-.14Z"/>
    </g>
  </g>
</svg>